<?xml version="1.0" standalone="no"?>
<!DOCTYPE svg PUBLIC "-//W3C//DTD SVG 20010904//EN"
 "http://www.w3.org/TR/2001/REC-SVG-20010904/DTD/svg10.dtd">
<svg version="1.0" xmlns="http://www.w3.org/2000/svg"
 width="1200.000000pt" height="1200.000000pt" viewBox="0 0 1200.000000 1200.000000"
 preserveAspectRatio="xMidYMid meet">

<g transform="translate(0.000000,1200.000000) scale(0.100000,-0.100000)"
fill="#000000" stroke="none">
<path d="M8841 7969 c-96 -9 -260 -39 -341 -63 -32 -9 -46 -19 -48 -33 -5 -30
18 -33 94 -12 158 44 241 53 469 53 169 0 242 -4 315 -18 615 -115 1103 -483
1370 -1030 184 -376 235 -817 144 -1225 -113 -505 -434 -944 -881 -1207 -171
-101 -366 -175 -578 -220 -164 -35 -446 -44 -618 -20 -320 45 -614 165 -874
357 -52 39 -83 43 -83 10 1 -34 223 -179 406 -264 393 -183 859 -223 1288
-112 893 232 1499 1072 1435 1989 -31 449 -210 864 -514 1195 -60 65 -233 213
-317 269 -287 193 -602 303 -947 332 -132 11 -186 11 -320 -1z"/>
<path d="M8865 7819 c-121 -9 -278 -41 -400 -80 -124 -41 -331 -143 -448 -223
l-98 -66 -1978 0 -1978 0 -61 -30 c-92 -47 -135 -97 -202 -235 -32 -66 -107
-223 -168 -350 -60 -126 -147 -306 -191 -399 -45 -93 -84 -179 -87 -192 l-6
-24 -777 -2 -776 -3 -59 -30 c-103 -53 -123 -84 -331 -516 -289 -602 -315
-660 -315 -697 0 -42 25 -87 57 -101 17 -8 957 -11 3268 -11 3204 0 3245 0
3297 20 l51 19 116 -112 c265 -257 574 -416 941 -484 132 -24 468 -24 596 0
549 103 986 416 1257 899 154 276 225 574 214 908 -7 208 -29 336 -93 525
-144 430 -489 815 -909 1016 -196 94 -406 151 -622 169 -130 11 -153 11 -298
-1z m373 -84 c257 -37 505 -131 718 -274 467 -312 754 -851 754 -1416 0 -372
-137 -765 -367 -1053 -501 -627 -1353 -824 -2073 -481 -175 83 -317 186 -465
334 -148 148 -217 241 -304 406 -282 536 -264 1165 46 1677 266 439 709 732
1217 807 123 18 349 18 474 0z m-4185 -652 c-3 -16 -11 -55 -17 -88 l-11 -60
-161 -3 -161 -2 -10 -55 -10 -55 140 0 139 0 -5 -22 c-3 -13 -11 -51 -18 -85
l-12 -63 -138 0 c-136 0 -139 -1 -144 -22 -3 -13 -13 -61 -23 -108 l-17 -85
-113 -3 c-103 -2 -112 -1 -112 16 0 15 108 570 125 640 l5 22 275 0 275 0 -7
-27z m447 17 c134 -22 203 -96 203 -219 -1 -104 -50 -189 -135 -232 -44 -22
-45 -12 23 -131 22 -36 39 -71 39 -77 0 -7 -39 -11 -114 -11 l-115 0 -48 85
c-41 72 -52 84 -74 85 -23 0 -28 -5 -34 -37 -3 -21 -11 -59 -17 -85 l-10 -48
-115 0 c-114 0 -115 0 -110 23 3 12 34 165 68 340 l63 317 155 0 c86 0 185 -5
221 -10z m880 3 c0 -5 -7 -45 -16 -90 l-17 -83 -163 0 c-155 0 -164 -1 -164
-19 0 -11 -3 -26 -6 -35 -5 -14 10 -16 135 -16 158 0 149 6 131 -80 -22 -101
-2 -90 -161 -90 -103 0 -141 -3 -143 -12 -3 -7 -7 -25 -10 -40 l-6 -28 165 0
c195 0 179 17 140 -157 l-5 -23 -275 0 c-150 0 -276 3 -278 8 -3 4 25 157 61
340 l67 332 272 0 c150 0 273 -3 273 -7z m640 -12 c0 -10 -7 -51 -16 -90 l-16
-71 -158 0 c-168 0 -170 -1 -170 -51 0 -18 9 -19 135 -19 155 0 145 8 122
-105 l-13 -60 -139 -3 c-148 -3 -155 -5 -155 -54 l0 -28 165 0 165 0 -5 -22
c-3 -13 -11 -52 -18 -88 l-13 -65 -269 -3 c-148 -1 -275 0 -281 2 -8 3 8 104
53 328 35 178 66 329 68 336 3 9 67 12 275 12 257 0 270 -1 270 -19z m-4615
-1152 c180 -33 269 -157 244 -337 -12 -85 -37 -140 -90 -197 -98 -106 -165
-125 -457 -128 -195 -2 -222 0 -222 13 0 14 110 576 125 638 5 22 7 22 173 22
93 0 195 -5 227 -11z m935 -6 c0 -16 -7 -51 -25 -130 -5 -23 -8 -23 -165 -23
l-160 0 -6 -27 c-3 -16 -7 -34 -10 -40 -2 -10 29 -13 136 -13 157 0 148 5 130
-80 -22 -101 -3 -90 -160 -90 l-140 0 -6 -27 c-3 -16 -7 -34 -10 -40 -2 -10
35 -13 165 -13 l168 0 -16 -85 -17 -85 -279 -1 c-229 -1 -280 2 -278 13 4 28
124 634 128 646 3 9 67 12 275 12 251 0 270 -1 270 -17z m326 -5 c-8 -31 -85
-420 -88 -447 -3 -22 -2 -23 145 -21 81 0 147 -3 147 -7 0 -23 -34 -173 -39
-173 -388 -7 -521 -4 -521 10 0 14 110 576 125 638 5 21 9 22 121 22 116 0
116 0 110 -22z m587 -10 c-4 -18 -34 -169 -67 -336 l-61 -303 -113 -2 c-95 -2
-112 0 -112 13 0 14 110 576 125 638 5 21 9 22 120 22 l115 0 -7 -32z m311
-158 c21 -102 41 -187 43 -190 2 -2 8 2 12 10 5 8 58 95 117 192 l109 178 118
0 118 0 -15 -27 c-9 -16 -102 -167 -208 -336 l-193 -309 -110 0 c-81 0 -112 4
-117 14 -4 7 -37 148 -73 313 -37 165 -69 310 -72 323 l-5 23 118 -3 119 -3
39 -185z m1071 143 c-3 -27 -11 -65 -16 -85 l-10 -38 -158 0 c-172 0 -171 0
-171 -56 l0 -24 139 0 138 0 -16 -82 -17 -83 -142 -3 -142 -3 -6 -27 c-3 -15
-7 -33 -10 -39 -2 -10 35 -13 167 -13 l169 0 -5 -22 c-3 -13 -11 -51 -18 -86
l-12 -62 -278 -3 c-239 -2 -277 0 -277 13 0 15 117 612 126 643 5 16 27 17
276 17 l270 0 -7 -47z m566 14 c101 -49 142 -153 109 -273 -15 -52 -85 -135
-130 -154 -16 -7 -30 -16 -30 -21 0 -5 23 -49 50 -97 28 -48 50 -90 50 -93 0
-2 -54 -3 -120 -1 l-120 3 -42 79 c-37 69 -47 80 -70 80 -29 0 -38 -19 -53
-117 -4 -24 -11 -43 -16 -43 -60 -3 -212 0 -216 3 -3 4 100 546 124 646 l6 23
201 -3 c196 -4 202 -5 257 -32z m434 -79 c22 -59 43 -108 47 -108 3 0 46 49
95 110 l88 110 113 0 c61 0 112 -2 112 -5 0 -5 -276 -358 -318 -407 -8 -10
-25 -70 -38 -134 -13 -65 -26 -120 -29 -122 -7 -7 -225 -8 -225 -1 0 4 11 59
25 123 l24 117 -75 192 c-42 105 -80 202 -85 215 l-9 23 117 -3 117 -3 41
-107z"/>
<path d="M8745 7705 c-638 -103 -1171 -575 -1350 -1195 -92 -318 -86 -656 16
-979 40 -125 122 -293 199 -408 538 -804 1623 -993 2398 -416 104 78 274 249
348 353 153 212 250 437 299 690 26 135 31 375 10 521 -100 709 -617 1263
-1325 1420 -126 28 -460 36 -595 14z m923 -1007 c25 -25 11 -131 -63 -474 -74
-349 -92 -418 -121 -461 -14 -22 -13 -23 18 -23 l33 0 89 413 c49 226 91 422
94 435 4 21 7 22 136 22 191 -1 266 -23 356 -109 57 -54 270 -381 270 -414 0
-12 -16 -96 -35 -186 -27 -123 -33 -167 -24 -177 15 -18 2 -72 -21 -84 -10 -6
-80 -10 -154 -10 l-136 0 -19 -37 c-59 -114 -192 -182 -298 -154 -77 21 -133
88 -133 161 l0 30 -384 0 -384 0 -6 -24 c-9 -38 -91 -122 -143 -146 -68 -33
-164 -33 -214 -2 -48 29 -69 63 -78 121 l-6 46 -154 3 c-93 1 -160 7 -168 13
-18 15 -17 54 2 69 8 7 15 15 15 19 0 3 -79 5 -176 3 -123 -2 -180 1 -190 9
-25 21 -17 77 15 110 l29 29 250 0 c224 0 252 2 270 18 31 27 35 55 11 85
l-20 27 -230 0 c-226 0 -262 4 -281 34 -13 20 -8 69 9 88 15 17 46 18 558 18
568 0 559 -1 583 44 8 16 2 59 -11 78 -1 1 -240 5 -530 8 l-529 5 -20 24 c-22
28 -18 68 9 89 13 9 91 12 308 12 265 0 293 2 307 18 30 33 31 60 4 87 l-25
25 -231 0 c-255 0 -279 5 -298 59 -12 34 -6 68 16 94 14 16 67 17 852 17 637
0 839 -3 848 -12z"/>
<path d="M9860 6494 c0 -2 -20 -96 -45 -210 -25 -113 -45 -207 -45 -210 0 -2
124 -4 275 -4 151 0 275 3 275 6 0 20 -166 276 -202 311 -54 52 -128 90 -201
101 -31 5 -57 8 -57 6z"/>
<path d="M5315 6908 c-18 -82 -25 -121 -22 -125 3 -2 30 -4 61 -4 64 -1 102
18 112 56 15 62 -20 95 -101 95 -38 0 -45 -3 -50 -22z"/>
<path d="M2176 5633 c-15 -76 -29 -146 -32 -155 -5 -16 3 -18 71 -18 42 0 90
6 108 14 63 27 97 88 97 175 0 83 -50 121 -158 121 l-59 0 -27 -137z"/>
<path d="M5918 5695 l-15 -75 69 0 c60 0 72 3 93 25 31 30 33 77 5 105 -15 15
-33 20 -79 20 l-58 0 -15 -75z"/>
<path d="M2360 7258 c-28 -31 -26 -72 6 -97 26 -21 35 -21 581 -21 l554 0 24
25 c31 30 32 65 2 93 l-23 22 -562 0 -561 0 -21 -22z"/>
<path d="M1385 6815 c-14 -13 -25 -33 -25 -45 0 -11 11 -32 25 -45 l24 -25
861 0 861 0 24 25 c14 13 25 33 25 45 0 12 -11 32 -25 45 l-24 25 -861 0 -861
0 -24 -25z"/>
<path d="M5808 4763 c7 -3 16 -2 19 1 4 3 -2 6 -13 5 -11 0 -14 -3 -6 -6z"/>
<path d="M6182 4763 c192 -2 504 -2 695 0 192 1 35 2 -347 2 -382 0 -539 -1
-348 -2z"/>
<path d="M7323 4763 c48 -2 125 -2 170 0 45 1 6 3 -88 3 -93 0 -130 -2 -82 -3z"/>
<path d="M5803 4654 c-20 -20 -24 -32 -19 -56 12 -60 -36 -57 908 -58 l867 0
20 26 c27 35 26 59 -4 89 l-24 25 -861 0 -861 0 -26 -26z"/>
<path d="M3385 4598 c-11 -6 -23 -16 -27 -22 -14 -21 -8 -66 12 -86 20 -20 33
-20 585 -20 552 0 565 0 585 20 27 27 25 66 -5 95 l-24 25 -553 0 c-393 -1
-559 -4 -573 -12z"/>
</g>
</svg>
