<?xml version="1.0" standalone="no"?>
<!DOCTYPE svg PUBLIC "-//W3C//DTD SVG 20010904//EN"
 "http://www.w3.org/TR/2001/REC-SVG-20010904/DTD/svg10.dtd">
<svg version="1.0" xmlns="http://www.w3.org/2000/svg"
 width="225.000000pt" height="225.000000pt" viewBox="0 0 225.000000 225.000000"
 preserveAspectRatio="xMidYMid meet">

<g transform="translate(0.000000,225.000000) scale(0.100000,-0.100000)"
fill="#000000" stroke="none">
<path d="M1770 1846 c-36 -13 -83 -31 -105 -42 -22 -10 -44 -19 -50 -20 -16
-2 -84 -28 -117 -45 -10 -5 -26 -9 -36 -9 -9 0 -26 -6 -37 -14 -11 -7 -24 -13
-29 -13 -21 1 -56 -49 -91 -130 -21 -49 -49 -112 -62 -141 -18 -40 -23 -66
-21 -110 l3 -57 53 -7 c69 -8 102 -37 102 -88 0 -67 -50 -100 -153 -101 l-62
0 -52 -74 c-29 -40 -53 -76 -53 -78 0 -10 103 -27 165 -27 181 0 312 106 323
262 6 78 0 95 -52 156 -69 81 -71 148 -6 220 32 35 47 38 100 18 32 -11 39
-10 80 11 33 18 51 36 66 69 19 39 19 46 6 53 -9 5 -13 16 -9 30 3 12 0 21 -6
21 -7 1 -6 6 3 13 9 7 14 20 12 29 -2 11 14 30 47 53 28 21 51 39 51 41 0 2
-1 4 -2 3 -2 -1 -32 -11 -68 -23z m-364 -342 c-3 -7 -1 -16 4 -19 6 -4 10 -1
10 4 0 6 8 11 18 11 14 -1 13 -4 -7 -20 -13 -11 -36 -36 -52 -56 -16 -20 -29
-31 -29 -25 0 8 -5 9 -19 1 -29 -15 -28 -15 -28 44 0 51 2 56 29 69 34 17 82
11 74 -9z"/>
<path d="M1372 1501 c-11 -7 -11 -9 2 -14 10 -4 16 -1 16 8 0 17 -1 17 -18 6z"/>
<path d="M1275 1719 c-111 -60 -229 -104 -360 -133 l-100 -23 -3 -56 c-3 -54
-2 -57 24 -63 14 -4 55 -4 90 -1 35 4 64 3 64 -1 0 -4 -13 -23 -30 -42 -16
-19 -29 -39 -30 -43 0 -9 49 -57 59 -57 3 0 14 -7 23 -14 15 -11 16 -18 7 -44
-6 -17 -14 -30 -18 -29 -12 3 -71 -63 -71 -80 0 -8 -4 -11 -10 -8 -13 8 -12 5
1 -34 6 -17 15 -31 20 -31 4 0 5 7 2 17 -4 11 -3 14 5 9 7 -4 13 -2 13 3 1 6
2 17 3 24 0 6 6 12 11 12 20 0 35 17 36 38 0 13 6 3 15 -24 10 -33 22 -49 41
-59 16 -7 23 -15 15 -17 -6 -3 -10 -9 -7 -13 8 -13 -74 -90 -95 -90 -25 0 -55
30 -40 40 8 5 7 10 -2 18 -27 22 -42 17 -48 -13 -4 -25 -10 -30 -33 -30 -20
-1 -26 3 -23 15 15 55 21 68 37 91 l18 26 -46 -8 c-27 -5 -52 -17 -60 -29 -19
-27 -30 -25 -48 10 -9 17 -12 30 -9 30 4 0 -1 9 -12 21 -10 11 -19 26 -19 33
0 15 -61 86 -73 86 -5 0 -22 10 -37 21 -21 17 -29 19 -35 9 -4 -7 -12 -10 -18
-6 -6 3 -17 -1 -26 -9 -11 -12 -20 -13 -34 -6 -20 11 -62 4 -62 -10 0 -4 9
-13 20 -19 11 -6 18 -15 15 -19 -3 -5 12 -24 32 -42 21 -17 38 -39 39 -47 2
-8 7 -19 13 -25 17 -17 13 -27 -6 -20 -17 7 -17 6 0 -11 9 -10 15 -22 12 -27
-4 -5 -1 -9 5 -9 6 0 8 -4 5 -10 -3 -5 3 -15 15 -22 11 -7 20 -19 20 -26 0
-15 116 -132 131 -132 6 0 7 -5 4 -10 -4 -6 19 1 51 15 31 14 61 25 66 25 5 0
34 12 64 26 30 14 61 27 69 28 8 1 18 5 21 9 4 4 19 7 34 7 21 0 34 12 63 53
20 28 32 54 27 55 -16 6 -1 22 21 22 10 0 19 7 19 15 0 8 5 15 11 15 5 0 7 5
4 10 -3 6 -2 10 3 10 6 0 8 9 5 20 -3 12 0 20 7 20 9 0 11 10 7 33 -3 19 0 40
8 50 8 11 11 38 8 76 -4 54 -1 69 37 153 50 111 130 298 127 297 -1 0 -42 -23
-92 -50z m-208 -605 c-3 -3 -12 -4 -19 -1 -8 3 -5 6 6 6 11 1 17 -2 13 -5z"/>
<path d="M1558 1533 c-10 -3 -15 -10 -11 -19 6 -17 33 -19 33 -1 0 8 4 7 10
-3 8 -13 10 -13 10 1 0 19 -17 27 -42 22z"/>
<path d="M790 1270 c0 -10 -7 -23 -16 -28 -11 -6 12 -9 65 -9 44 0 78 4 75 9
-3 4 2 8 11 8 12 0 15 5 11 16 -3 9 -6 18 -6 20 0 10 -39 3 -43 -8 -4 -10 -6
-10 -6 0 -1 19 -21 14 -21 -5 -1 -17 -1 -17 -11 0 -5 9 -14 17 -19 17 -5 0
-11 -8 -13 -17 -4 -17 -5 -17 -6 0 -1 24 -21 22 -21 -3z"/>
<path d="M873 1213 c9 -2 25 -2 35 0 9 3 1 5 -18 5 -19 0 -27 -2 -17 -5z"/>
<path d="M892 1070 c0 -14 2 -19 5 -12 2 6 2 18 0 25 -3 6 -5 1 -5 -13z"/>
<path d="M1148 862 c-48 -2 -61 -7 -78 -29 -21 -26 -26 -59 -12 -80 8 -13 28
-17 80 -15 29 2 32 5 32 32 0 32 -26 43 -36 15 -8 -19 -33 -19 -40 0 -10 24
15 45 52 45 34 0 34 0 34 -46 l0 -46 31 6 c17 3 56 6 86 6 45 0 54 3 49 15 -7
20 8 19 25 -1 11 -13 26 -15 81 -11 40 3 68 2 68 -4 0 -5 9 -9 20 -9 26 0 26
2 -11 53 -30 42 -52 54 -99 56 -23 0 -24 -1 -7 -13 9 -7 17 -23 17 -35 0 -16
-6 -21 -25 -21 -14 0 -25 5 -25 10 0 6 5 10 10 10 6 0 10 6 10 14 0 23 -41 46
-81 46 l-37 0 5 -43 5 -43 -41 4 c-43 4 -58 22 -18 22 17 0 19 2 7 9 -8 6 -18
7 -22 5 -4 -3 -8 0 -8 5 0 6 14 11 30 11 19 0 30 5 30 14 0 16 -47 22 -132 18z
m227 -42 c3 -5 -3 -10 -14 -10 -12 0 -21 5 -21 10 0 6 6 10 14 10 8 0 18 -4
21 -10z m123 -28 c2 -7 -3 -12 -12 -12 -9 0 -16 7 -16 16 0 17 22 14 28 -4z"/>
<path d="M944 843 c-6 -5 -18 -39 -26 -76 -15 -67 -15 -68 5 -65 13 2 23 13
27 27 5 21 7 22 19 7 7 -9 26 -16 42 -16 22 0 29 5 29 20 0 14 -7 20 -22 20
l-21 0 22 24 c34 36 25 60 -24 64 -22 1 -45 -1 -51 -5z m64 -35 c-3 -7 -14
-14 -26 -16 -16 -3 -20 1 -16 12 7 19 48 22 42 4z"/>
<path d="M885 835 c-5 -2 -22 -6 -37 -9 -22 -5 -30 -16 -44 -61 -11 -33 -21
-50 -25 -43 -4 6 -1 24 7 39 22 43 18 52 -18 45 -83 -16 -106 -27 -112 -49 -3
-12 -2 -23 3 -25 5 -2 0 -25 -10 -53 -11 -27 -19 -53 -19 -58 0 -17 105 30
129 57 24 26 24 26 18 4 -4 -17 -2 -22 8 -18 8 3 33 10 57 16 41 11 57 24 58
44 0 4 -16 5 -35 2 -40 -8 -49 8 -10 18 14 4 25 11 25 17 0 7 -9 9 -21 6 -12
-3 -19 -1 -16 6 2 6 17 15 34 19 18 5 33 16 36 28 5 19 -3 23 -28 15z m-135
-75 c0 -5 -9 -14 -20 -20 -16 -8 -20 -8 -20 4 0 8 8 17 18 19 9 3 18 5 20 6 1
0 2 -3 2 -9z m-20 -70 c0 -10 -39 -34 -46 -27 -3 2 -2 12 2 21 7 17 44 23 44
6z"/>
<path d="M1540 826 c0 -2 9 -25 20 -50 17 -42 50 -64 50 -34 0 6 8 4 19 -6 11
-10 28 -16 38 -14 14 3 11 8 -16 22 -27 14 -32 22 -28 43 4 22 2 24 -19 20
-13 -2 -29 2 -35 9 -11 13 -29 19 -29 10z"/>
<path d="M1180 723 c-62 -8 -79 -44 -39 -82 25 -23 19 -27 -46 -36 l-50 -8 23
25 c12 13 22 37 22 53 l0 28 -66 -6 c-37 -4 -68 -8 -70 -10 -7 -7 -37 -158
-32 -163 3 -3 17 -2 32 2 19 4 26 13 26 30 0 28 7 30 32 8 16 -16 24 -16 105
1 49 9 94 22 101 27 18 16 15 46 -8 60 -11 7 -20 16 -20 19 0 8 70 22 76 16 2
-2 -3 -23 -11 -47 -19 -54 -20 -50 15 -50 20 0 30 5 30 15 0 18 50 21 67 4 6
-6 22 -9 37 -7 l26 3 -38 62 -37 63 -70 -2 c-38 -1 -86 -3 -105 -5z m154 -71
c-22 -5 -27 3 -19 29 l7 22 14 -24 c11 -20 10 -25 -2 -27z m-286 -4 c-3 -7
-17 -14 -31 -16 -21 -3 -26 0 -21 12 7 19 58 22 52 4z"/>
<path d="M1414 713 c6 -22 12 -50 20 -84 5 -22 10 -25 31 -21 21 4 24 9 19 26
-6 20 -5 20 20 -3 l26 -24 8 24 c9 23 9 23 16 2 6 -19 44 -38 55 -28 2 3 -1
16 -7 30 -17 36 -15 56 3 49 10 -4 15 -20 15 -45 0 -37 2 -39 30 -39 17 0 30
5 30 10 0 15 36 12 49 -4 6 -8 25 -16 41 -18 29 -4 29 -4 -23 51 -59 63 -66
67 -160 79 -66 8 -68 8 -73 -15 l-7 -24 -26 25 c-32 31 -75 36 -67 9z m281
-53 c18 -19 17 -20 -3 -20 -15 0 -22 6 -22 20 0 11 2 20 3 20 2 0 12 -9 22
-20z"/>
<path d="M855 662 l-60 -17 -27 -85 c-16 -47 -27 -88 -25 -91 1 -3 38 6 82 20
66 22 81 30 83 49 3 20 1 22 -25 16 -15 -4 -38 -11 -50 -15 -38 -14 -26 9 12
25 40 17 48 40 10 30 -14 -3 -25 -2 -25 4 0 5 20 15 44 21 35 8 45 16 48 36 3
14 2 25 -1 24 -3 0 -33 -8 -66 -17z"/>
<path d="M662 603 c-57 -19 -76 -31 -87 -53 -19 -36 -19 -41 0 -33 13 4 12 -4
-5 -47 -12 -29 -26 -62 -32 -73 -8 -16 -7 -19 3 -15 168 67 204 92 196 136 -3
16 0 33 9 43 20 22 22 63 4 65 -8 2 -48 -9 -88 -23z m38 -43 c0 -12 -38 -32
-52 -28 -14 5 19 38 38 38 8 0 14 -4 14 -10z m-20 -69 c0 -12 -40 -41 -57 -41
-19 0 -3 30 21 40 28 12 36 12 36 1z"/>
</g>
</svg>
