<?xml version="1.0" encoding="UTF-8"?>
<svg version="1.1" xmlns="http://www.w3.org/2000/svg" width="322" height="276">
<path d="M0 0 C1.25917236 0.0923291 2.51834473 0.1846582 3.81567383 0.27978516 C17.03882609 1.33464214 30.17890739 3.16863418 43.3125 5 C44.38497986 5.14653015 45.45745972 5.2930603 46.56243896 5.44403076 C49.67271905 5.87314364 52.77986861 6.32022211 55.88671875 6.7734375 C56.80665115 6.89960449 57.72658356 7.02577148 58.6743927 7.15576172 C74.84942198 9.59601052 74.84942198 9.59601052 79.19883728 14.3425293 C84.52715629 23.06102019 82.70437188 35.87574075 81.75 45.5625 C80.77698975 56.49027663 80.28360552 67.37296103 80.14306641 78.34350586 C79.6688713 99.89824058 75.06308808 121.27078007 71.30541992 142.43505859 C70.69230594 145.89816295 70.08965276 149.36296509 69.48828125 152.828125 C69.20710197 154.38614838 69.20710197 154.38614838 68.92024231 155.97564697 C66.61546274 166.52444571 66.61546274 166.52444571 68.82026672 176.55059814 C69.78926393 177.66642163 70.80100921 178.74576109 71.83984375 179.796875 C83.08236392 191.31000287 85.9375 204.98913692 85.9375 220.50927734 C85.76357797 230.76474774 82.44094082 236.22922179 75.625 243.77734375 C70.50319843 248.50900809 64.41754831 248.67531049 57.75 248.953125 C52.32451556 248.11536637 48.36636808 244.79962212 44.4375 241.1875 C43.59832031 240.42566406 42.75914062 239.66382813 41.89453125 238.87890625 C36.86114225 233.88017053 36.86114225 233.88017053 36.19140625 230.3203125 C36.17354982 218.57077927 39.75105496 208.64484259 45.625 198.625 C44.8093457 198.85687012 43.99369141 199.08874023 43.15332031 199.32763672 C40.06831777 200.20126962 36.98173545 201.06903203 33.89404297 201.93310547 C32.56885872 202.30518259 31.24428992 202.6794601 29.92041016 203.05615234 C18.79614411 206.21885118 7.9485573 209.23165228 -3.6875 208.4375 C-4.4091333 208.38996582 -5.1307666 208.34243164 -5.87426758 208.29345703 C-10.56610258 207.93037082 -14.97838432 207.09796148 -19.5625 206 C-29.4318858 203.78900123 -39.36646263 204.84181858 -49.375 205.625 C-49.49875 206.36363281 -49.6225 207.10226563 -49.75 207.86328125 C-51.42344005 216.09451448 -54.44531057 222.56498772 -60.375 228.625 C-64.22022756 230.73635623 -67.5932194 230.89513572 -71.9375 230.875 C-73.61005859 230.88273437 -73.61005859 230.88273437 -75.31640625 230.890625 C-78.26664942 230.63440976 -79.96248833 230.30974687 -82.375 228.625 C-83.125 226 -83.125 226 -83.375 223.625 C-84.54482422 224.11033203 -84.54482422 224.11033203 -85.73828125 224.60546875 C-90.41815008 225.91744057 -94.72768677 225.95500475 -99.5625 225.9375 C-100.91504883 225.96166992 -100.91504883 225.96166992 -102.29492188 225.98632812 C-103.16052734 225.98697266 -104.02613281 225.98761719 -104.91796875 225.98828125 C-106.0939563 225.99275269 -106.0939563 225.99275269 -107.29370117 225.99731445 C-109.9301405 225.52569334 -110.72234555 224.69718595 -112.375 222.625 C-114.22000342 219.51155672 -115.97221983 216.37302032 -117.6875 213.1875 C-122.60819343 205.7153359 -129.68682578 197.52105807 -138.375 194.625 C-138.34019531 195.41261719 -138.30539063 196.20023438 -138.26953125 197.01171875 C-137.96957261 209.08148301 -139.23042771 220.23024505 -147.375 229.625 C-152.94201145 235.42252952 -159.33799505 240.62010146 -167.625 241.1875 C-177.30101487 240.68701647 -186.60419826 235.31782706 -193.375 228.625 C-203.51173626 216.70988896 -204.63062 204.87934307 -204.21484375 189.76171875 C-204.15888256 186.68111798 -204.15888256 186.68111798 -205.4921875 184.42578125 C-205.78351563 183.83152344 -206.07484375 183.23726562 -206.375 182.625 C-205.44064091 180.82072037 -204.49490838 179.01740517 -203.4140625 177.296875 C-202.22094977 175.3771297 -201.45644152 173.90536245 -201.375 171.625 C-201.87 171.191875 -202.365 170.75875 -202.875 170.3125 C-203.37 169.755625 -203.865 169.19875 -204.375 168.625 C-204.08155292 166.28631568 -203.7395072 163.95366701 -203.375 161.625 C-203.29554195 160.28492844 -203.23746178 158.94344284 -203.19921875 157.6015625 C-202.82086136 145.00746035 -200.95424301 133.20456503 -196.4375 121.375 C-194.96382321 117.70217089 -194.96382321 117.70217089 -196.6875 114.6875 C-197.244375 114.006875 -197.80125 113.32625 -198.375 112.625 C-198.375 111.965 -198.375 111.305 -198.375 110.625 C-199.4475 110.5425 -200.52 110.46 -201.625 110.375 C-205.68220568 109.56355886 -206.86959594 108.80493592 -209.375 105.625 C-210.61214895 103.1507021 -210.33081362 101.91000667 -210 99.1875 C-209.90976563 98.40503906 -209.81953125 97.62257813 -209.7265625 96.81640625 C-209.375 94.625 -209.375 94.625 -208.375 91.625 C-207.488125 91.3775 -206.60125 91.13 -205.6875 90.875 C-202.11992261 89.85707571 -202.11992261 89.85707571 -199.9375 86.5 C-197.05059153 82.89229687 -193.66485923 80.84223794 -189.625 78.7265625 C-188.96399796 78.37847534 -188.30299591 78.03038818 -187.6219635 77.67175293 C-180.59032388 74.07269956 -173.3230346 71.52085896 -165.8125 69.125 C-164.37938794 68.65895582 -162.94628261 68.19289094 -161.51318359 67.72680664 C-122.56018747 55.17252166 -122.56018747 55.17252166 -102.8671875 53.9765625 C-99.7602612 53.66378468 -97.96983634 53.27870399 -95.375 51.625 C-95.849375 50.965 -96.32375 50.305 -96.8125 49.625 C-99.10303933 45.22716449 -99.26230374 40.82418696 -99.51171875 35.95703125 C-99.56972656 35.06371094 -99.62773438 34.17039063 -99.6875 33.25 C-99.74357422 32.00089844 -99.74357422 32.00089844 -99.80078125 30.7265625 C-99.99027344 30.03304687 -100.17976563 29.33953125 -100.375 28.625 C-101.68694559 27.91717165 -103.02141759 27.24952933 -104.375 26.625 C-105.85184793 21.67321578 -105.77648275 18.65536783 -103.5 14 C-100.39304701 9.11036907 -96.87362845 5.63629772 -91.375 3.625 C-78.33715872 2.43674105 -64.08203018 8.39213331 -54.046875 16.5078125 C-48.09155261 22.13228365 -43.59952129 28.83695298 -43.20703125 37.20703125 C-43.19509232 38.61715199 -43.18877849 40.0273293 -43.1875 41.4375 C-43.17525391 42.13681641 -43.16300781 42.83613281 -43.15039062 43.55664062 C-43.13789557 48.00904508 -43.90283726 51.45782968 -45.375 55.625 C-45.39379579 59.08969053 -44.63720878 62.46009894 -43.87695312 65.83764648 C-43.20080654 69.59229898 -42.93325516 73.35997342 -42.65625 77.16015625 C-42.56204773 78.41015663 -42.56204773 78.41015663 -42.46594238 79.68540955 C-42.33337313 81.4546302 -42.20234678 83.22396705 -42.07275391 84.9934082 C-41.87945611 87.62679233 -41.68038476 90.2596892 -41.48046875 92.89257812 C-40.58923858 104.79728565 -39.93240041 116.69984692 -39.375 128.625 C-33.435 129.285 -27.495 129.945 -21.375 130.625 C-21.33741577 128.43157959 -21.33741577 128.43157959 -21.29907227 126.19384766 C-21.20441348 120.73315697 -21.10433896 115.2725763 -21.00268555 109.81201172 C-20.95955664 107.45526719 -20.91786754 105.09849583 -20.87768555 102.74169922 C-20.81944499 99.3407383 -20.75590966 95.93990972 -20.69140625 92.5390625 C-20.67469376 91.49698639 -20.65798126 90.45491028 -20.64076233 89.3812561 C-20.52965958 83.80928931 -20.20198982 78.33188872 -19.59538269 72.79223633 C-19.32579762 70.14114542 -19.24564001 67.51957166 -19.2421875 64.85546875 C-19.24025391 63.87126953 -19.23832031 62.88707031 -19.23632812 61.87304688 C-19.2430957 60.35807617 -19.2430957 60.35807617 -19.25 58.8125 C-19.25193359 57.75224609 -19.25386719 56.69199219 -19.25585938 55.59960938 C-19.29090955 49.25552792 -19.56182838 42.99830579 -20.1484375 36.6796875 C-20.99036007 25.32824877 -20.28608499 13.94848489 -19.375 2.625 C-12.85973013 -1.01533704 -7.30850759 -0.57925693 0 0 Z " fill="#1E3C70" transform="translate(221.375,14.375)"/>
<path d="M0 0 C1.25917236 0.0923291 2.51834473 0.1846582 3.81567383 0.27978516 C17.03882609 1.33464214 30.17890739 3.16863418 43.3125 5 C44.38497986 5.14653015 45.45745972 5.2930603 46.56243896 5.44403076 C49.67271905 5.87314364 52.77986861 6.32022211 55.88671875 6.7734375 C56.80665115 6.89960449 57.72658356 7.02577148 58.6743927 7.15576172 C74.84942198 9.59601052 74.84942198 9.59601052 79.19883728 14.3425293 C84.52715629 23.06102019 82.70437188 35.87574075 81.75 45.5625 C80.77698975 56.49027663 80.28360552 67.37296103 80.14306641 78.34350586 C79.6688713 99.89824058 75.06308808 121.27078007 71.30541992 142.43505859 C70.69230594 145.89816295 70.08965276 149.36296509 69.48828125 152.828125 C69.20710197 154.38614838 69.20710197 154.38614838 68.92024231 155.97564697 C66.61546274 166.52444571 66.61546274 166.52444571 68.82026672 176.55059814 C69.78926393 177.66642163 70.80100921 178.74576109 71.83984375 179.796875 C83.08236392 191.31000287 85.9375 204.98913692 85.9375 220.50927734 C85.76357797 230.76474774 82.44094082 236.22922179 75.625 243.77734375 C70.50319843 248.50900809 64.41754831 248.67531049 57.75 248.953125 C52.32451556 248.11536637 48.36636808 244.79962212 44.4375 241.1875 C43.59832031 240.42566406 42.75914062 239.66382813 41.89453125 238.87890625 C36.86114225 233.88017053 36.86114225 233.88017053 36.19140625 230.3203125 C36.17354982 218.57077927 39.75105496 208.64484259 45.625 198.625 C44.40151855 198.97280518 44.40151855 198.97280518 43.15332031 199.32763672 C40.06831777 200.20126962 36.98173545 201.06903203 33.89404297 201.93310547 C32.56885872 202.30518259 31.24428992 202.6794601 29.92041016 203.05615234 C11.11333641 208.40312176 -4.36237232 209.80820686 -23.32226562 205.07666016 C-32.55221199 202.90148817 -41.93111176 202.81126999 -51.375 202.625 C-51.71511625 199.45902429 -52.04583187 196.2921312 -52.375 193.125 C-52.47039062 192.238125 -52.56578125 191.35125 -52.6640625 190.4375 C-53.21014946 185.13265526 -53.4746753 179.95762848 -53.375 174.625 C-52.59374756 174.56965088 -51.81249512 174.51430176 -51.00756836 174.45727539 C-47.44235808 174.20324061 -43.87743237 173.94540429 -40.3125 173.6875 C-39.08337891 173.60048828 -37.85425781 173.51347656 -36.58789062 173.42382812 C-29.71451252 172.94032897 -29.71451252 172.94032897 -22.8828125 172.078125 C-18.32114156 171.48886684 -13.80421857 171.46501393 -9.20825195 171.38452148 C2.52680361 171.16757335 13.84888812 170.55470036 25.35766602 167.99682617 C33.31424955 166.25874141 41.31457089 165.77040774 49.3125 167.625 C50.14136719 167.810625 50.97023438 167.99625 51.82421875 168.1875 C52.41847656 168.331875 53.01273437 168.47625 53.625 168.625 C48.73708334 166.06369085 43.94222718 166.28221661 38.5625 166.3125 C37.09647339 166.31552124 37.09647339 166.31552124 35.60083008 166.31860352 C28.37616329 166.41605278 21.49090631 167.24841401 14.38525391 168.48486328 C6.50572223 169.79528216 -1.31834462 170.05338707 -9.29248047 170.27880859 C-15.36180959 170.46352323 -21.29800126 170.85862913 -27.3125 171.6875 C-36.01725561 172.84641717 -44.60731288 172.80958289 -53.375 172.625 C-53.375 172.295 -53.375 171.965 -53.375 171.625 C-52.37597656 171.49222656 -51.37695312 171.35945312 -50.34765625 171.22265625 C-48.41212891 170.95775391 -48.41212891 170.95775391 -46.4375 170.6875 C-45.14972656 170.51347656 -43.86195313 170.33945313 -42.53515625 170.16015625 C-39.52033687 169.96337577 -39.52033687 169.96337577 -38.375 168.625 C-38.47040131 166.37229808 -38.62973751 164.12230177 -38.8125 161.875 C-39.5614433 151.79532493 -39.47076673 141.72617995 -39.375 131.625 C-38.385 131.625 -37.395 131.625 -36.375 131.625 C-36.375 130.965 -36.375 130.305 -36.375 129.625 C-31.425 129.955 -26.475 130.285 -21.375 130.625 C-21.33741577 128.43157959 -21.33741577 128.43157959 -21.29907227 126.19384766 C-21.20441348 120.73315697 -21.10433896 115.2725763 -21.00268555 109.81201172 C-20.95955664 107.45526719 -20.91786754 105.09849583 -20.87768555 102.74169922 C-20.81944499 99.3407383 -20.75590966 95.93990972 -20.69140625 92.5390625 C-20.67469376 91.49698639 -20.65798126 90.45491028 -20.64076233 89.3812561 C-20.52965958 83.80928931 -20.20198982 78.33188872 -19.59538269 72.79223633 C-19.32579762 70.14114542 -19.24564001 67.51957166 -19.2421875 64.85546875 C-19.24025391 63.87126953 -19.23832031 62.88707031 -19.23632812 61.87304688 C-19.24083984 60.86306641 -19.24535156 59.85308594 -19.25 58.8125 C-19.25193359 57.75224609 -19.25386719 56.69199219 -19.25585938 55.59960938 C-19.29090955 49.25552792 -19.56182838 42.99830579 -20.1484375 36.6796875 C-20.99036007 25.32824877 -20.28608499 13.94848489 -19.375 2.625 C-12.85973013 -1.01533704 -7.30850759 -0.57925693 0 0 Z " fill="#1D3C70" transform="translate(221.375,14.375)"/>
<path d="M0 0 C0.8531781 0.00188828 1.7063562 0.00377655 2.58538818 0.00572205 C4.03259247 0.00681725 4.03259247 0.00681725 5.5090332 0.00793457 C9.93588582 0.04252797 14.3624216 0.08422282 18.78900146 0.1448822 C21.12450392 0.17165432 23.4601822 0.18605505 25.7958374 0.18785095 C29.15859601 0.19094566 32.51893932 0.23268073 35.88128662 0.28282166 C36.92415833 0.27686478 37.96703003 0.2709079 39.04150391 0.26477051 C46.07452089 0.42879501 46.07452089 0.42879501 48.77261353 2.34178162 C51.2593543 5.19337657 52.95893848 8.54602125 54.40472412 12.02110291 C54.78113037 12.91313416 55.15753662 13.80516541 55.54534912 14.72422791 C55.91917725 15.63946228 56.29300537 16.55469666 56.67816162 17.49766541 C57.05972412 18.40516541 57.44128662 19.31266541 57.83441162 20.24766541 C59.55027655 24.3539077 61.17951206 28.45758572 62.63909912 32.66172791 C63.76198676 36.33330961 63.76198676 36.33330961 67.05316162 38.12266541 C67.42441162 39.01985291 67.42441162 39.01985291 67.80316162 39.93516541 C70.31836092 44.33676418 74.68337829 46.59582566 79.30316162 48.37266541 C83.35302028 49.18263714 87.28339429 49.49822015 91.40472412 49.68125916 C94.05316162 50.12266541 94.05316162 50.12266541 96.18206787 51.61485291 C100.70165542 53.98840501 105.33315995 53.69747343 110.36566162 53.81016541 C111.3923999 53.84432556 112.41913818 53.87848572 113.47698975 53.91368103 C116.00200303 53.99589077 118.52756403 54.06096167 121.05316162 54.12266541 C121.38316162 57.42266541 121.71316162 60.72266541 122.05316162 64.12266541 C122.71316162 64.12266541 123.37316162 64.12266541 124.05316162 64.12266541 C124.38316162 62.80266541 124.71316162 61.48266541 125.05316162 60.12266541 C125.85392441 83.2261549 125.85392441 83.2261549 120.38128662 91.71641541 C113.41114839 98.92045089 103.80626793 102.52684369 93.93011475 102.9183197 C93.04259521 102.92387878 92.15507568 102.92943787 91.24066162 102.93516541 C90.37505615 102.94652527 89.50945068 102.95788513 88.61761475 102.96958923 C86.30500473 102.89680355 84.28117908 102.74558048 82.05316162 102.12266541 C80.23675537 99.96641541 80.23675537 99.96641541 79.05316162 97.12266541 C73.82587663 88.924855 68.76880103 82.15175369 61.05316162 76.12266541 C60.25265381 75.49618103 59.452146 74.86969666 58.62738037 74.22422791 C57.12568777 73.0592487 55.61627316 71.90408973 54.09613037 70.76329041 C52.05316162 69.12266541 52.05316162 69.12266541 50.06488037 67.06407166 C39.03835473 56.42293914 16.22257146 52.51557125 1.48699951 51.74107361 C-3.01761939 51.48349255 -6.40083632 51.2315857 -9.94683838 48.12266541 C-10.47027588 46.07188416 -10.47027588 46.07188416 -10.32183838 43.81016541 C-10.28832275 43.07153259 -10.25480713 42.33289978 -10.22027588 41.57188416 C-10.02411221 39.81481812 -9.75486455 38.06533264 -9.43902588 36.32579041 C-8.97409889 33.3000751 -8.83072455 30.36694744 -8.75738525 27.31016541 C-8.58653363 21.31382454 -7.69604293 0.48490837 0 0 Z " fill="#DF283E" transform="translate(30.94683837890625,134.87733459472656)"/>
<path d="M0 0 C2.38983597 2.13878249 2.63016303 3.59501802 2.93359375 6.73046875 C3.59359375 6.07046875 4.25359375 5.41046875 4.93359375 4.73046875 C6.93359375 6.54296875 6.93359375 6.54296875 8.93359375 8.73046875 C8.93359375 9.72046875 8.93359375 10.71046875 8.93359375 11.73046875 C8.26972656 11.69566406 7.60585938 11.66085938 6.921875 11.625 C-0.10378481 11.34507491 -0.10378481 11.34507491 -6.06640625 14.73046875 C-6.87078125 15.72046875 -7.67515625 16.71046875 -8.50390625 17.73046875 C-13.16105803 23.18274401 -18.89268396 24.33348826 -25.62890625 25.66796875 C-32.38240308 27.08041516 -38.89786157 28.76883475 -45.46484375 30.8984375 C-57.4011593 34.71590779 -72.11853028 33.40510823 -83.94140625 29.54296875 C-87.03487367 28.52304567 -87.03487367 28.52304567 -90.140625 29.17578125 C-94.80159424 29.83434606 -99.30609665 29.83941097 -104.00390625 29.79296875 C-104.87853516 29.78845703 -105.75316406 29.78394531 -106.65429688 29.77929688 C-108.79169672 29.76761709 -110.92906088 29.74968564 -113.06640625 29.73046875 C-113.4065225 26.56449304 -113.73723812 23.39759995 -114.06640625 20.23046875 C-114.16179687 19.34359375 -114.2571875 18.45671875 -114.35546875 17.54296875 C-114.90155571 12.23812401 -115.16608155 7.06309723 -115.06640625 1.73046875 C-114.28515381 1.67511963 -113.50390137 1.61977051 -112.69897461 1.56274414 C-109.13376433 1.30870936 -105.56883862 1.05087304 -102.00390625 0.79296875 C-100.16022461 0.66245117 -100.16022461 0.66245117 -98.27929688 0.52929688 C-91.40591877 0.04579772 -91.40591877 0.04579772 -84.57421875 -0.81640625 C-80.01254781 -1.40566441 -75.49562482 -1.42951732 -70.8996582 -1.51000977 C-59.16460264 -1.7269579 -47.84251813 -2.33983089 -36.33374023 -4.89770508 C-23.32213041 -7.7400407 -11.56210944 -6.72802936 0 0 Z " fill="#DE283E" transform="translate(283.06640625,187.26953125)"/>
<path d="M0 0 C14.35486445 -0.12405438 26.54780847 3.13773928 40 8 C40 8.99 40 9.98 40 11 C44.62 13.64 49.24 16.28 54 19 C54 19.66 54 20.32 54 21 C52.68 21 51.36 21 50 21 C50 21.66 50 22.32 50 23 C48.35 23 46.7 23 45 23 C45 23.66 45 24.32 45 25 C45.78375 24.938125 46.5675 24.87625 47.375 24.8125 C48.674375 24.9053125 48.674375 24.9053125 50 25 C52.48386059 28.72579089 52.3804212 30.58711402 52 35 C50.59539303 37.87305972 49.25489001 39.74510999 47 42 C45.68 42 44.36 42 43 42 C43 42.66 43 43.32 43 44 C39.72311897 45.95218444 37.22930273 46.27063566 33.4375 46.25 C32.01244141 46.25773437 32.01244141 46.25773437 30.55859375 46.265625 C28 46 28 46 25 44 C24.3125 41.375 24.3125 41.375 24 39 C23.67 39.99 23.34 40.98 23 42 C14.75286926 38.49175507 9.79783696 29.72348573 6 22 C7.34573246 26.95678124 9.60022479 30.5830965 12.75 34.5625 C13.16765625 35.11357422 13.5853125 35.66464844 14.015625 36.23242188 C17.42389936 40.61226225 21.08849185 45.09658272 26.54296875 46.7890625 C27.35378906 46.85867187 28.16460937 46.92828125 29 47 C30.29357422 47.13535156 30.29357422 47.13535156 31.61328125 47.2734375 C37.70624347 47.50269512 41.41266896 46.85837542 46.34375 43.19140625 C48 42 48 42 51 41 C50.57953276 49.19911126 45.23153761 55.10775923 39.4375 60.4375 C34.37763516 64.90208662 29.66670746 66.64851632 22.953125 66.5078125 C13.90514695 64.95194326 4.44228503 59.39055866 -1 52 C-7.32074315 42.68413347 -8.26893762 31.32299449 -8.375 20.375 C-8.38885742 19.4974707 -8.40271484 18.61994141 -8.41699219 17.71582031 C-8.41086914 16.88920898 -8.40474609 16.06259766 -8.3984375 15.2109375 C-8.39505371 14.47149902 -8.39166992 13.73206055 -8.38818359 12.97021484 C-8 11 -8 11 -6.47509766 9.48681641 C-4.53046426 7.87580173 -4.53046426 7.87580173 -5 4 C-3.35 3.34 -1.7 2.68 0 2 C0 1.34 0 0.68 0 0 Z " fill="#DC283F" transform="translate(28,186)"/>
<path d="M0 0 C12.88657014 0.67918123 12.88657014 0.67918123 17.6875 2.0625 C20.80518579 2.9448639 22.75462179 3.04108479 25.9375 2.9375 C39.76558778 2.76794579 51.4312679 6.82429378 63.6484375 12.84228516 C65.23873549 13.62521633 66.83535264 14.39542033 68.4375 15.15380859 C79.98391484 20.6278506 89.1514228 26.75426943 98 36 C97.505 36.99 97.505 36.99 97 38 C96.46995361 37.78778809 95.93990723 37.57557617 95.39379883 37.35693359 C89.36722296 35.12370554 84.08477231 34.52787135 77.6875 34.625 C76.2485437 34.63478882 76.2485437 34.63478882 74.78051758 34.64477539 C67.63594452 34.77583073 60.78805455 35.63774544 53.75927734 36.85961914 C45.88029337 38.17123551 38.05624178 38.42839876 30.08251953 38.65380859 C24.01319041 38.83852323 18.07699874 39.23362913 12.0625 40.0625 C3.35774439 41.22141717 -5.23231288 41.18458289 -14 41 C-14 40.67 -14 40.34 -14 40 C-12.50146484 39.80083984 -12.50146484 39.80083984 -10.97265625 39.59765625 C-9.68230469 39.42105469 -8.39195312 39.24445313 -7.0625 39.0625 C-5.77472656 38.88847656 -4.48695313 38.71445313 -3.16015625 38.53515625 C-0.14533687 38.33837577 -0.14533687 38.33837577 1 37 C0.90459869 34.74729808 0.74526249 32.49730177 0.5625 30.25 C-0.1864433 20.17032493 -0.09576673 10.10117995 0 0 Z " fill="#DE283E" transform="translate(182,146)"/>
<path d="M0 0 C9.15997264 0.10589564 9.15997264 0.10589564 13.00390625 2.8515625 C13.64328125 3.7796875 14.28265625 4.7078125 14.94140625 5.6640625 C15.60527344 6.40140625 16.26914062 7.13875 16.953125 7.8984375 C22.47490878 15.57903262 22.86810749 28.51288779 21.94140625 37.6640625 C20.42504575 46.34522637 16.68776957 52.60580673 9.87890625 58.1640625 C4.52667861 60.76337835 -1.31396777 60.75954932 -7.05859375 59.6640625 C-13.32217467 56.61096024 -19.03986511 51.99771853 -22.38671875 45.7890625 C-23.70615538 41.61596061 -22.99701791 37.85824397 -22.05859375 33.6640625 C-21.78982422 32.44009766 -21.78982422 32.44009766 -21.515625 31.19140625 C-19.75078801 24.44224178 -16.6321763 18.62003342 -13.05859375 12.6640625 C-12.50171875 11.6534375 -11.94484375 10.6428125 -11.37109375 9.6015625 C-7.55866978 6.40736944 -2.89308742 6.22252987 1.94140625 5.6640625 C1.94140625 5.0040625 1.94140625 4.3440625 1.94140625 3.6640625 C-1.02859375 4.3240625 -3.99859375 4.9840625 -7.05859375 5.6640625 C-4.92842343 2.38287105 -3.90436368 0.84769071 0 0 Z " fill="#DA283F" transform="translate(283.05859375,200.3359375)"/>
<path d="M0 0 C3.21558104 2.62323716 3.92064813 4.96716369 4.375 8.9375 C5.07563623 15.92466677 5.13636565 21.45313028 0.8671875 27.25390625 C-2.62187429 31.19051785 -6.38314774 34.71846459 -11.625 35.9375 C-19.22864455 35.9223533 -27.61475842 34.32060792 -33.625 29.5625 C-37.84873182 24.01885199 -38.185678 18.79754435 -38.0625 11.9765625 C-37.62343633 8.92663804 -37.38581932 7.81529103 -35.125 5.8125 C-31.33529699 3.78230196 -27.73100417 2.18647465 -23.625 0.9375 C-22.3875 0.545625 -21.15 0.15375 -19.875 -0.25 C-13.30840031 -1.78134143 -6.46980901 -1.89632333 0 0 Z " fill="#F8F6F4" transform="translate(164.625,34.0625)"/>
<path d="M0 0 C1.134375 0.020625 2.26875 0.04125 3.4375 0.0625 C3.9325 1.5475 3.9325 1.5475 4.4375 3.0625 C3.49390625 3.62517578 3.49390625 3.62517578 2.53125 4.19921875 C1.6753125 4.71097656 0.819375 5.22273438 -0.0625 5.75 C-0.98675781 6.29914063 -1.91101563 6.84828125 -2.86328125 7.4140625 C-4.42726218 8.36919991 -5.97672453 9.35102299 -7.48046875 10.3984375 C-17.71119515 17.48993439 -31.10119663 19.84638526 -43.08584595 22.51708984 C-54.4353175 25.04961523 -65.67646801 27.71748804 -76.73901367 31.33569336 C-83.83750844 33.62628251 -83.83750844 33.62628251 -87.5625 33.0625 C-90.4375 30.3125 -90.4375 30.3125 -92.5625 27.0625 C-92.58203125 25.01171875 -92.58203125 25.01171875 -91.5625 23.0625 C-88.89453125 21.75390625 -88.89453125 21.75390625 -85.375 20.625 C-84.07529039 20.19731425 -82.7758167 19.768911 -81.4765625 19.33984375 C-80.8155957 19.1269873 -80.15462891 18.91413086 -79.47363281 18.69482422 C-76.70041201 17.77726649 -73.98174191 16.72122368 -71.25 15.6875 C-50.91092467 8.43498383 -29.20604333 1.98435252 -7.52734375 1.23828125 C-3.84838304 1.02016105 -3.90359203 0.06848407 0 0 Z " fill="#F7F5F6" transform="translate(128.5625,69.9375)"/>
<path d="M0 0 C3.77574419 1.18588037 7.29817369 2.83634554 10.83789062 4.59326172 C11.51722656 4.9290625 12.1965625 5.26486328 12.89648438 5.61083984 C17.84766155 8.2069439 20.32616672 10.37059001 22.08789062 15.65576172 C22.21570849 18.32971136 22.13180934 20.97672029 22.08789062 23.65576172 C19.02709393 25.18616006 15.76695678 25.03946358 12.40039062 25.21826172 C11.64016602 25.25927002 10.87994141 25.30027832 10.09667969 25.3425293 C-19.32264121 26.81961162 -19.32264121 26.81961162 -28.22460938 21.78076172 C-30.85635299 16.90716243 -30.3011412 12.07627179 -29.91210938 6.65576172 C-28.92210938 6.65576172 -27.93210937 6.65576172 -26.91210938 6.65576172 C-26.81929687 5.54201172 -26.81929687 5.54201172 -26.72460938 4.40576172 C-23.40996572 -6.81303218 -8.29822461 -2.16675865 0 0 Z " fill="#DB2A3F" transform="translate(56.912109375,109.34423828125)"/>
<path d="M0 0 C0.33 0.99 0.66 1.98 1 3 C2.9490625 3.1546875 2.9490625 3.1546875 4.9375 3.3125 C13.65741903 4.33436551 19.53128781 7.13699095 26.5625 12.35546875 C29.88561495 14.59750624 33.22611199 15.69629323 37 17 C38.53214888 20.06429776 38.22938548 22.6165642 38 26 C36.59539303 28.87305972 35.25489001 30.74510999 33 33 C31.68 33 30.36 33 29 33 C29 33.66 29 34.32 29 35 C25.72311897 36.95218444 23.22930273 37.27063566 19.4375 37.25 C18.01244141 37.25773437 18.01244141 37.25773437 16.55859375 37.265625 C14 37 14 37 11 35 C10.3125 32.375 10.3125 32.375 10 30 C9.67 30.99 9.34 31.98 9 33 C0.46588678 29.35066874 -4.67180559 20.27049169 -8 12 C-9.24992804 7.94554592 -9.07029209 4.2175254 -9 0 C-5.93109813 -1.53445094 -3.29905734 -0.54984289 0 0 Z " fill="#415986" transform="translate(42,195)"/>
<path d="M0 0 C2.31 0 4.62 0 7 0 C6.85860519 2.25028329 6.71171997 4.50022206 6.5625 6.75 C6.48128906 8.00296875 6.40007812 9.2559375 6.31640625 10.546875 C6.07484478 13.18317553 5.75716066 15.48037294 5 18 C6.32 18 7.64 18 9 18 C9.33 12.39 9.66 6.78 10 1 C11.65 1 13.3 1 15 1 C18.18464019 6.93169624 20.65343025 12.3895667 22 19 C22.66 19 23.32 19 24 19 C24 13.39 24 7.78 24 2 C25.98 2 27.96 2 30 2 C30 6.62 30 11.24 30 16 C30.99 16 31.98 16 33 16 C33.495 9.565 33.495 9.565 34 3 C39.28 3 44.56 3 50 3 C50 4.98 50 6.96 50 9 C46.04 9 42.08 9 38 9 C38 11.64 38 14.28 38 17 C42.95 17 47.9 17 53 17 C53 18.32 53 19.64 53 21 C45.08 21 37.16 21 29 21 C29 23.97 29 26.94 29 30 C28.67 31.32 28.34 32.64 28 34 C25.6640625 33.84375 25.6640625 33.84375 23 33 C21.5234375 30.53125 21.5234375 30.53125 20.375 27.5 C19.28496808 24.52679801 19.28496808 24.52679801 18 22 C17.01 21.67 16.02 21.34 15 21 C15.33 18.69 15.66 16.38 16 14 C15.34 14 14.68 14 14 14 C14 20.27 14 26.54 14 33 C12.02 33 10.04 33 8 33 C8 29.7 8 26.4 8 23 C3.31361202 24.83779921 -0.1395416 26.69103566 -4 30 C-6.64458379 31.32229189 -8.67761301 31.09677194 -11.625 31.0625 C-12.62789062 31.05347656 -13.63078125 31.04445313 -14.6640625 31.03515625 C-15.43492187 31.02355469 -16.20578125 31.01195313 -17 31 C-17 30.34 -17 29.68 -17 29 C-18.65 29.33 -20.3 29.66 -22 30 C-21.01 28.515 -21.01 28.515 -20 27 C-19.01 27 -18.02 27 -17 27 C-17 26.34 -17 25.68 -17 25 C-16.32453125 24.82984375 -15.6490625 24.6596875 -14.953125 24.484375 C-14.06109375 24.24203125 -13.1690625 23.9996875 -12.25 23.75 C-11.36828125 23.51796875 -10.4865625 23.2859375 -9.578125 23.046875 C-6.39482015 21.7542603 -5.02326266 20.80417106 -3 18 C-2.10524243 14.95486637 -1.66727414 11.89182878 -1.25 8.75 C-1.06244141 7.48929687 -1.06244141 7.48929687 -0.87109375 6.203125 C-0.56595137 4.13754579 -0.28097599 2.06900503 0 0 Z " fill="#F1F3F6" transform="translate(233,57)"/>
<path d="M0 0 C0.66 0 1.32 0 2 0 C2.33 2.31 2.66 4.62 3 7 C7.95 8.98 7.95 8.98 13 11 C9 13 9 13 6.3125 14 C3.84572401 14.77234179 3.84572401 14.77234179 3 17 C3.66 17.33 4.32 17.66 5 18 C4.26982666 18.61222412 4.26982666 18.61222412 3.52490234 19.23681641 C1.65378669 21.40031261 1.61448089 22.38796129 1.6015625 25.2109375 C1.59535889 26.03746826 1.58915527 26.86399902 1.58276367 27.71557617 C1.59670166 28.59318604 1.61063965 29.4707959 1.625 30.375 C1.63442627 31.27387939 1.64385254 32.17275879 1.65356445 33.09887695 C1.91487158 44.72027726 3.77101667 55.99062013 11.71484375 64.9296875 C17.88109207 70.80590778 25.55261567 75.16457906 34.1875 75.5625 C41.84577621 75.10203403 47.23129715 71.48224399 52.39453125 66 C55.98468698 61.52759189 58.80422976 56.63538527 60 51 C59.29875 51.598125 58.5975 52.19625 57.875 52.8125 C51.21759775 57.87791476 46.19537107 58.64605845 38 58 C30.70651506 56.90597726 27.14360989 53.12927352 22.83203125 47.46582031 C21.57427301 45.76268869 20.34331155 44.04405253 19.125 42.3125 C18.73135254 41.75393311 18.33770508 41.19536621 17.93212891 40.61987305 C16.02036076 37.81435119 14.5111809 35.38863468 14 32 C14.66 31.67 15.32 31.34 16 31 C16.38478516 31.90878906 16.38478516 31.90878906 16.77734375 32.8359375 C19.99325789 39.87413344 24.81647172 48.40823586 32 52 C32.33 47.71 32.66 43.42 33 39 C33.33 39 33.66 39 34 39 C34.04898438 40.07121094 34.09796875 41.14242187 34.1484375 42.24609375 C34.22345294 43.64325639 34.2990013 45.0403905 34.375 46.4375 C34.4059375 47.14455078 34.436875 47.85160156 34.46875 48.58007812 C34.57280629 50.39239188 34.77919892 52.19817988 35 54 C37.58120066 55.29060033 39.49419829 55.13272333 42.375 55.125 C43.33148438 55.12757813 44.28796875 55.13015625 45.2734375 55.1328125 C47.68140854 55.01551878 49.69990068 54.68675951 52 54 C52 53.34 52 52.68 52 52 C52.763125 51.773125 53.52625 51.54625 54.3125 51.3125 C57.68439721 49.6657595 58.54704383 48.44121198 60 45 C60.38076718 40.34043098 60.38076718 40.34043098 59 36 C56.47266765 35.34444881 56.47266765 35.34444881 54 35 C54 34.34 54 33.68 54 33 C55.65 33 57.3 33 59 33 C59 32.34 59 31.68 59 31 C60.32 31 61.64 31 63 31 C63 30.34 63 29.68 63 29 C62.195625 28.79375 61.39125 28.5875 60.5625 28.375 C55.83468901 26.55023085 49.36121624 23.72243248 47 19 C52.87797824 19.46405091 58.10304035 21.80000657 63 25 C64.33900245 26.66211552 65.67181984 28.32922383 67 30 C69.08123042 31.6677049 71.15536621 33.25311868 73.3125 34.8125 C82.58406583 41.74550198 88.82530962 49.65061924 94 60 C100.27 60.33 106.54 60.66 113 61 C113 61.99 113 62.98 113 64 C109.72933434 64.08706892 106.45896635 64.14041241 103.1875 64.1875 C102.25873047 64.21263672 101.32996094 64.23777344 100.37304688 64.26367188 C99.48037109 64.27333984 98.58769531 64.28300781 97.66796875 64.29296875 C96.84578857 64.3086792 96.0236084 64.32438965 95.17651367 64.34057617 C92.45153296 63.91417706 91.6869921 63.14171695 90 61 C88.15499658 57.88655672 86.40278017 54.74802032 84.6875 51.5625 C79.76680657 44.0903359 72.68817422 35.89605807 64 33 C64.05220703 34.18142578 64.05220703 34.18142578 64.10546875 35.38671875 C64.40542739 47.45648301 63.14457229 58.60524505 55 68 C49.43298855 73.79752952 43.03700495 78.99510146 34.75 79.5625 C25.07398513 79.06201647 15.77080174 73.69282706 9 67 C-1.13673626 55.08488896 -2.25562 43.25434307 -1.83984375 28.13671875 C-1.78388256 25.05611798 -1.78388256 25.05611798 -3.1171875 22.80078125 C-3.40851562 22.20652344 -3.69984375 21.61226562 -4 21 C-3.06564091 19.19572037 -2.11990838 17.39240517 -1.0390625 15.671875 C0.15405023 13.7521297 0.91855848 12.28036245 1 10 C0.505 9.54625 0.01 9.0925 -0.5 8.625 C-0.995 8.08875 -1.49 7.5525 -2 7 C-1.56521739 1.56521739 -1.56521739 1.56521739 0 0 Z " fill="#2A3D6F" transform="translate(19,176)"/>
<path d="M0 0 C3.22778809 1.15392095 4.45479 3.07966195 6.37109375 5.84765625 C5.19411398 9.02550163 4.01385797 10.1392773 1.30859375 12.34765625 C-1.71521216 14.51345285 -1.71521216 14.51345285 -2.50390625 17.16015625 C-2.54515625 17.71703125 -2.58640625 18.27390625 -2.62890625 18.84765625 C-3.61890625 18.84765625 -4.60890625 18.84765625 -5.62890625 18.84765625 C-5.56860658 20.76518578 -5.47973918 22.68183051 -5.37890625 24.59765625 C-5.3325 25.665 -5.28609375 26.73234375 -5.23828125 27.83203125 C-4.50103072 31.48047616 -3.60675799 32.65611971 -0.62890625 34.84765625 C7.65636324 37.59644675 16.98392921 36.97541715 25.60205078 36.87988281 C32.58561255 36.80627813 39.41929148 37.12539108 46.37109375 37.84765625 C46.04109375 38.83765625 45.71109375 39.82765625 45.37109375 40.84765625 C45.37109375 40.18765625 45.37109375 39.52765625 45.37109375 38.84765625 C29.20109375 38.84765625 13.03109375 38.84765625 -3.62890625 38.84765625 C-8.00204992 50.88748163 -8.00204992 50.88748163 -9.31640625 62.78515625 C-9.38657246 68.44702985 -10.10257308 73.40515352 -11.62890625 78.84765625 C-12.28890625 78.84765625 -12.94890625 78.84765625 -13.62890625 78.84765625 C-14.22943352 64.5851337 -12.79563443 52.02399558 -7.69140625 38.59765625 C-6.21772946 34.92482714 -6.21772946 34.92482714 -7.94140625 31.91015625 C-8.49828125 31.22953125 -9.05515625 30.54890625 -9.62890625 29.84765625 C-9.62890625 29.18765625 -9.62890625 28.52765625 -9.62890625 27.84765625 C-10.94890625 27.84765625 -12.26890625 27.84765625 -13.62890625 27.84765625 C-15.25390625 25.47265625 -15.25390625 25.47265625 -16.62890625 22.84765625 C-17.28890625 22.18765625 -17.94890625 21.52765625 -18.62890625 20.84765625 C-18.96761593 14.5250756 -18.96761593 14.5250756 -17.62890625 11.84765625 C-14.96223958 12.51432292 -12.29557292 13.18098958 -9.62890625 13.84765625 C-9.95890625 12.83703125 -10.28890625 11.82640625 -10.62890625 10.78515625 C-10.62890625 6.84765625 -10.62890625 6.84765625 -9.08984375 4.7890625 C-3.7130627 -0.21517005 -3.7130627 -0.21517005 0 0 Z " fill="#243A6E" transform="translate(32.62890625,97.15234375)"/>
<path d="M0 0 C-3.45963376 5.16324129 -6.89077994 8.86963061 -11.9765625 12.42578125 C-14.87300432 14.67919062 -17.12003864 17.35358573 -19.45703125 20.16796875 C-22.34490451 23.5968613 -22.34490451 23.5968613 -24 25 C-24.99 25 -25.98 25 -27 25 C-27.20882812 25.56074219 -27.41765625 26.12148437 -27.6328125 26.69921875 C-29.47919424 29.80641545 -32.02318949 31.68902959 -34.875 33.8125 C-35.40480469 34.23208984 -35.93460938 34.65167969 -36.48046875 35.08398438 C-40.35090925 37.99881983 -40.35090925 37.99881983 -43.1484375 38.00390625 C-45.53506185 36.70989262 -46.98425155 35.18503986 -48.75 33.125 C-49.36359375 32.42632812 -49.9771875 31.72765625 -50.609375 31.0078125 C-52 29 -52 29 -52 26 C-51.25016846 25.61779297 -50.50033691 25.23558594 -49.7277832 24.84179688 C-28.62324107 14.80859751 -28.62324107 14.80859751 -9.41796875 1.8046875 C-6.19364805 -0.60183296 -3.92207933 -0.30761407 0 0 Z " fill="#F5F3F4" transform="translate(148,74)"/>
<path d="M0 0 C-0.66 3.96 -1.32 7.92 -2 12 C-1.690625 10.906875 -1.38125 9.81375 -1.0625 8.6875 C-0.41662103 6.44592006 0.2623117 4.2130649 1 2 C2.875 2.5625 2.875 2.5625 5 4 C6.79631483 9.00447009 7.29665575 13.51524074 7.3125 18.8125 C7.32925781 20.11832031 7.34601563 21.42414063 7.36328125 22.76953125 C7.24339844 23.83558594 7.12351562 24.90164062 7 26 C6.01 26.66 5.02 27.32 4 28 C2.68 26.68 1.36 25.36 0 24 C0.495 24.61875 0.99 25.2375 1.5 25.875 C3 28 3 28 3 30 C-0.11598788 31.84651134 -2.38245897 32.38079379 -6 32 C-6.66 31.34 -7.32 30.68 -8 30 C-10.10820797 30.3185177 -10.10820797 30.3185177 -12 31 C-14.19916129 28.1136008 -15.8445713 25.85485784 -16.5 22.25 C-15.16944599 13.60139896 -10.05103531 0 0 0 Z " fill="#374474" transform="translate(280,218)"/>
<path d="M0 0 C14.35486445 -0.12405438 26.54780847 3.13773928 40 8 C40 8.99 40 9.98 40 11 C44.62 13.64 49.24 16.28 54 19 C54 19.66 54 20.32 54 21 C52.68 21 51.36 21 50 21 C50 21.66 50 22.32 50 23 C47.27969761 23.88705513 45.80032679 24.29398449 43 24 C40.29227095 22.46446675 37.91530404 20.68511823 35.4453125 18.79296875 C32.41170116 16.5686435 29.51194219 15.29789168 26 14 C25.67 15.32 25.34 16.64 25 18 C24.67 16.68 24.34 15.36 24 14 C23.36191406 13.87882813 22.72382812 13.75765625 22.06640625 13.6328125 C21.24011719 13.46523437 20.41382812 13.29765625 19.5625 13.125 C18.73878906 12.96257812 17.91507813 12.80015625 17.06640625 12.6328125 C16.38449219 12.42398438 15.70257813 12.21515625 15 12 C14.67 11.34 14.34 10.68 14 10 C11.87423218 9.53348793 11.87423218 9.53348793 9.4375 9.375 C7.973125 9.25125 6.50875 9.1275 5 9 C5.33 13.29 5.66 17.58 6 22 C4.25212388 18.50424777 3.72364198 16.99581693 3.4375 13.3125 C3.40493693 10.35818712 3.40493693 10.35818712 2 8 C1.030625 8 0.06125 8 -0.9375 8 C-4 8 -4 8 -6 7 C-4.95125002 4.37812506 -4.35068687 3.20628639 -1.875 1.75 C-1.25625 1.5025 -0.6375 1.255 0 1 C0 0.67 0 0.34 0 0 Z " fill="#454370" transform="translate(28,186)"/>
<path d="M0 0 C-0.03255208 1.98567708 -0.06510417 3.97135417 -0.09765625 5.95703125 C-0.08263217 8.20305461 -0.08263217 8.20305461 1 11 C-0.4765625 13.62890625 -0.4765625 13.62890625 -2.625 16.5625 C-3.31851563 17.53316406 -4.01203125 18.50382812 -4.7265625 19.50390625 C-7.99288006 23.09012089 -10.41357721 23.86795991 -15.19140625 24.265625 C-16.86009766 24.25789063 -16.86009766 24.25789063 -18.5625 24.25 C-20.23505859 24.25773437 -20.23505859 24.25773437 -21.94140625 24.265625 C-24.89164942 24.00940976 -26.58748833 23.68474687 -29 22 C-29.75 19.375 -29.75 19.375 -30 17 C-31.98 17.33 -33.96 17.66 -36 18 C-34.73285059 14.19855178 -32.9750783 13.67498975 -29.51757812 11.94140625 C-28.78990234 11.58949219 -28.06222656 11.23757812 -27.3125 10.875 C-26.60416016 10.51535156 -25.89582031 10.15570313 -25.16601562 9.78515625 C-21.05493252 7.7580848 -17.54836714 6.71948036 -13 6 C-10.05336226 4.62534371 -10.05336226 4.62534371 -7.25 2.9375 C-2.19058824 0 -2.19058824 0 0 0 Z " fill="#31476E" transform="translate(168,221)"/>
<path d="M0 0 C0 0.99 0 1.98 0 3 C-0.7425 3.144375 -1.485 3.28875 -2.25 3.4375 C-3.1575 3.623125 -4.065 3.80875 -5 4 C-5.721875 4.144375 -6.44375 4.28875 -7.1875 4.4375 C-9.22656623 4.91606861 -9.22656623 4.91606861 -11 7 C-8.36 6.67 -5.72 6.34 -3 6 C-3 6.66 -3 7.32 -3 8 C-5.83959257 9.20467564 -8.37421759 10.07270513 -11.41796875 10.6640625 C-15.82066985 12.30607316 -17.2152482 14.49274703 -19.25 18.5 C-19.58717041 19.1300293 -19.92434082 19.76005859 -20.27172852 20.40917969 C-22.88820197 25.44110564 -24.88608724 30.42123032 -26 36 C-26.18691406 36.84304687 -26.37382812 37.68609375 -26.56640625 38.5546875 C-27.31235469 42.97661611 -27.36514394 46.1938703 -25.1875 50.1875 C-21.44811872 55.31222309 -15.92967147 59.82945956 -9.796875 61.65625 C-7.72441896 61.99986351 -7.72441896 61.99986351 -5 62 C-5 62.33 -5 62.66 -5 63 C-9.08919761 64.15038893 -12.46988742 64.78662504 -16.35546875 62.7890625 C-18.72645669 60.98531608 -20.85914622 59.07091663 -23 57 C-23.69996094 56.38511719 -24.39992188 55.77023438 -25.12109375 55.13671875 C-28.72102297 51.63819599 -30.46402921 48.95523598 -30.6875 43.875 C-29.95100427 33.26946151 -26.31256261 24.06223003 -21 15 C-21.8156543 15.23187012 -22.63130859 15.46374023 -23.47167969 15.70263672 C-26.55668223 16.57626962 -29.64326455 17.44403203 -32.73095703 18.30810547 C-34.05614128 18.68018259 -35.38071008 19.0544601 -36.70458984 19.43115234 C-57.814109 25.43272148 -75.86558679 26.18852984 -97 20 C-97.66 19.34 -98.32 18.68 -99 18 C-93.43524955 16.66929881 -89.96983654 17.46008753 -84.5859375 19.23046875 C-72.24018454 22.90435596 -58.07097777 21.96761943 -46 18 C-43.69000942 17.32468953 -41.3773419 16.65848894 -39.0625 16 C-37.88816406 15.6596875 -36.71382812 15.319375 -35.50390625 14.96875 C-32.18451639 14.05101456 -28.85715942 13.26544899 -25.5 12.5 C-18.31319644 10.72241295 -14.54164191 7.75274642 -10 2 C-6.73040093 -0.28871935 -3.92026737 -0.17819397 0 0 Z " fill="#27396D" transform="translate(288,198)"/>
<path d="M0 0 C1.32 0.66 2.64 1.32 4 2 C4.25796117 7.30856941 3.47925356 11.16246011 1.625 16.125 C-0.53981728 22.13579045 -1.71732739 27.8795177 -2.53125 34.234375 C-3.11454339 37.67580598 -4.1551863 40.06506911 -6 43 C-9.88602985 42.42429187 -12.11172864 40.58424279 -15 38 C-17 35 -17 35 -16.953125 32.42578125 C-15.60637973 27.58522551 -13.23550181 23.532261 -10.75 19.1875 C-10.27175781 18.33607422 -9.79351562 17.48464844 -9.30078125 16.60742188 C-8.34667137 14.90993371 -7.38903622 13.21442176 -6.42773438 11.52099609 C-4.26054831 7.69432659 -2.12991913 3.84750177 0 0 Z " fill="#F3F1F3" transform="translate(119,129)"/>
<path d="M0 0 C0.66 0 1.32 0 2 0 C2.33 2.31 2.66 4.62 3 7 C7.95 8.98 7.95 8.98 13 11 C9 13 9 13 6.3125 14 C3.84572401 14.77234179 3.84572401 14.77234179 3 17 C3.66 17.33 4.32 17.66 5 18 C4.26982666 18.61222412 4.26982666 18.61222412 3.52490234 19.23681641 C1.65378669 21.40031261 1.61448089 22.38796129 1.6015625 25.2109375 C1.59535889 26.03746826 1.58915527 26.86399902 1.58276367 27.71557617 C1.59670166 28.59318604 1.61063965 29.4707959 1.625 30.375 C1.63442627 31.27387939 1.64385254 32.17275879 1.65356445 33.09887695 C1.91487158 44.72027726 3.77101667 55.99062013 11.71484375 64.9296875 C17.88109207 70.80590778 25.55261567 75.16457906 34.1875 75.5625 C42.06693485 75.08873651 47.17222116 71.34402478 52.46484375 65.75 C53.79791199 64.23037005 55.06209953 62.65084655 56.3125 61.0625 C56.869375 60.381875 57.42625 59.70125 58 59 C58.66 59 59.32 59 60 59 C57.02711908 67.48540885 50.78624279 73.15951581 42.8828125 77.125 C42.26148438 77.41375 41.64015625 77.7025 41 78 C40.01 78.495 40.01 78.495 39 79 C29.22460168 79.94600629 21.08617004 76.49093059 13.1875 70.8125 C4.06051636 63.17631224 -0.81246733 53.33689403 -1.890625 41.6015625 C-2.07932678 37.11315597 -1.9633158 32.62616252 -1.83984375 28.13671875 C-1.78388256 25.05611798 -1.78388256 25.05611798 -3.1171875 22.80078125 C-3.40851562 22.20652344 -3.69984375 21.61226562 -4 21 C-3.06564091 19.19572037 -2.11990838 17.39240517 -1.0390625 15.671875 C0.15405023 13.7521297 0.91855848 12.28036245 1 10 C0.505 9.54625 0.01 9.0925 -0.5 8.625 C-0.995 8.08875 -1.49 7.5525 -2 7 C-1.56521739 1.56521739 -1.56521739 1.56521739 0 0 Z " fill="#263A6D" transform="translate(19,176)"/>
<path d="M0 0 C4.57894781 0.76957106 7.18619459 2.30790206 11 5 C15.58795749 8.0708974 19.70456038 10.32095817 25 12 C26.53214888 15.06429776 26.22938548 17.6165642 26 21 C24.84360194 23.31279611 23.82590172 25.17409828 22 27 C19.84765625 27.42578125 19.84765625 27.42578125 17 27 C14.56540167 25.31684907 12.52862943 23.27381671 10.4375 21.1875 C9.31269172 20.09611459 8.18642649 19.00622841 7.05859375 17.91796875 C6.53346191 17.40000732 6.00833008 16.8820459 5.46728516 16.34838867 C3.9352665 14.85882548 3.9352665 14.85882548 1.61328125 13.5 C0 12 0 12 -0.390625 9.08203125 C-0.34421875 8.00308594 -0.2978125 6.92414063 -0.25 5.8125 C-0.21390625 4.72582031 -0.1778125 3.63914063 -0.140625 2.51953125 C-0.09421875 1.68808594 -0.0478125 0.85664063 0 0 Z " fill="#F7F5F5" transform="translate(54,200)"/>
<path d="M0 0 C10.11357031 -0.14447958 19.44521221 3.31810743 27.1875 9.84375 C30.18775494 13.13249099 31.29631733 15.56604251 32 20 C20.47013781 19.9692537 12.56575279 18.56818768 4 10.25 C3.34 9.5075 2.68 8.765 2 8 C1.34 7.34 0.68 6.68 0 6 C-0.125 2.875 -0.125 2.875 0 0 Z " fill="#E12F3E" transform="translate(36,110)"/>
<path d="M0 0 C2.97 0 5.94 0 9 0 C9.33748882 3.35379513 9.67011786 6.70795526 10 10.0625 C10.09539062 11.00544922 10.19078125 11.94839844 10.2890625 12.91992188 C11.3034814 23.31771558 11.3034814 23.31771558 11 28 C8.9375 30.1875 8.9375 30.1875 6 32 C5.39929688 32.37253906 4.79859375 32.74507812 4.1796875 33.12890625 C-0.60213415 36 -0.60213415 36 -3 36 C-2.7834375 35.24460938 -2.566875 34.48921875 -2.34375 33.7109375 C0.50507819 22.44751495 0.2819106 11.54789348 0 0 Z " fill="#F4F3F4" transform="translate(157,189)"/>
<path d="M0 0 C1.88083424 1.33970036 3.72691021 2.70931595 5.5546875 4.12109375 C7.25598919 5.42832396 8.99404831 6.68851221 10.7578125 7.91015625 C14.97878159 11.12699167 17.66888371 13.22242834 18.66796875 18.5859375 C18.69227629 23.30159993 18.49578317 27.51265049 17 32 C9.42810954 28.76213147 4.23689246 20.88307226 0.83203125 13.640625 C-0.59421524 9.11413378 -0.40089655 4.68603523 0 0 Z " fill="#F5F3F4" transform="translate(34,196)"/>
<path d="M0 0 C0.33 0 0.66 0 1 0 C1 4.62 1 9.24 1 14 C1.99 14 2.98 14 4 14 C4.33 9.71 4.66 5.42 5 1 C10.28 1 15.56 1 21 1 C21 2.98 21 4.96 21 7 C17.04 7 13.08 7 9 7 C9 9.64 9 12.28 9 15 C13.95 15 18.9 15 24 15 C24 16.32 24 17.64 24 19 C16.08 19 8.16 19 0 19 C0 21.97 0 24.94 0 28 C-0.33 28 -0.66 28 -1 28 C-1.1820896 18.63250185 -0.61326035 9.3412692 0 0 Z " fill="#DBDFE8" transform="translate(262,59)"/>
<path d="M0 0 C0.33 0 0.66 0 1 0 C1.33 2.31 1.66 4.62 2 7 C2.33 7 2.66 7 3 7 C3.88255428 13.7294764 4.08592955 20.21156583 4 27 C10.93 27 17.86 27 25 27 C24.67 27.66 24.34 28.32 24 29 C18.06 29.33 12.12 29.66 6 30 C5.731875 31.464375 5.46375 32.92875 5.1875 34.4375 C4.73046875 36.93359375 4.73046875 36.93359375 4 39 C2.515 39.495 2.515 39.495 1 40 C1.33 37.03 1.66 34.06 2 31 C-5.92 34.96 -5.92 34.96 -14 39 C-14.66 38.34 -15.32 37.68 -16 37 C-15.54625 36.030625 -15.0925 35.06125 -14.625 34.0625 C-10.94284744 25.34344063 -10.50648255 16.36992721 -10 7 C-9.67 7 -9.34 7 -9 7 C-6.81532663 27.22298995 -6.81532663 27.22298995 -12 35 C-10.01974361 33.85605098 -8.04082322 32.70978896 -6.0625 31.5625 C-4.96035156 30.92441406 -3.85820312 30.28632813 -2.72265625 29.62890625 C-0.1716429 28.25289773 -0.1716429 28.25289773 1 27 C0.9061044 25.10088573 0.74740494 23.20492214 0.5625 21.3125 C-0.05302819 14.19446883 -0.09633951 7.13982789 0 0 Z " fill="#1E3D71" transform="translate(166,190)"/>
<path d="M0 0 C1.32 0 2.64 0 4 0 C4 1.32 4 2.64 4 4 C3.01 4.33 2.02 4.66 1 5 C1 5.99 1 6.98 1 8 C2.65 7.67 4.3 7.34 6 7 C5.67 5.02 5.34 3.04 5 1 C6.98 1.66 8.96 2.32 11 3 C11 2.34 11 1.68 11 1 C13.22909871 0.97285265 15.45829367 0.95353746 17.6875 0.9375 C18.92886719 0.92589844 20.17023438 0.91429688 21.44921875 0.90234375 C24.46235454 0.98521327 27.08275339 1.29160551 30 2 C30 2.66 30 3.32 30 4 C29.34 4 28.68 4 28 4 C28 4.66 28 5.32 28 6 C28.66 6 29.32 6 30 6 C30 7.98 30 9.96 30 12 C28.35 12 26.7 12 25 12 C24.67 10.02 24.34 8.04 24 6 C23.34 6 22.68 6 22 6 C22.66 7.98 23.32 9.96 24 12 C21.525 11.505 21.525 11.505 19 11 C18.67 9.35 18.34 7.7 18 6 C17.34 6 16.68 6 16 6 C16 7.65 16 9.3 16 11 C15.34 11 14.68 11 14 11 C14 8.36 14 5.72 14 3 C13.01 3.495 13.01 3.495 12 4 C12 5.98 12 7.96 12 10 C11.34 10 10.68 10 10 10 C10 9.34 10 8.68 10 8 C9.01 8.66 8.02 9.32 7 10 C4.95703125 10.1953125 4.95703125 10.1953125 2.8125 10.125 C0.9253125 10.063125 0.9253125 10.063125 -1 10 C-1.02689216 8.52093108 -1.04634621 7.04172517 -1.0625 5.5625 C-1.07410156 4.73878906 -1.08570313 3.91507812 -1.09765625 3.06640625 C-1 1 -1 1 0 0 Z " fill="#8E9DB7" transform="translate(250,94)"/>
<path d="M0 0 C1.345177 -0.02042358 1.345177 -0.02042358 2.7175293 -0.04125977 C8.73890934 -0.00009083 13.72765367 1.13902413 19.3125 3.375 C18.9825 4.035 18.6525 4.695 18.3125 5.375 C17.09626953 5.05015625 17.09626953 5.05015625 15.85546875 4.71875 C14.74816406 4.4403125 13.64085937 4.161875 12.5 3.875 C11.42105469 3.5965625 10.34210938 3.318125 9.23046875 3.03125 C0.65852448 1.5954707 -7.09173753 2.4452503 -15.5 4.3125 C-25.89798172 6.42120705 -36.10237856 6.8660764 -46.69018555 7.07739258 C-54.12669032 7.23131703 -61.42616248 7.62815119 -68.8125 8.5 C-75.91222349 9.33135612 -82.57693214 9.44447565 -89.6875 8.375 C-89.6875 8.045 -89.6875 7.715 -89.6875 7.375 C-89.0076001 7.31965088 -88.3277002 7.26430176 -87.62719727 7.20727539 C-84.50135291 6.95203396 -81.3756772 6.69477991 -78.25 6.4375 C-77.18072266 6.35048828 -76.11144531 6.26347656 -75.00976562 6.17382812 C-70.37654102 5.7912683 -65.75518013 5.39930517 -61.140625 4.83203125 C-55.73224657 4.20730511 -50.31321164 4.1445862 -44.875 4 C-36.96021617 3.74970491 -29.30098592 3.17139161 -21.5 1.8125 C-14.31143026 0.58928724 -7.29404683 0.04961937 0 0 Z " fill="#3F3867" transform="translate(259.6875,179.625)"/>
<path d="M0 0 C3.76254239 0.4028418 5.38707847 2.08704178 7.8125 4.875 C8.75029297 5.92300781 8.75029297 5.92300781 9.70703125 6.9921875 C10.13371094 7.65476562 10.56039062 8.31734375 11 9 C10 12 10 12 7.671875 13.45703125 C6.70765625 13.90433594 5.7434375 14.35164063 4.75 14.8125 C3.79609375 15.27269531 2.8421875 15.73289062 1.859375 16.20703125 C-1 17 -1 17 -3.796875 16.44921875 C-6 15 -6 15 -6.9921875 12.671875 C-7.00204375 9.30103792 -6.09363775 7.95347489 -4.125 5.25 C-3.29355469 4.08210938 -3.29355469 4.08210938 -2.4453125 2.890625 C-1 1 -1 1 0 0 Z " fill="#E8DF4F" transform="translate(92,104)"/>
<path d="M0 0 C4.07610464 1.65807646 7.01878864 4.54151678 10.1875 7.5 C10.73341797 7.99886719 11.27933594 8.49773437 11.84179688 9.01171875 C15.86575641 12.73151282 15.86575641 12.73151282 17 15 C13.72311897 16.95218444 11.22930273 17.27063566 7.4375 17.25 C6.01244141 17.25773437 6.01244141 17.25773437 4.55859375 17.265625 C2 17 2 17 -1 15 C-1.328125 12.79296875 -1.328125 12.79296875 -1.25 10.1875 C-1.22421875 9.29675781 -1.1984375 8.40601563 -1.171875 7.48828125 C-0.99458518 4.92160819 -0.66357916 2.48842185 0 0 Z " fill="#F3F1F3" transform="translate(54,215)"/>
<path d="M0 0 C5.12508073 0.08541801 7.0905468 0.16794707 10.9375 3.6875 C15.05193162 10.29552653 14.51146116 18.42458477 14 26 C12.70099924 30.35547313 11.52305731 31.59436372 7.9375 34.375 C3.47080227 36.69461556 -1.09471071 36.3553127 -6 36 C-6 34.68 -6 33.36 -6 32 C-5.01 32 -4.02 32 -3 32 C-2.67 31.34 -2.34 30.68 -2 30 C-1.67 30.99 -1.34 31.98 -1 33 C3.455 32.505 3.455 32.505 8 32 C7.505 31.38125 7.01 30.7625 6.5 30.125 C5 28 5 28 5 26 C8 27 8 27 10 29 C11.95394987 27.04605013 11.17487731 23.45507879 11.1875 20.875 C11.20167969 19.57304687 11.21585937 18.27109375 11.23046875 16.9296875 C10.99705903 12.94985391 10.39970792 9.72945432 9 6 C8.01 5.34 7.02 4.68 6 4 C5.95101563 4.62648437 5.90203125 5.25296875 5.8515625 5.8984375 C5.77679688 6.71570313 5.70203125 7.53296875 5.625 8.375 C5.55539062 9.18710938 5.48578125 9.99921875 5.4140625 10.8359375 C5 13 5 13 3 15 C1.81228277 11.57056481 2.19773777 9.62215325 3.4375 6.25 C3.72496094 5.45078125 4.01242187 4.6515625 4.30859375 3.828125 C4.53675781 3.22484375 4.76492188 2.6215625 5 2 C0.54450493 3.36140127 -1.25434405 5.30756614 -4 9 C-4.99 9.495 -4.99 9.495 -6 10 C-6 6 -6 6 -3.5625 3.3125 C-2.716875 2.549375 -1.87125 1.78625 -1 1 C-0.67 0.67 -0.34 0.34 0 0 Z " fill="#464471" transform="translate(275,216)"/>
<path d="M0 0 C-0.34660626 6.35444809 -1.72954989 12.07172803 -6 17 C-8.43359375 17.96875 -8.43359375 17.96875 -11 18 C-13.01953125 16.56640625 -13.01953125 16.56640625 -14.8125 14.5625 C-15.41707031 13.90378906 -16.02164063 13.24507812 -16.64453125 12.56640625 C-17.09183594 12.04949219 -17.53914062 11.53257812 -18 11 C-13.90793979 6.20241216 -6.54758015 0 0 0 Z " fill="#F3F2F3" transform="translate(168,221)"/>
<path d="M0 0 C1.875 0.5625 1.875 0.5625 4 2 C5.93919997 6.94342089 6.29671541 11.53518597 6.3125 16.8125 C6.32925781 18.11832031 6.34601563 19.42414063 6.36328125 20.76953125 C6.18345703 22.36861328 6.18345703 22.36861328 6 24 C5.01 24.66 4.02 25.32 3 26 C-3 17.35652174 -3 17.35652174 -3 12.4375 C-2.505 10.7359375 -2.505 10.7359375 -2 9 C-1.63787494 7.35589938 -1.28393243 5.70997867 -0.9375 4.0625 C-0.62764351 2.70772601 -0.3160849 1.35333438 0 0 Z " fill="#F2F0F2" transform="translate(281,220)"/>
<path d="M0 0 C10.10590483 0.38868865 18.48092928 5.96600367 27 11 C27 11.66 27 12.32 27 13 C25.68 13 24.36 13 23 13 C23 13.66 23 14.32 23 15 C17.26064438 14.76086018 14.48447198 13.15446354 10.06640625 9.56640625 C6.92923917 7.18832686 3.5634806 5.65447313 0 4 C0 2.68 0 1.36 0 0 Z " fill="#D42941" transform="translate(55,194)"/>
<path d="M0 0 C9.62149823 -0.15518546 18.8524139 3.66905412 26.19140625 9.84375 C29.18647906 13.13472157 30.29650923 15.5672517 31 20 C19.47013781 19.9692537 11.56575279 18.56818768 3 10.25 C2.34 9.5075 1.68 8.765 1 8 C0.34 7.34 -0.32 6.68 -1 6 C-1 5.01 -1 4.02 -1 3 C-0.34 3 0.32 3 1 3 C1.515625 3.86625 2.03125 4.7325 2.5625 5.625 C5.63280578 10.53982408 10.90850531 13.45425266 16 16 C17.87056791 16.2275015 19.74685958 16.40962811 21.625 16.5625 C22.62789062 16.64628906 23.63078125 16.73007813 24.6640625 16.81640625 C25.43492188 16.87699219 26.20578125 16.93757813 27 17 C25.29805102 11.51284208 22.56446844 10.06892601 17.73046875 7.35546875 C12.03276454 4.5269947 6.31656583 2.80981613 0 2 C0 1.34 0 0.68 0 0 Z " fill="#F0C84A" transform="translate(37,110)"/>
<path d="M0 0 C0.886875 0.12375 1.77375 0.2475 2.6875 0.375 C3.31769694 9.39031729 3.31769694 9.39031729 0.6875 13.5 C0.0275 14.11875 -0.6325 14.7375 -1.3125 15.375 C-6.0625 14.625 -6.0625 14.625 -8.3125 12.375 C-8.97567496 8.20647165 -8.4627437 6.61362235 -6.1875 3 C-3.3125 0.375 -3.3125 0.375 0 0 Z " fill="#EEE454" transform="translate(155.3125,38.625)"/>
<path d="M0 0 C0 0.99 0 1.98 0 3 C-1.53125 4.359375 -1.53125 4.359375 -3.5 5.75 C-6.67284517 8.29082974 -6.95098844 8.56589757 -7.4375 12.875 C-7.293125 13.90625 -7.14875 14.9375 -7 16 C-9.76276177 15.47731534 -12.3260876 14.89130413 -15 14 C-15.64870653 20.16149169 -15.64870653 20.16149169 -13 25.4375 C-12.34 25.953125 -11.68 26.46875 -11 27 C-11 27.66 -11 28.32 -11 29 C-14.22489472 28.73852205 -15.6300718 28.39459008 -17.875 26 C-19.7776912 20.9261568 -18.68149079 16.04447236 -17 11 C-16.113125 10.7525 -15.22625 10.505 -14.3125 10.25 C-10.36004014 8.75850571 -8.91322536 6.9312462 -6.39453125 3.65625 C-4.52961049 1.44133011 -2.98875956 0 0 0 Z " fill="#273E6D" transform="translate(30,95)"/>
<path d="M0 0 C3.01168822 1.5465426 4.46284533 3.37876513 6.3125 6.1875 C6.3125 6.8475 6.3125 7.5075 6.3125 8.1875 C4.4221624 8.88996995 2.52493172 9.57390849 0.625 10.25 C-0.43074219 10.63285156 -1.48648437 11.01570313 -2.57421875 11.41015625 C-5.78083792 12.2108052 -7.5561307 12.1112249 -10.6875 11.1875 C-10.60475377 8.37412821 -10.06905522 6.63590452 -8.23828125 4.484375 C-3.68506918 0.25709785 -3.68506918 0.25709785 0 0 Z " fill="#EAE14E" transform="translate(32.6875,96.8125)"/>
<path d="M0 0 C2.09153056 2.66249437 3.72725009 5.29380916 5.25 8.3125 C8.00696119 13.38229186 11.73217369 18.36608685 17 21 C17.33 16.71 17.66 12.42 18 8 C18.33 8 18.66 8 19 8 C19.04898438 9.07121094 19.09796875 10.14242187 19.1484375 11.24609375 C19.22345294 12.64325639 19.2990013 14.0403905 19.375 15.4375 C19.4059375 16.14455078 19.436875 16.85160156 19.46875 17.58007812 C19.57280629 19.39239188 19.77919892 21.19817988 20 23 C22.55919182 24.27959591 24.45484028 24.16816536 27.3125 24.1875 C28.72982422 24.20876953 28.72982422 24.20876953 30.17578125 24.23046875 C33.14406882 23.98824335 35.30867165 23.24026607 38 22 C36.25 25.875 36.25 25.875 34 27 C27.34049705 27.47488993 19.93108314 27.91601472 14.3359375 23.765625 C10.34498605 20.08447343 7.23598194 15.73405267 4.125 11.3125 C3.73135254 10.75393311 3.33770508 10.19536621 2.93212891 9.61987305 C-0.63538959 4.38453573 -0.63538959 4.38453573 -1 1 C-0.67 0.67 -0.34 0.34 0 0 Z " fill="#373F6F" transform="translate(34,207)"/>
<path d="M0 0 C1.32 0 2.64 0 4 0 C4 2.64 4 5.28 4 8 C7.63 8.33 11.26 8.66 15 9 C15 10.65 15 12.3 15 14 C9.72 13.67 4.44 13.34 -1 13 C-1.125 3.375 -1.125 3.375 0 0 Z " fill="#F0F2F5" transform="translate(266,79)"/>
<path d="M0 0 C0 0.99 0 1.98 0 3 C-0.7425 3.144375 -1.485 3.28875 -2.25 3.4375 C-3.1575 3.623125 -4.065 3.80875 -5 4 C-5.721875 4.144375 -6.44375 4.28875 -7.1875 4.4375 C-9.22656623 4.91606861 -9.22656623 4.91606861 -11 7 C-8.36 6.67 -5.72 6.34 -3 6 C-3 6.66 -3 7.32 -3 8 C-5.89451493 9.22797603 -8.30067682 10.04373481 -11.4375 10.5 C-16.7790969 12.74909343 -18.46867103 16.97443112 -21 22 C-21.66 20.68 -22.32 19.36 -23 18 C-22.34 17.01 -21.68 16.02 -21 15 C-23.31 14.67 -25.62 14.34 -28 14 C-28 13.67 -28 13.34 -28 13 C-26.80375 12.7525 -25.6075 12.505 -24.375 12.25 C-17.795884 10.58778518 -14.13163847 7.23340873 -10 2 C-6.73040093 -0.28871935 -3.92026737 -0.17819397 0 0 Z " fill="#2A396C" transform="translate(288,198)"/>
<path d="M0 0 C3.91593446 0.78318689 7.36406635 2.39179858 11 4 C10.34 6.97 9.68 9.94 9 13 C6.8125 13.8125 6.8125 13.8125 4 14 C1.1875 12 1.1875 12 -1 9 C-1.35201103 5.53855822 -1.56935594 3.13871188 0 0 Z " fill="#D42941" transform="translate(15,109)"/>
<path d="M0 0 C0.66 0 1.32 0 2 0 C4.6591873 3.15162939 5.00728493 4.77052483 4.875 8.9375 C4.24512081 12.66723409 2.890044 15.71296696 1 19 C-0.32 18.34 -1.64 17.68 -3 17 C-3.40368295 10.54107286 -2.5915262 5.93891422 0 0 Z " fill="#F5F4F5" transform="translate(270,228)"/>
<path d="M0 0 C1.32 0 2.64 0 4 0 C4 1.32 4 2.64 4 4 C3.01 4.33 2.02 4.66 1 5 C1 5.99 1 6.98 1 8 C2.65 7.67 4.3 7.34 6 7 C5.67 5.02 5.34 3.04 5 1 C6.98 1.66 8.96 2.32 11 3 C11 2.34 11 1.68 11 1 C13.64 1 16.28 1 19 1 C18.67 1.99 18.34 2.98 18 4 C17.01 3.67 16.02 3.34 15 3 C15 5.64 15 8.28 15 11 C14.67 11 14.34 11 14 11 C14 8.36 14 5.72 14 3 C13.01 3.495 13.01 3.495 12 4 C12 5.98 12 7.96 12 10 C11.34 10 10.68 10 10 10 C10 9.34 10 8.68 10 8 C9.01 8.66 8.02 9.32 7 10 C4.95703125 10.1953125 4.95703125 10.1953125 2.8125 10.125 C0.9253125 10.063125 0.9253125 10.063125 -1 10 C-1.02689216 8.52093108 -1.04634621 7.04172517 -1.0625 5.5625 C-1.07410156 4.73878906 -1.08570313 3.91507812 -1.09765625 3.06640625 C-1 1 -1 1 0 0 Z " fill="#CCD2DE" transform="translate(250,94)"/>
<path d="M0 0 C1.35609576 0.05334874 2.71221565 0.10608774 4.06835938 0.15820312 C7.35835957 0.28699317 10.64798617 0.42191704 13.9375 0.5625 C13.9375 0.8925 13.9375 1.2225 13.9375 1.5625 C13.13344727 1.58231934 12.32939453 1.60213867 11.50097656 1.62255859 C7.72958105 1.71993699 3.95848626 1.82554554 0.1875 1.9375 C-0.83558258 1.96768219 -0.83558258 1.96768219 -1.8793335 1.99847412 C-11.16813722 2.28313498 -20.35073445 2.88792717 -29.58398438 3.96777344 C-35.84333597 4.65582021 -41.82061645 4.50131988 -48.0625 3.5625 C-48.0625 3.2325 -48.0625 2.9025 -48.0625 2.5625 C-47.3826001 2.50715088 -46.7027002 2.45180176 -46.00219727 2.39477539 C-42.87635291 2.13953396 -39.7506772 1.88227991 -36.625 1.625 C-35.55572266 1.53798828 -34.48644531 1.45097656 -33.38476562 1.36132812 C-32.33095703 1.27431641 -31.27714844 1.18730469 -30.19140625 1.09765625 C-29.13703369 1.0107251 -28.08266113 0.92379395 -26.99633789 0.83422852 C-24.55460242 0.60807793 -22.14650374 0.30588261 -19.71875 -0.03125 C-13.16794904 -0.78691121 -6.57016842 -0.28171742 0 0 Z " fill="#63345E" transform="translate(218.0625,184.4375)"/>
<path d="M0 0 C6.76215448 0.40939975 12.67162748 1.56953809 19 4 C18.67 5.32 18.34 6.64 18 8 C15.74888027 7.71710528 13.49912314 7.42335307 11.25 7.125 C9.37054688 6.88136719 9.37054688 6.88136719 7.453125 6.6328125 C4.51383592 6.0941645 2.52892853 5.51991159 0 4 C0 2.68 0 1.36 0 0 Z " fill="#D12941" transform="translate(34,189)"/>
<path d="M0 0 C7.59 0 15.18 0 23 0 C23 1.32 23 2.64 23 4 C15.41 4 7.82 4 0 4 C0 2.68 0 1.36 0 0 Z " fill="#FAFAFC" transform="translate(263,74)"/>
<path d="M0 0 C0.33 0 0.66 0 1 0 C3.18467337 20.22298995 3.18467337 20.22298995 -2 28 C1.96 26.02 5.92 24.04 10 22 C10.66 22.66 11.32 23.32 12 24 C4.08 27.96 4.08 27.96 -4 32 C-4.66 31.34 -5.32 30.68 -6 30 C-5.54625 29.030625 -5.0925 28.06125 -4.625 27.0625 C-0.94284744 18.34344063 -0.50648255 9.36992721 0 0 Z " fill="#464471" transform="translate(156,197)"/>
<path d="M0 0 C0.66 0.66 1.32 1.32 2 2 C1.82229322 4.75445516 1.17311088 5.82070659 -0.75 7.8125 C-3 9 -3 9 -5.6875 8.75 C-8 8 -8 8 -9 7 C-9.23529412 1.47058824 -9.23529412 1.47058824 -8 -1 C-4.66891811 -2.37837871 -2.99261684 -1.895324 0 0 Z " fill="#E9E15C" transform="translate(140,45)"/>
<path d="M0 0 C2.28686571 1.75829769 4.2624386 3.69519348 6 6 C6 6.66 6 7.32 6 8 C3.87506859 8.02693575 1.75004088 8.04636628 -0.375 8.0625 C-1.55835938 8.07410156 -2.74171875 8.08570313 -3.9609375 8.09765625 C-7 8 -7 8 -9 7 C-8.6875 4.625 -8.6875 4.625 -8 2 C-4.70095771 -0.19936153 -3.82580113 -0.71177696 0 0 Z " fill="#EBE24E" transform="translate(150,234)"/>
<path d="M0 0 C-0.49371094 0.38671875 -0.98742188 0.7734375 -1.49609375 1.171875 C-2.13675781 1.69265625 -2.77742188 2.2134375 -3.4375 2.75 C-4.07558594 3.26046875 -4.71367188 3.7709375 -5.37109375 4.296875 C-7.18810554 6.19667629 -7.60423197 7.43586908 -8 10 C-8.99 10 -9.98 10 -11 10 C-11 13.63 -11 17.26 -11 21 C-11.33 21 -11.66 21 -12 21 C-12.19532961 19.2300132 -12.38098882 17.45895721 -12.5625 15.6875 C-12.66691406 14.70136719 -12.77132813 13.71523437 -12.87890625 12.69921875 C-13 10 -13 10 -12 7 C-12.99 6.67 -13.98 6.34 -15 6 C-15 5.01 -15 4.02 -15 3 C-12.87790224 2.30359327 -10.75221473 1.61811643 -8.625 0.9375 C-6.84996094 0.36322266 -6.84996094 0.36322266 -5.0390625 -0.22265625 C-2 -1 -2 -1 0 0 Z " fill="#3C4169" transform="translate(38,106)"/>
<path d="M0 0 C7.15384615 0.46153846 7.15384615 0.46153846 10.0625 2.3125 C11 4 11 4 10.6875 6.1875 C10.3471875 7.0846875 10.3471875 7.0846875 10 8 C8.68 6.68 7.36 5.36 6 4 C5.95101563 4.62648437 5.90203125 5.25296875 5.8515625 5.8984375 C5.77679688 6.71570313 5.70203125 7.53296875 5.625 8.375 C5.55539062 9.18710938 5.48578125 9.99921875 5.4140625 10.8359375 C5 13 5 13 3 15 C1.81228277 11.57056481 2.19773777 9.62215325 3.4375 6.25 C3.72496094 5.45078125 4.01242187 4.6515625 4.30859375 3.828125 C4.53675781 3.22484375 4.76492188 2.6215625 5 2 C0.54450493 3.36140127 -1.25434405 5.30756614 -4 9 C-4.99 9.495 -4.99 9.495 -6 10 C-6 6 -6 6 -3.5625 3.3125 C-2.716875 2.549375 -1.87125 1.78625 -1 1 C-0.67 0.67 -0.34 0.34 0 0 Z " fill="#3F4F7C" transform="translate(275,216)"/>
<path d="M0 0 C0.66 2.31 1.32 4.62 2 7 C1.34 7 0.68 7 0 7 C0.33 11.29 0.66 15.58 1 20 C-0.74787612 16.50424777 -1.27635802 14.99581693 -1.5625 11.3125 C-1.59506307 8.35818712 -1.59506307 8.35818712 -3 6 C-3.969375 6 -4.93875 6 -5.9375 6 C-9 6 -9 6 -11 5 C-10.25 3.0625 -10.25 3.0625 -9 1 C-6.05528957 -0.21850087 -3.15451555 -0.08762543 0 0 Z " fill="#303A6B" transform="translate(33,188)"/>
<path d="M0 0 C5.07639821 0.61176974 10.06203884 0.59886724 15.16796875 0.52734375 C23.14851487 0.46532061 30.97333063 0.7019268 38.91796875 1.52734375 C38.58796875 2.51734375 38.25796875 3.50734375 37.91796875 4.52734375 C37.91796875 3.86734375 37.91796875 3.20734375 37.91796875 2.52734375 C36.10993774 2.53519897 36.10993774 2.53519897 34.26538086 2.54321289 C29.77206166 2.56138129 25.27874568 2.5728189 20.78540039 2.58227539 C18.84463962 2.5872886 16.90388259 2.59410087 14.96313477 2.6027832 C12.16551791 2.61498107 9.3679512 2.6206023 6.5703125 2.625 C5.27926857 2.63274193 5.27926857 2.63274193 3.96214294 2.64064026 C-0.8293279 2.64108143 -5.35703889 2.33296192 -10.08203125 1.52734375 C-10.08203125 1.19734375 -10.08203125 0.86734375 -10.08203125 0.52734375 C-6.54820766 -0.288154 -3.56066653 -0.49686572 0 0 Z " fill="#513662" transform="translate(40.08203125,133.47265625)"/>
<path d="M0 0 C3.39192363 0.59283621 5.2107757 1.76743189 7.75 4.0625 C8.67039062 4.88427734 8.67039062 4.88427734 9.609375 5.72265625 C10.29773438 6.35494141 10.29773438 6.35494141 11 7 C10.34 8.32 9.68 9.64 9 11 C4.48279689 11.36625971 4.48279689 11.36625971 2.1875 9.625 C1 8 1 8 1 6 C1.66 6 2.32 6 3 6 C3 5.34 3 4.68 3 4 C2.01 4 1.02 4 0 4 C0 2.68 0 1.36 0 0 Z " fill="#DFD750" transform="translate(100,167)"/>
<path d="M0 0 C0.99 0 1.98 0 3 0 C3.33 0.99 3.66 1.98 4 3 C6.50447516 4.21869929 6.50447516 4.21869929 9 5 C9.04254356 6.99954746 9.04080783 9.00041636 9 11 C8 12 8 12 5.4375 12.0625 C4.633125 12.041875 3.82875 12.02125 3 12 C1.57499941 8.00999834 0.59924224 4.19469571 0 0 Z " fill="#CF2942" transform="translate(79,119)"/>
<path d="M0 0 C0 0.33 0 0.66 0 1 C-3.55960564 2.01050337 -7.12310522 3.00653404 -10.6875 4 C-11.69490234 4.28617187 -12.70230469 4.57234375 -13.74023438 4.8671875 C-14.71669922 5.13789062 -15.69316406 5.40859375 -16.69921875 5.6875 C-17.59471436 5.93886719 -18.49020996 6.19023438 -19.4128418 6.44921875 C-22.02189378 7.00466098 -24.34127842 7.1005663 -27 7 C-23.75127161 3.37497103 -20.31410752 2.56851995 -15.75 1.25 C-14.64205078 0.90001953 -14.64205078 0.90001953 -13.51171875 0.54296875 C-8.57400749 -0.91134832 -5.03641011 -1.09255457 0 0 Z " fill="#244175" transform="translate(84,78)"/>
<path d="M0 0 C2.87575868 0.11454804 5.75012112 0.2412847 8.625 0.375 C9.83736328 0.42140625 9.83736328 0.42140625 11.07421875 0.46875 C15.71838314 0.6952946 19.62693856 1.2592668 24 3 C23.67 3.99 23.34 4.98 23 6 C21.10399631 5.68853528 19.20820413 5.37578283 17.3125 5.0625 C16.25675781 4.88847656 15.20101562 4.71445313 14.11328125 4.53515625 C11.39750396 4.06832879 8.69875765 3.55577384 6 3 C5.67 3.99 5.34 4.98 5 6 C4.87625 5.071875 4.87625 5.071875 4.75 4.125 C4.19884128 1.81418662 4.19884128 1.81418662 1.953125 0.8671875 C1.30859375 0.58101562 0.6640625 0.29484375 0 0 Z " fill="#3B3868" transform="translate(28,186)"/>
<path d="M0 0 C0.66 0 1.32 0 2 0 C4.17204 2.96187272 5.83561997 5.50685991 7 9 C3.86501708 10.85776765 1.62528568 11.20140476 -2 11 C-3.13643966 7.59068103 -2.86747764 6.99664544 -1.5625 3.8125 C-1.13130859 2.73935547 -1.13130859 2.73935547 -0.69140625 1.64453125 C-0.46324219 1.10183594 -0.23507812 0.55914062 0 0 Z " fill="#EAEAEE" transform="translate(276,239)"/>
<path d="M0 0 C5.94 0.99 5.94 0.99 12 2 C12 4.97 12 7.94 12 11 C7.19126013 8.52277037 3.56825335 5.01042883 0 1 C0 0.67 0 0.34 0 0 Z " fill="#F0EFF1" transform="translate(40,197)"/>
<path d="M0 0 C-0.31182069 1.41681634 -0.62448737 2.83344651 -0.9375 4.25 C-1.11152344 5.03890625 -1.28554688 5.8278125 -1.46484375 6.640625 C-1.947556 8.76878703 -2.46163178 10.88532842 -3 13 C-3.66 13 -4.32 13 -5 13 C-7.05942922 10.33036953 -8.0374539 8.78653188 -7.875 5.375 C-6.18181074 0.77920057 -4.96494186 0 0 0 Z " fill="#EAEAED" transform="translate(280,218)"/>
<path d="M0 0 C0.99 0 1.98 0 3 0 C2.4516884 4.06904921 1.25111135 6.50942964 -1.25 9.75 C-1.83265625 10.52859375 -2.4153125 11.3071875 -3.015625 12.109375 C-5.33649729 14.32059978 -6.85640893 14.67480092 -10 15 C-9.67 13.68 -9.34 12.36 -9 11 C-9.66 11 -10.32 11 -11 11 C-11 10.34 -11 9.68 -11 9 C-9.02 9 -7.04 9 -5 9 C-3.35 6.03 -1.7 3.06 0 0 Z " fill="#244273" transform="translate(166,229)"/>
<path d="M0 0 C0.33 0 0.66 0 1 0 C1.33 2.31 1.66 4.62 2 7 C2.33 7 2.66 7 3 7 C3.88021369 13.71162938 4.11381955 20.23405981 4 27 C2.02 27.99 2.02 27.99 0 29 C0.33 28.34 0.66 27.68 1 27 C0.90870987 25.07996235 0.75145687 23.1628967 0.5625 21.25 C-0.05601093 14.15298357 -0.09606005 7.11911674 0 0 Z " fill="#5B5F86" transform="translate(166,190)"/>
<path d="M0 0 C0.99 0.33 1.98 0.66 3 1 C3.33 3.31 3.66 5.62 4 8 C4.99 8 5.98 8 7 8 C6.649375 7.4225 6.29875 6.845 5.9375 6.25 C4.85082593 3.64198224 5.06934867 2.60582371 6 0 C6.99 0 7.98 0 9 0 C8.814375 0.556875 8.62875 1.11375 8.4375 1.6875 C7.92561498 4.39317796 8.42343384 6.33338149 9 9 C8 10 8 10 5.93359375 10.09765625 C5.10988281 10.08605469 4.28617187 10.07445313 3.4375 10.0625 C2.61121094 10.05347656 1.78492188 10.04445313 0.93359375 10.03515625 C0.29550781 10.02355469 -0.34257812 10.01195313 -1 10 C-1 9.34 -1 8.68 -1 8 C-0.01 8 0.98 8 2 8 C1.67 7.4225 1.34 6.845 1 6.25 C0 4 0 4 0 0 Z " fill="#D4D9E3" transform="translate(282,97)"/>
<path d="M0 0 C0.11138159 5.45769811 -0.08342019 10.61509359 -1 16 C-2.32 16 -3.64 16 -5 16 C-4.91291962 13.89505699 -4.80474307 11.79097858 -4.6875 9.6875 C-4.62949219 8.51574219 -4.57148438 7.34398438 -4.51171875 6.13671875 C-4 3 -4 3 -2.51953125 1.08203125 C-1 0 -1 0 0 0 Z " fill="#304C7C" transform="translate(243,59)"/>
<path d="M0 0 C2.09153056 2.66249437 3.72725009 5.29380916 5.25 8.3125 C7.81211172 13.03176961 11.05418307 16.41199015 15 20 C15.66 20.66 16.32 21.32 17 22 C16.01 22.33 15.02 22.66 14 23 C8.25101859 16.9523702 2.65902406 10.56611754 -1 3 C-0.67 2.01 -0.34 1.02 0 0 Z " fill="#444D7A" transform="translate(34,207)"/>
<path d="M0 0 C0 0.99 0 1.98 0 3 C-0.7425 3.144375 -1.485 3.28875 -2.25 3.4375 C-6.16449282 4.23819171 -8.6241048 4.7494032 -12 7 C-11.8125 5.1875 -11.8125 5.1875 -11 3 C-7.33874929 0.07099943 -4.6175429 -0.32215416 0 0 Z " fill="#413766" transform="translate(288,198)"/>
<path d="M0 0 C0.58007812 0.08378906 1.16015625 0.16757812 1.7578125 0.25390625 C6.42315303 0.86209421 10.35442117 1.07205665 15 0 C15 0.99 15 1.98 15 3 C10.59085217 4.10228696 6.51617599 4.07654536 2 4 C1.34 2.68 0.68 1.36 0 0 Z " fill="#3E5784" transform="translate(139,58)"/>
<path d="M0 0 C0.33 1.32 0.66 2.64 1 4 C1.66 4 2.32 4 3 4 C3.33 3.34 3.66 2.68 4 2 C4.66 3.98 5.32 5.96 6 8 C5.01 8.495 5.01 8.495 4 9 C3.67 7.68 3.34 6.36 3 5 C2.34 5 1.68 5 1 5 C0.87625 5.763125 0.7525 6.52625 0.625 7.3125 C0 10 0 10 -2 13 C-3.18414294 9.44757118 -2.69535532 8.30169438 -1.5625 4.8125 C-1.27503906 3.91144531 -0.98757813 3.01039063 -0.69140625 2.08203125 C-0.46324219 1.39496094 -0.23507812 0.70789063 0 0 Z " fill="#4F668F" transform="translate(275,234)"/>
<path d="M0 0 C0.33 0.66 0.66 1.32 1 2 C2.32 2 3.64 2 5 2 C5 4.31 5 6.62 5 9 C4.67 8.34 4.34 7.68 4 7 C2.02 7.33 0.04 7.66 -2 8 C-1.34 5.36 -0.68 2.72 0 0 Z " fill="#C0C7D6" transform="translate(237,73)"/>
<path d="M0 0 C1.32 0 2.64 0 4 0 C4 0.66 4 1.32 4 2 C3.34 2 2.68 2 2 2 C2 2.66 2 3.32 2 4 C2.66 4 3.32 4 4 4 C4 5.98 4 7.96 4 10 C2.68 9.67 1.36 9.34 0 9 C0 6.03 0 3.06 0 0 Z " fill="#DEE2EA" transform="translate(276,96)"/>
<path d="M0 0 C0.99 0.33 1.98 0.66 3 1 C3 3.64779693 2.82804069 5.51587793 2 8 C1.01 8.495 1.01 8.495 0 9 C-0.99 8.67 -1.98 8.34 -3 8 C-3 7.01 -3 6.02 -3 5 C-2.34 4.67 -1.68 4.34 -1 4 C-1.33 3.34 -1.66 2.68 -2 2 C-1.34 2 -0.68 2 0 2 C0 1.34 0 0.68 0 0 Z " fill="#4C638D" transform="translate(254,94)"/>
<path d="M0 0 C5.86001992 0.293001 9.85546646 3.03429151 14 7 C14 7.66 14 8.32 14 9 C10.40241608 7.67726488 7.36262865 6.0805802 4.1875 3.9375 C3.39730469 3.41027344 2.60710938 2.88304687 1.79296875 2.33984375 C1.20128906 1.89769531 0.60960937 1.45554688 0 1 C0 0.67 0 0.34 0 0 Z " fill="#3D4C7A" transform="translate(59,201)"/>
<path d="M0 0 C2.6855594 2.6855594 3.06049974 5.37621328 4 9 C2.68 9.33 1.36 9.66 0 10 C0 9.34 0 8.68 0 8 C-0.99 7.67 -1.98 7.34 -3 7 C-2.01 7 -1.02 7 0 7 C0 6.01 0 5.02 0 4 C-0.66 4 -1.32 4 -2 4 C-2 3.34 -2 2.68 -2 2 C-1.34 2 -0.68 2 0 2 C0 1.34 0 0.68 0 0 Z " fill="#445D89" transform="translate(280,96)"/>
<path d="M0 0 C-2.85478326 1.90318884 -4.41941308 2.4619099 -7.6875 3.125 C-8.49574219 3.29257813 -9.30398437 3.46015625 -10.13671875 3.6328125 C-10.75160156 3.75398438 -11.36648437 3.87515625 -12 4 C-11 1 -11 1 -8.8125 -0.25 C-5.51773102 -1.12860506 -3.29199038 -0.76557916 0 0 Z " fill="#3A5482" transform="translate(60,85)"/>
<path d="M0 0 C3.3 0.33 6.6 0.66 10 1 C10 1.99 10 2.98 10 4 C7.36 4 4.72 4 2 4 C1.34 2.68 0.68 1.36 0 0 Z " fill="#6A6885" transform="translate(155,185)"/>
<path d="M0 0 C10.55808656 0.77904328 10.55808656 0.77904328 15 3 C14.67 3.66 14.34 4.32 14 5 C9.38 4.01 4.76 3.02 0 2 C0 1.34 0 0.68 0 0 Z " fill="#EEB148" transform="translate(37,110)"/>
<path d="M0 0 C0.99 0 1.98 0 3 0 C2.814375 0.556875 2.62875 1.11375 2.4375 1.6875 C1.92448835 4.399133 2.3359276 6.34371039 3 9 C1.68 9.33 0.36 9.66 -1 10 C-1 9.34 -1 8.68 -1 8 C-0.34 8 0.32 8 1 8 C0.649375 7.4225 0.29875 6.845 -0.0625 6.25 C-1.14917407 3.64198224 -0.93065133 2.60582371 0 0 Z " fill="#E4E7ED" transform="translate(288,97)"/>
<path d="M0 0 C1.66611905 -0.042721 3.33382885 -0.04063832 5 0 C6.66342837 1.66342837 6.36048097 3.7825709 6.5625 6.0625 C6.64628906 6.98160156 6.73007812 7.90070313 6.81640625 8.84765625 C6.87699219 9.55792969 6.93757813 10.26820312 7 11 C6.34 11 5.68 11 5 11 C4.87625 10.030625 4.7525 9.06125 4.625 8.0625 C4.315625 6.5465625 4.315625 6.5465625 4 5 C3.34 4.67 2.68 4.34 2 4 C2.33 3.01 2.66 2.02 3 1 C2.01 1.33 1.02 1.66 0 2 C0 1.34 0 0.68 0 0 Z " fill="#B3BCCE" transform="translate(270,95)"/>
<path d="M0 0 C0 0.33 0 0.66 0 1 C-3.87684087 2.19287411 -6.91621923 3 -11 3 C-10.67 2.01 -10.34 1.02 -10 0 C-6.30581799 -1.231394 -3.7943739 -0.64432764 0 0 Z " fill="#2E4A7B" transform="translate(84,78)"/>
<path d="M0 0 C0 0.99 0 1.98 0 3 C-4.455 3.495 -4.455 3.495 -9 4 C-8.67 3.01 -8.34 2.02 -8 1 C-5.17884816 -0.07009208 -3.09455459 0 0 0 Z " fill="#B92C48" transform="translate(32,188)"/>
<path d="M0 0 C1.32 0 2.64 0 4 0 C4 1.32 4 2.64 4 4 C3.01 4.33 2.02 4.66 1 5 C1 5.99 1 6.98 1 8 C1.99 8.33 2.98 8.66 4 9 C2.68 9 1.36 9 0 9 C0 6.03 0 3.06 0 0 Z " fill="#E7E9EF" transform="translate(250,94)"/>
<path d="M0 0 C0.99 0 1.98 0 3 0 C2.875 2.25 2.875 2.25 2 5 C-1.0625 7.3125 -1.0625 7.3125 -4 9 C-2.80100302 5.9168649 -1.52299523 2.93720508 0 0 Z " fill="#304B7C" transform="translate(166,229)"/>
<path d="M0 0 C-0.33 0.99 -0.66 1.98 -1 3 C-6.94 1.515 -6.94 1.515 -13 0 C-13 -0.33 -13 -0.66 -13 -1 C-8.15507803 -2.51403812 -4.7408989 -1.36602172 0 0 Z " fill="#533662" transform="translate(68,194)"/>
<path d="M0 0 C2.64 0 5.28 0 8 0 C8.33 0.99 8.66 1.98 9 3 C6.08517222 3.80967438 4.53886783 4.21845993 1.6875 3.0625 C1.130625 2.711875 0.57375 2.36125 0 2 C0 1.34 0 0.68 0 0 Z " fill="#2C487A" transform="translate(265,92)"/>
<path d="M0 0 C6.75 0.75 6.75 0.75 9 3 C6.69 3.66 4.38 4.32 2 5 C1.34 3.35 0.68 1.7 0 0 Z " fill="#213A6E" transform="translate(51,190)"/>
<path d="M0 0 C2.46800047 1.15173355 4.04783565 2.04783565 6 4 C7.31747324 4.69748583 8.64914193 5.36959957 10 6 C7.8125 6.8125 7.8125 6.8125 5 7 C2.1875 4.6875 2.1875 4.6875 0 2 C0 1.34 0 0.68 0 0 Z " fill="#4A628C" transform="translate(65,222)"/>
<path d="M0 0 C2 2 2 2 2 5 C-2.29 4.34 -6.58 3.68 -11 3 C-11 2.67 -11 2.34 -11 2 C-7.7 2 -4.4 2 -1 2 C-0.67 1.34 -0.34 0.68 0 0 Z " fill="#EDA948" transform="translate(66,125)"/>
<path d="M0 0 C0.66 0 1.32 0 2 0 C2 2.64 2 5.28 2 8 C1.01 7.67 0.02 7.34 -1 7 C-1.04254356 5.00045254 -1.04080783 2.99958364 -1 1 C-0.67 0.67 -0.34 0.34 0 0 Z " fill="#566C93" transform="translate(262,97)"/>
<path d="M0 0 C0.66 0.33 1.32 0.66 2 1 C2.73075648 3.3140622 3.40138258 5.64828869 4 8 C3.01 8 2.02 8 1 8 C-0.42944945 5.64561267 -1.08661261 4.51967567 -0.625 1.75 C-0.41875 1.1725 -0.2125 0.595 0 0 Z " fill="#435C88" transform="translate(285,97)"/>
<path d="M0 0 C-0.33 0.99 -0.66 1.98 -1 3 C-4.5625 4.1875 -4.5625 4.1875 -8 5 C-7 2 -7 2 -5.125 0.8125 C-3 0 -3 0 0 0 Z " fill="#224074" transform="translate(48,87)"/>
<path d="M0 0 C0.66 0.99 1.32 1.98 2 3 C3.32 3.66 4.64 4.32 6 5 C3.03 5 0.06 5 -3 5 C-3 4.01 -3 3.02 -3 2 C-2.01 2 -1.02 2 0 2 C0 1.34 0 0.68 0 0 Z " fill="#224073" transform="translate(272,246)"/>
<path d="M0 0 C0.33 0 0.66 0 1 0 C1.33 2.64 1.66 5.28 2 8 C3.32 8.33 4.64 8.66 6 9 C6 9.66 6 10.32 6 11 C4.125 11.625 4.125 11.625 2 12 C0 10 0 10 -0.1953125 7.6171875 C-0.17210937 6.71226562 -0.14890625 5.80734375 -0.125 4.875 C-0.10695313 3.96492187 -0.08890625 3.05484375 -0.0703125 2.1171875 C-0.04710937 1.41851562 -0.02390625 0.71984375 0 0 Z " fill="#5D6F95" transform="translate(266,237)"/>
<path d="M0 0 C0 0.99 0 1.98 0 3 C-1 4 -1 4 -3.72265625 4.09765625 C-5.37587891 4.08025391 -5.37587891 4.08025391 -7.0625 4.0625 C-8.16722656 4.05347656 -9.27195313 4.04445312 -10.41015625 4.03515625 C-11.69212891 4.01775391 -11.69212891 4.01775391 -13 4 C-13 3.67 -13 3.34 -13 3 C-12.39671875 2.95101562 -11.7934375 2.90203125 -11.171875 2.8515625 C-10.37265625 2.77679688 -9.5734375 2.70203125 -8.75 2.625 C-7.56664062 2.52058594 -7.56664062 2.52058594 -6.359375 2.4140625 C-3.914123 1.98492887 -2.15163097 1.21399362 0 0 Z " fill="#4B5C87" transform="translate(71,229)"/>
<path d="M0 0 C2.64 0 5.28 0 8 0 C8 0.66 8 1.32 8 2 C3.545 2.495 3.545 2.495 -1 3 C-0.67 2.01 -0.34 1.02 0 0 Z " fill="#203A6E" transform="translate(256,212)"/>
<path d="M0 0 C2.64 0.99 5.28 1.98 8 3 C4 4 4 4 1 3 C0.67 4.32 0.34 5.64 0 7 C-0.38133299 5.0085944 -0.71325582 3.00720923 -1 1 C-0.67 0.67 -0.34 0.34 0 0 Z " fill="#243D70" transform="translate(53,197)"/>
<path d="M0 0 C0.5775 0.61875 1.155 1.2375 1.75 1.875 C3.80249821 3.81347053 5.43366582 4.90014249 8 6 C5.75 6.6875 5.75 6.6875 3 7 C0.6875 5.5625 0.6875 5.5625 -1 4 C-0.67 2.68 -0.34 1.36 0 0 Z " fill="#404E69" transform="translate(100,173)"/>
<path d="M0 0 C1.17539996 0.92652701 2.34010577 1.86663387 3.5 2.8125 C4.1496875 3.33457031 4.799375 3.85664063 5.46875 4.39453125 C7 6 7 6 7 9 C4.36 7.02 1.72 5.04 -1 3 C-0.67 2.01 -0.34 1.02 0 0 Z " fill="#3B5479" transform="translate(102,164)"/>
<path d="M0 0 C0 0.66 0 1.32 0 2 C-3.37097383 3.49821059 -5.20442119 4 -9 4 C-9 3.34 -9 2.68 -9 2 C-3.375 0 -3.375 0 0 0 Z " fill="#503663" transform="translate(285,204)"/>
<path d="M0 0 C0 3 0 3 -2.5 5.6875 C-3.325 6.450625 -4.15 7.21375 -5 8 C-5.66 7.67 -6.32 7.34 -7 7 C-4.78071806 4.09197539 -3.07030857 2.04687238 0 0 Z " fill="#1C3A6F" transform="translate(300,252)"/>
<path d="M0 0 C0.99 0.66 1.98 1.32 3 2 C-0.465 3.485 -0.465 3.485 -4 5 C-4.66 4.34 -5.32 3.68 -6 3 C-4.02 2.01 -2.04 1.02 0 0 Z " fill="#4B628C" transform="translate(165,219)"/>
</svg>
