<?xml version="1.0" encoding="UTF-8"?>
<svg version="1.1" xmlns="http://www.w3.org/2000/svg" width="600" height="240">
<path d="M0 0 C23.1 0 46.2 0 70 0 C68.66979458 8.64633521 67.27999145 17.22933619 65.625 25.8125 C65.40875977 26.94107422 65.19251953 28.06964844 64.96972656 29.23242188 C63.74010108 35.54124923 62.38709747 41.78469591 60.75 48 C59.26000122 53.67160825 58.28166342 59.14140079 58 65 C57.34 65 56.68 65 56 65 C55.80508548 66.45736087 55.61930642 67.91594593 55.4375 69.375 C55.33308594 70.18710938 55.22867188 70.99921875 55.12109375 71.8359375 C54.81762672 74.04899186 54.81762672 74.04899186 56 76 C55.34 76 54.68 76 54 76 C53.90203125 76.69480469 53.8040625 77.38960938 53.703125 78.10546875 C52.13088336 88.79942264 50.06703541 99.3925279 48 110 C50.64 109.34 53.28 108.68 56 108 C56.65192688 105.50145233 57.29663064 103.0013863 57.9375 100.5 C58.11990234 99.80390625 58.30230469 99.1078125 58.49023438 98.390625 C59.4000524 94.8175215 60.13768529 91.32093331 60.56640625 87.65625 C60.98202842 84.15154411 61.88960421 81.33118737 63 78 C63.28406995 76.04307371 63.49204637 74.09544355 63.65625 72.125 C64 70 64 70 64.93334961 67.29956055 C66.03087313 63.90449752 66.74669521 60.58671709 67.41015625 57.08203125 C68.92581415 49.24624091 70.65899726 41.46795654 72.4375 33.6875 C74.99188156 22.46544168 77.50326123 11.23532447 80 0 C104.09 0 128.18 0 153 0 C153.33 1.32 153.66 2.64 154 4 C154.66 4.33 155.32 4.66 156 5 C156.71532117 6.64637112 157.37057605 8.31891472 158 10 C159.05205945 12.31574805 160.11527733 14.62320511 161.1953125 16.92578125 C161.50422928 17.58659195 161.81314606 18.24740265 162.13142395 18.92823792 C163.12760913 21.0571137 164.12619015 23.18485453 165.125 25.3125 C165.46226105 26.03254211 165.79952209 26.75258423 166.14700317 27.4944458 C170.27847363 36.31240634 174.42558889 45.11654164 178.91650391 53.7590332 C181 57.80252832 181 57.80252832 181 60 C181.66 60.33 182.32 60.66 183 61 C183.96484375 63.109375 183.96484375 63.109375 184.9375 65.75 C186.30494889 69.44820184 187.94039956 72.64028337 190 76 C190.18570053 75.14444519 190.37140106 74.28889038 190.56272888 73.40740967 C192.31301493 65.34407088 194.06390046 57.28086255 195.81545925 49.21780014 C196.71592691 45.07251797 197.6161628 40.92718576 198.51586914 36.78173828 C199.38416391 32.78106252 200.25306733 28.78051939 201.12239265 24.78006744 C201.45392595 23.25390581 201.78524002 21.72769653 202.1163311 20.2014389 C202.58014737 18.06352799 203.04474322 15.92578789 203.50952148 13.78808594 C203.90590065 11.96274323 203.90590065 11.96274323 204.31028748 10.1005249 C205.07605813 6.65808923 205.88475469 3.34573593 207 0 C229.77 0 252.54 0 276 0 C273.74603175 13.52380952 273.74603175 13.52380952 272.44921875 19.8359375 C272.31003021 20.5150116 272.17084167 21.19408569 272.0274353 21.89373779 C271.58341482 24.05470946 271.13573814 26.21489957 270.6875 28.375 C270.53481659 29.11457947 270.38213318 29.85415894 270.224823 30.6161499 C267.64333269 43.11473761 264.91195305 55.57387778 262 68 C265.3 68 268.6 68 272 68 C272.10594482 67.25298828 272.21188965 66.50597656 272.32104492 65.73632812 C273.56148962 57.31182836 275.13450699 48.98034538 276.86694336 40.64648438 C277.30608465 38.53090619 277.73837042 36.41401275 278.16992188 34.296875 C280.54551535 22.7928924 283.27571391 11.44200157 286 0 C333.19 0 380.38 0 429 0 C420.66666667 43.33333333 420.66666667 43.33333333 418 46 C415.13998413 46.24050903 415.13998413 46.24050903 411.43896484 46.22705078 C410.76567642 46.22734283 410.092388 46.22763489 409.3986969 46.22793579 C407.16931346 46.22654047 404.94026268 46.21097016 402.7109375 46.1953125 C401.16680077 46.19158308 399.62266167 46.18873577 398.07852173 46.18673706 C394.01124557 46.17909499 389.94411189 46.15944168 385.87689209 46.1373291 C381.7278435 46.11688296 377.57877193 46.10773799 373.4296875 46.09765625 C365.28639289 46.07619625 357.14321416 46.04205349 349 46 C348.86722656 46.83144531 348.73445313 47.66289063 348.59765625 48.51953125 C348.42105469 49.60621094 348.24445313 50.69289062 348.0625 51.8125 C347.80146484 53.43091797 347.80146484 53.43091797 347.53515625 55.08203125 C347 58 347 58 346 61 C347.28569633 60.90143959 347.28569633 60.90143959 348.59736633 60.80088806 C372.75396578 59.00403101 396.91505399 58.85554968 421.12280273 58.93133545 C424.85204464 58.94183421 428.58129425 58.94618796 432.31054688 58.95117188 C439.54038428 58.96168317 446.77018574 58.97859178 454 59 C454.30004402 66.27351476 453.48086369 72.81291321 451.8828125 79.8984375 C451.6655954 80.8958194 451.4483783 81.89320129 451.22457886 82.92080688 C450.7671267 85.01095465 450.30466663 87.10001217 449.83740234 89.18798828 C449.12287993 92.38448435 448.42548307 95.58436795 447.73046875 98.78515625 C447.28224645 100.82313608 446.83306162 102.8609045 446.3828125 104.8984375 C446.17439728 105.85261566 445.96598206 106.80679382 445.75125122 107.78988647 C445.55119476 108.67826202 445.35113831 109.56663757 445.14501953 110.48193359 C444.97181183 111.26007416 444.79860413 112.03821472 444.62014771 112.8399353 C443.97112307 115.10058255 443.2106773 116.98286177 442 119 C436.46364072 121.87988209 430.21558505 121.23414383 424.140625 121.16015625 C422.97486435 121.15463745 421.8091037 121.14911865 420.60801697 121.14343262 C418.11344043 121.13110816 415.61888202 121.11450718 413.12435913 121.09402466 C406.6467858 121.04131832 400.16915452 121.01916275 393.69140625 121 C392.41675003 120.99585587 391.14209381 120.99171173 389.82881165 120.98744202 C378.29140922 120.96612216 366.77880442 121.23418409 355.25292969 121.73266602 C347.72073239 122.03465974 340.50243587 121.77374243 333 121 C332.34 124.96 331.68 128.92 331 133 C365.155 133.495 365.155 133.495 400 134 C398.87446891 144.12977984 398.87446891 144.12977984 398.125 147.68359375 C397.95097656 148.51616699 397.77695312 149.34874023 397.59765625 150.20654297 C397.40042969 151.12838379 397.20320312 152.05022461 397 153 C396.65775391 154.63606201 396.65775391 154.63606201 396.30859375 156.30517578 C395.55273476 159.89402195 394.77806205 163.47840726 394 167.0625 C393.60941406 168.91391602 393.60941406 168.91391602 393.2109375 170.80273438 C392.95570313 171.97255859 392.70046875 173.14238281 392.4375 174.34765625 C392.09525391 175.94105835 392.09525391 175.94105835 391.74609375 177.56665039 C391.49988281 178.36965576 391.25367188 179.17266113 391 180 C388.3520836 181.3239582 386.37293043 181.12288893 383.40658569 181.12025452 C382.21744064 181.12162918 381.02829559 181.12300385 379.80311584 181.12442017 C378.49185226 181.12082489 377.18058868 181.11722961 375.82958984 181.11352539 C374.44014996 181.11324343 373.05070993 181.11340142 371.66127014 181.1139679 C367.88257049 181.11425554 364.10390239 181.10836413 360.32521009 181.10139394 C356.37872444 181.09515492 352.43223811 181.09455617 348.48574829 181.09336853 C341.0094972 181.09025684 333.53326068 181.08204562 326.05701602 181.07201904 C317.54685544 181.06085289 309.03669419 181.05534619 300.52652812 181.05032361 C283.01767674 181.03986288 265.50884046 181.0220658 248 181 C248.33 176.38 248.66 171.76 249 167 C249.66 167 250.32 167 251 167 C251.09152344 165.86691406 251.18304688 164.73382813 251.27734375 163.56640625 C252.12607714 155.92780572 253.9325775 148.43931251 255.5625 140.9375 C255.89558868 139.38875922 256.22827438 137.83993172 256.56054688 136.29101562 C257.36905311 132.5263273 258.18301174 128.76285631 259 125 C255.7 125 252.4 125 249 125 C248.88527344 126.423125 248.77054687 127.84625 248.65234375 129.3125 C248.08240442 135.00187677 246.89624405 140.44726965 245.5625 146 C244.09404933 152.22239629 242.68080601 158.44039301 241.44897461 164.71435547 C240.83525572 167.83868185 240.18207214 170.95239932 239.5 174.0625 C239.2628125 175.16722656 239.025625 176.27195313 238.78125 177.41015625 C238.5234375 178.26480469 238.265625 179.11945313 238 180 C235.22712675 181.38643662 232.95658682 181.1425685 229.85375977 181.16113281 C228.56224503 181.17074036 227.27073029 181.1803479 225.94007874 181.19024658 C224.52385636 181.19509381 223.10763195 181.19937282 221.69140625 181.203125 C220.24413551 181.2088759 218.7968648 181.21463364 217.34959412 181.22039795 C214.31403244 181.23090726 211.27849724 181.23675058 208.24291992 181.24023438 C204.35099793 181.2457234 200.45942504 181.26976002 196.56761265 181.29820633 C193.57792635 181.31681748 190.58832447 181.32203745 187.59858513 181.32357025 C186.16363552 181.32660006 184.7286875 181.33463967 183.29379463 181.34775543 C181.28781153 181.3647845 179.28168476 181.36109543 177.27563477 181.35644531 C176.13361099 181.36009094 174.99158722 181.36373657 173.81495667 181.36749268 C171 181 171 181 169.19769287 179.65249634 C167.41889913 177.19823598 166.29307652 174.59340902 165.07421875 171.8203125 C164.80414505 171.2117038 164.53407135 170.60309509 164.2558136 169.9760437 C163.39314948 168.02851527 162.54004095 166.07697815 161.6875 164.125 C160.84691282 162.21711227 160.00434919 160.31010773 159.16140747 158.40325928 C158.60432829 157.14199774 158.04855696 155.88015773 157.49411011 154.61773682 C155.11134862 149.20454783 152.61200394 143.85127036 150.07739258 138.50732422 C149 136 149 136 149 134 C140.42 134.99 131.84 135.98 123 137 C122.67 139.97 122.34 142.94 122 146 C121.12005478 150.75176349 120.08432803 155.46732145 119.04370117 160.18603516 C118.55936556 162.38925845 118.08696144 164.59482817 117.61523438 166.80078125 C117.30800517 168.20848924 117.00008734 169.61604716 116.69140625 171.0234375 C116.41498291 172.29106934 116.13855957 173.55870117 115.85375977 174.86474609 C115 178 115 178 113 181 C110.19813538 181.40545654 110.19813538 181.40545654 106.57836914 181.44824219 C105.91965317 181.46004013 105.26093719 181.47183807 104.58226013 181.48399353 C102.39983007 181.51934751 100.21782246 181.53337857 98.03515625 181.546875 C96.5206097 181.56625745 95.0060776 181.586801 93.49156189 181.60845947 C90.31479494 181.65085848 87.13813241 181.68349232 83.96118164 181.70849609 C79.88756848 181.74072067 75.81441459 181.79033831 71.74106693 181.84641647 C68.61246863 181.8887136 65.48382611 181.92517117 62.35513115 181.9595108 C60.8532032 181.97605328 59.35128619 181.99362213 57.8493824 182.01222992 C55.74993706 182.03668944 53.65055549 182.05411348 51.55102539 182.06933594 C50.35570694 182.08027283 49.16038849 182.09120972 47.92884827 182.10247803 C45 182 45 182 42 181 C42.51522087 173.08006776 43.79238443 165.54250048 45.5625 157.8125 C45.79646484 156.76513672 46.03042969 155.71777344 46.27148438 154.63867188 C46.84149752 152.09106211 47.41986319 149.54532351 48 147 C41.07 147.99 41.07 147.99 34 149 C33.01 151.97 33.01 151.97 32 155 C30.125 157.046875 30.125 157.046875 28 158.75 C27.29875 159.32234375 26.5975 159.8946875 25.875 160.484375 C24.946875 161.23460937 24.946875 161.23460937 24 162 C23.34 162.66 22.68 163.32 22 164 C-1.63347941 181.26890774 -29.00582397 180.99934535 -57.05273438 181.55761719 C-60.41813473 181.62587487 -63.78324746 181.70337462 -67.1484375 181.78125 C-69.29425931 181.82607578 -71.44009237 181.87036699 -73.5859375 181.9140625 C-74.5889389 181.93796051 -75.59194031 181.96185852 -76.62533569 181.98648071 C-78.01421494 182.0117836 -78.01421494 182.0117836 -79.43115234 182.03759766 C-80.64996597 182.06305161 -80.64996597 182.06305161 -81.8934021 182.08901978 C-84 182 -84 182 -87 181 C-86.67 177.7 -86.34 174.4 -86 171 C-87.72926874 171.31193464 -89.45841044 171.62457362 -91.1875 171.9375 C-92.15042969 172.11152344 -93.11335938 172.28554687 -94.10546875 172.46484375 C-101.45292378 173.82328011 -108.73936826 175.41023122 -115.98046875 177.25390625 C-126.04717451 179.79903727 -135.57208436 181.807215 -146 182 C-146 180.68 -146 179.36 -146 178 C-142.77473823 176.51221073 -139.5441667 175.03631893 -136.3125 173.5625 C-135.40048828 173.14162109 -134.48847656 172.72074219 -133.54882812 172.28710938 C-132.66259766 171.88427734 -131.77636719 171.48144531 -130.86328125 171.06640625 C-130.05157471 170.69459229 -129.23986816 170.32277832 -128.40356445 169.93969727 C-126 169 -126 169 -123.25854492 168.49584961 C-122.14056519 168.25040405 -122.14056519 168.25040405 -121 168 C-120.67 167.34 -120.34 166.68 -120 166 C-117.65472293 164.99789963 -115.33712021 164.10247828 -112.9375 163.25 C-111.47905544 162.71905543 -110.02072541 162.18779616 -108.5625 161.65625 C-107.8096875 161.38425781 -107.056875 161.11226562 -106.28125 160.83203125 C-104.05541737 160.02021216 -101.83908822 159.18702187 -99.625 158.34375 C-98.9225415 158.0765918 -98.22008301 157.80943359 -97.49633789 157.53417969 C-96.16165465 157.02581937 -94.82747459 156.51613521 -93.49389648 156.00488281 C-89.37051164 154.44604876 -85.24787624 153.1590087 -81 152 C-80.896875 150.783125 -80.79375 149.56625 -80.6875 148.3125 C-80.11840847 143.10819921 -78.94665723 138.09916092 -77.71875 133.015625 C-77.25691376 131.07792076 -76.8365024 129.12961569 -76.46875 127.171875 C-76 125 -76 125 -75 124 C-72.5978703 123.87683342 -70.22010337 123.81387976 -67.81640625 123.7890625 C-66.3157451 123.76095119 -64.81509423 123.73228656 -63.31445312 123.703125 C-60.95158653 123.66218002 -58.58890311 123.62529794 -56.22583008 123.59863281 C-41.52034369 123.57735553 -41.52034369 123.57735553 -28.125 118.125 C-23.10487993 110.74247048 -21.78712668 101.60998012 -20.5 92.921875 C-19.8374572 89.05014051 -18.79442711 85.33448357 -17.68359375 81.5703125 C-16.9610197 79.02326245 -16.9610197 79.02326245 -16.58691406 76.46142578 C-15.82398657 71.96193079 -14.87523017 67.51022021 -13.92578125 63.046875 C-13.71946579 62.07381409 -13.51315033 61.10075317 -13.30058289 60.09820557 C-12.86163608 58.03033151 -12.421988 55.9626062 -11.98168945 53.89501953 C-11.32958583 50.83029904 -10.68124262 47.76480078 -10.03320312 44.69921875 C-6.85525313 29.75374655 -3.4369967 14.89365235 0 0 Z " fill="#1E3276" transform="translate(146,0)"/>
<path d="M0 0 C47.19 0 94.38 0 143 0 C134.66666667 43.33333333 134.66666667 43.33333333 132 46 C129.13998413 46.24050903 129.13998413 46.24050903 125.43896484 46.22705078 C124.76567642 46.22734283 124.092388 46.22763489 123.3986969 46.22793579 C121.16931346 46.22654047 118.94026268 46.21097016 116.7109375 46.1953125 C115.16680077 46.19158308 113.62266167 46.18873577 112.07852173 46.18673706 C108.01124557 46.17909499 103.94411189 46.15944168 99.87689209 46.1373291 C95.7278435 46.11688296 91.57877193 46.10773799 87.4296875 46.09765625 C79.28639289 46.07619625 71.14321416 46.04205349 63 46 C62.86722656 46.83144531 62.73445313 47.66289063 62.59765625 48.51953125 C62.42105469 49.60621094 62.24445313 50.69289062 62.0625 51.8125 C61.80146484 53.43091797 61.80146484 53.43091797 61.53515625 55.08203125 C61 58 61 58 60 61 C61.28569633 60.90143959 61.28569633 60.90143959 62.59736633 60.80088806 C86.75396578 59.00403101 110.91505399 58.85554968 135.12280273 58.93133545 C138.85204464 58.94183421 142.58129425 58.94618796 146.31054688 58.95117188 C153.54038428 58.96168317 160.77018574 58.97859178 168 59 C168.30004402 66.27351476 167.48086369 72.81291321 165.8828125 79.8984375 C165.6655954 80.8958194 165.4483783 81.89320129 165.22457886 82.92080688 C164.7671267 85.01095465 164.30466663 87.10001217 163.83740234 89.18798828 C163.12287993 92.38448435 162.42548307 95.58436795 161.73046875 98.78515625 C161.28224645 100.82313608 160.83306162 102.8609045 160.3828125 104.8984375 C160.17439728 105.85261566 159.96598206 106.80679382 159.75125122 107.78988647 C159.45116653 109.1224498 159.45116653 109.1224498 159.14501953 110.48193359 C158.88520798 111.64914444 158.88520798 111.64914444 158.62014771 112.8399353 C157.97112307 115.10058255 157.2106773 116.98286177 156 119 C150.46364072 121.87988209 144.21558505 121.23414383 138.140625 121.16015625 C136.97486435 121.15463745 135.8091037 121.14911865 134.60801697 121.14343262 C132.11344043 121.13110816 129.61888202 121.11450718 127.12435913 121.09402466 C120.6467858 121.04131832 114.16915452 121.01916275 107.69140625 121 C106.41675003 120.99585587 105.14209381 120.99171173 103.82881165 120.98744202 C92.29140922 120.96612216 80.77880442 121.23418409 69.25292969 121.73266602 C61.72073239 122.03465974 54.50243587 121.77374243 47 121 C46.34 124.96 45.68 128.92 45 133 C79.155 133.495 79.155 133.495 114 134 C112.87446891 144.12977984 112.87446891 144.12977984 112.125 147.68359375 C111.95097656 148.51616699 111.77695312 149.34874023 111.59765625 150.20654297 C111.40042969 151.12838379 111.20320312 152.05022461 111 153 C110.77183594 154.09070801 110.54367187 155.18141602 110.30859375 156.30517578 C109.55273476 159.89402195 108.77806205 163.47840726 108 167.0625 C107.73960937 168.29677734 107.47921875 169.53105469 107.2109375 170.80273438 C106.95570313 171.97255859 106.70046875 173.14238281 106.4375 174.34765625 C106.20933594 175.40992432 105.98117187 176.47219238 105.74609375 177.56665039 C105.49988281 178.36965576 105.25367188 179.17266113 105 180 C102.3520836 181.3239582 100.37293043 181.12288893 97.40658569 181.12025452 C96.21744064 181.12162918 95.02829559 181.12300385 93.80311584 181.12442017 C92.49185226 181.12082489 91.18058868 181.11722961 89.82958984 181.11352539 C88.44014996 181.11324343 87.05070993 181.11340142 85.66127014 181.1139679 C81.88257049 181.11425554 78.10390239 181.10836413 74.32521009 181.10139394 C70.37872444 181.09515492 66.43223811 181.09455617 62.48574829 181.09336853 C55.0094972 181.09025684 47.53326068 181.08204562 40.05701602 181.07201904 C31.54685544 181.06085289 23.03669419 181.05534619 14.52652812 181.05032361 C-2.98232326 181.03986288 -20.49115954 181.0220658 -38 181 C-37.67 176.38 -37.34 171.76 -37 167 C-36.34 167 -35.68 167 -35 167 C-34.90847656 165.86691406 -34.81695312 164.73382813 -34.72265625 163.56640625 C-33.87392286 155.92780572 -32.0674225 148.43931251 -30.4375 140.9375 C-30.10441132 139.38875922 -29.77172562 137.83993172 -29.43945312 136.29101562 C-28.63094689 132.5263273 -27.81698826 128.76285631 -27 125 C-30.3 125 -33.6 125 -37 125 C-38.11464062 120.54143752 -37.39420628 117.88204811 -36.1875 113.625 C-34.17319261 106.12248505 -32.91700092 98.72211305 -32 91 C-31.34 91 -30.68 91 -30 91 C-30.01160156 90.36191406 -30.02320313 89.72382812 -30.03515625 89.06640625 C-30.04417969 88.24011719 -30.05320312 87.41382812 -30.0625 86.5625 C-30.07410156 85.73878906 -30.08570313 84.91507812 -30.09765625 84.06640625 C-30 82 -30 82 -29 81 C-28.71693766 78.45243896 -28.55184214 75.90489978 -28.37890625 73.34765625 C-28 71 -28 71 -26 69 C-22.15899602 67.52269078 -18.04749486 67.93254175 -14 68 C-13.89405518 67.25298828 -13.78811035 66.50597656 -13.67895508 65.73632812 C-12.43851038 57.31182836 -10.86549301 48.98034538 -9.13305664 40.64648438 C-8.69391535 38.53090619 -8.26162958 36.41401275 -7.83007812 34.296875 C-5.45448465 22.7928924 -2.72428609 11.44200157 0 0 Z " fill="#DF1B22" transform="translate(432,0)"/>
<path d="M0 0 C23.1 0 46.2 0 70 0 C68.66979458 8.64633521 67.27999145 17.22933619 65.625 25.8125 C65.40875977 26.94107422 65.19251953 28.06964844 64.96972656 29.23242188 C63.74010108 35.54124923 62.38709747 41.78469591 60.75 48 C59.26000122 53.67160825 58.28166342 59.14140079 58 65 C57.34 65 56.68 65 56 65 C55.80508548 66.45736087 55.61930642 67.91594593 55.4375 69.375 C55.33308594 70.18710938 55.22867188 70.99921875 55.12109375 71.8359375 C54.81762672 74.04899186 54.81762672 74.04899186 56 76 C55.34 76 54.68 76 54 76 C53.90203125 76.69480469 53.8040625 77.38960938 53.703125 78.10546875 C52.13082189 88.79984075 50.06361249 99.39142899 48 110 C51.3 109.34 54.6 108.68 58 108 C57 116.57142857 57 116.57142857 56 120 C55.34 120 54.68 120 54 120 C54.0825 121.134375 54.165 122.26875 54.25 123.4375 C54.29939855 131.11897394 51.89963686 138.6134656 50 146 C46.01249528 147.20064402 42.21270799 148.24190388 38.0625 148.625 C36.90427734 148.73714844 36.90427734 148.73714844 35.72265625 148.8515625 C35.15417969 148.90054688 34.58570313 148.94953125 34 149 C33.835 149.845625 33.67 150.69125 33.5 151.5625 C31.40709719 156.35873562 27.99872613 158.76769638 24 162 C23.34 162.66 22.68 163.32 22 164 C-1.63347941 181.26890774 -29.00582397 180.99934535 -57.05273438 181.55761719 C-60.41813473 181.62587487 -63.78324746 181.70337462 -67.1484375 181.78125 C-69.29425931 181.82607578 -71.44009237 181.87036699 -73.5859375 181.9140625 C-74.5889389 181.93796051 -75.59194031 181.96185852 -76.62533569 181.98648071 C-78.01421494 182.0117836 -78.01421494 182.0117836 -79.43115234 182.03759766 C-80.64996597 182.06305161 -80.64996597 182.06305161 -81.8934021 182.08901978 C-84 182 -84 182 -87 181 C-86.67 177.7 -86.34 174.4 -86 171 C-87.72926874 171.31193464 -89.45841044 171.62457362 -91.1875 171.9375 C-92.15042969 172.11152344 -93.11335938 172.28554687 -94.10546875 172.46484375 C-101.45292378 173.82328011 -108.73936826 175.41023122 -115.98046875 177.25390625 C-126.04717451 179.79903727 -135.57208436 181.807215 -146 182 C-146 180.68 -146 179.36 -146 178 C-142.77473823 176.51221073 -139.5441667 175.03631893 -136.3125 173.5625 C-135.40048828 173.14162109 -134.48847656 172.72074219 -133.54882812 172.28710938 C-132.66259766 171.88427734 -131.77636719 171.48144531 -130.86328125 171.06640625 C-130.05157471 170.69459229 -129.23986816 170.32277832 -128.40356445 169.93969727 C-126 169 -126 169 -123.25854492 168.49584961 C-122.14056519 168.25040405 -122.14056519 168.25040405 -121 168 C-120.67 167.34 -120.34 166.68 -120 166 C-117.65472293 164.99789963 -115.33712021 164.10247828 -112.9375 163.25 C-111.47905544 162.71905543 -110.02072541 162.18779616 -108.5625 161.65625 C-107.8096875 161.38425781 -107.056875 161.11226562 -106.28125 160.83203125 C-104.05541737 160.02021216 -101.83908822 159.18702187 -99.625 158.34375 C-98.9225415 158.0765918 -98.22008301 157.80943359 -97.49633789 157.53417969 C-96.16165465 157.02581937 -94.82747459 156.51613521 -93.49389648 156.00488281 C-89.37051164 154.44604876 -85.24787624 153.1590087 -81 152 C-80.896875 150.783125 -80.79375 149.56625 -80.6875 148.3125 C-80.11840847 143.10819921 -78.94665723 138.09916092 -77.71875 133.015625 C-77.25691376 131.07792076 -76.8365024 129.12961569 -76.46875 127.171875 C-76 125 -76 125 -75 124 C-72.5978703 123.87683342 -70.22010337 123.81387976 -67.81640625 123.7890625 C-66.3157451 123.76095119 -64.81509423 123.73228656 -63.31445312 123.703125 C-60.95158653 123.66218002 -58.58890311 123.62529794 -56.22583008 123.59863281 C-41.52034369 123.57735553 -41.52034369 123.57735553 -28.125 118.125 C-23.10487993 110.74247048 -21.78712668 101.60998012 -20.5 92.921875 C-19.8374572 89.05014051 -18.79442711 85.33448357 -17.68359375 81.5703125 C-16.9610197 79.02326245 -16.9610197 79.02326245 -16.58691406 76.46142578 C-15.82398657 71.96193079 -14.87523017 67.51022021 -13.92578125 63.046875 C-13.71946579 62.07381409 -13.51315033 61.10075317 -13.30058289 60.09820557 C-12.86163608 58.03033151 -12.421988 55.9626062 -11.98168945 53.89501953 C-11.32958583 50.83029904 -10.68124262 47.76480078 -10.03320312 44.69921875 C-6.85525313 29.75374655 -3.4369967 14.89365235 0 0 Z " fill="#1E3276" transform="translate(146,0)"/>
<path d="M0 0 C47.19 0 94.38 0 143 0 C134.66666667 43.33333333 134.66666667 43.33333333 132 46 C129.13998413 46.24050903 129.13998413 46.24050903 125.43896484 46.22705078 C124.76567642 46.22734283 124.092388 46.22763489 123.3986969 46.22793579 C121.16931346 46.22654047 118.94026268 46.21097016 116.7109375 46.1953125 C115.16680077 46.19158308 113.62266167 46.18873577 112.07852173 46.18673706 C108.01124557 46.17909499 103.94411189 46.15944168 99.87689209 46.1373291 C95.7278435 46.11688296 91.57877193 46.10773799 87.4296875 46.09765625 C79.28639289 46.07619625 71.14321416 46.04205349 63 46 C62.86722656 46.81984375 62.73445313 47.6396875 62.59765625 48.484375 C62.33275391 50.10085937 62.33275391 50.10085937 62.0625 51.75 C61.88847656 52.81734375 61.71445312 53.8846875 61.53515625 54.984375 C61.11295829 57.36347593 60.62797116 59.66915211 60 62 C59.10692139 62.08564209 58.21384277 62.17128418 57.29370117 62.25952148 C53.97798907 62.5791576 50.66261232 62.90192081 47.34741211 63.22680664 C45.91296362 63.36673306 44.47839313 63.50541469 43.04370117 63.64282227 C40.98062273 63.84063214 38.91802556 64.0429257 36.85546875 64.24609375 C35.61434326 64.36654053 34.37321777 64.4869873 33.09448242 64.61108398 C29.97019728 64.90134582 29.97019728 64.90134582 27 66 C25.41843972 66.13610855 23.83247439 66.22419796 22.24609375 66.28125 C20.8394043 66.33732422 20.8394043 66.33732422 19.40429688 66.39453125 C18.42525391 66.42933594 17.44621094 66.46414062 16.4375 66.5 C9.9755791 66.73625168 3.57989925 67.10141313 -2.8503418 67.79052734 C-6.58069709 68.15403045 -10.25641524 68.0603804 -14 68 C-12.69696354 58.81235436 -11.02098133 49.7283198 -9.13305664 40.64648438 C-8.69391535 38.53090619 -8.26162958 36.41401275 -7.83007812 34.296875 C-5.45448465 22.7928924 -2.72428609 11.44200157 0 0 Z " fill="#1E3276" transform="translate(432,0)"/>
<path d="M0 0 C0.09170703 4.58535136 -0.23585111 8.41510669 -1 13 C33.155 13.495 33.155 13.495 68 14 C66.87446891 24.12977984 66.87446891 24.12977984 66.125 27.68359375 C65.95097656 28.51616699 65.77695312 29.34874023 65.59765625 30.20654297 C65.40042969 31.12838379 65.20320312 32.05022461 65 33 C64.77183594 34.09070801 64.54367187 35.18141602 64.30859375 36.30517578 C63.55273476 39.89402195 62.77806205 43.47840726 62 47.0625 C61.73960937 48.29677734 61.47921875 49.53105469 61.2109375 50.80273438 C60.95570313 51.97255859 60.70046875 53.14238281 60.4375 54.34765625 C60.20933594 55.40992432 59.98117187 56.47219238 59.74609375 57.56665039 C59.37677734 58.77115845 59.37677734 58.77115845 59 60 C56.3520836 61.3239582 54.37293043 61.12288893 51.40658569 61.12025452 C50.21744064 61.12162918 49.02829559 61.12300385 47.80311584 61.12442017 C46.49185226 61.12082489 45.18058868 61.11722961 43.82958984 61.11352539 C42.44014996 61.11324343 41.05070993 61.11340142 39.66127014 61.1139679 C35.88257049 61.11425554 32.10390239 61.10836413 28.32521009 61.10139394 C24.37872444 61.09515492 20.43223811 61.09455617 16.48574829 61.09336853 C9.0094972 61.09025684 1.53326068 61.08204562 -5.94298398 61.07201904 C-14.45314456 61.06085289 -22.96330581 61.05534619 -31.47347188 61.05032361 C-48.98232326 61.03986288 -66.49115954 61.0220658 -84 61 C-83.67 56.38 -83.34 51.76 -83 47 C-82.34 47 -81.68 47 -81 47 C-80.90589844 45.86433594 -80.81179688 44.72867188 -80.71484375 43.55859375 C-79.95419378 36.73413311 -78.47194085 30.04093753 -77.04370117 23.33178711 C-76.55882956 21.04519064 -76.0867848 18.75617298 -75.61523438 16.46679688 C-75.30806376 15.01025363 -75.00014828 13.55386722 -74.69140625 12.09765625 C-74.55174942 11.41437759 -74.41209259 10.73109894 -74.26820374 10.02711487 C-73.22903973 5.22903973 -73.22903973 5.22903973 -71 3 C-68.02026367 2.60522461 -68.02026367 2.60522461 -64.16796875 2.40234375 C-63.4719606 2.36342514 -62.77595245 2.32450653 -62.05885315 2.28440857 C-59.7687983 2.15920961 -57.47830695 2.04801254 -55.1875 1.9375 C-53.60641909 1.85482937 -52.02536447 1.77165452 -50.44433594 1.68798828 C-15.30156597 -0.13267254 -15.30156597 -0.13267254 0 0 Z " fill="#1E3276" transform="translate(478,120)"/>
<path d="M0 0 C2.92554635 3.77580073 3.2228665 5.71147493 3.29296875 10.44921875 C3.31875 11.48691406 3.34453125 12.52460938 3.37109375 13.59375 C2.99998726 17.03532089 2.0878788 18.87211948 0.04296875 21.63671875 C-0.94703125 22.13171875 -0.94703125 22.13171875 -1.95703125 22.63671875 C-1.95703125 24.28671875 -1.95703125 25.93671875 -1.95703125 27.63671875 C-0.96703125 27.96671875 0.02296875 28.29671875 1.04296875 28.63671875 C0.38296875 28.63671875 -0.27703125 28.63671875 -0.95703125 28.63671875 C-0.29703125 30.28671875 0.36296875 31.93671875 1.04296875 33.63671875 C1.04296875 32.64671875 1.04296875 31.65671875 1.04296875 30.63671875 C1.70296875 30.63671875 2.36296875 30.63671875 3.04296875 30.63671875 C3.01460938 29.38761719 2.98625 28.13851562 2.95703125 26.8515625 C2.95923423 21.22845503 3.64512363 15.76147426 4.41796875 10.19921875 C4.60746094 8.71131836 4.60746094 8.71131836 4.80078125 7.19335938 C4.9296875 6.24783203 5.05859375 5.30230469 5.19140625 4.328125 C5.30661621 3.47420166 5.42182617 2.62027832 5.54052734 1.74047852 C6.04296875 -0.36328125 6.04296875 -0.36328125 8.04296875 -2.36328125 C10.28955078 -2.49853516 10.28955078 -2.49853516 13.05078125 -2.33984375 C14.03691406 -2.28828125 15.02304687 -2.23671875 16.0390625 -2.18359375 C17.58787109 -2.08691406 17.58787109 -2.08691406 19.16796875 -1.98828125 C20.72837891 -1.90320313 20.72837891 -1.90320313 22.3203125 -1.81640625 C24.89520293 -1.67466916 27.46915615 -1.52323571 30.04296875 -1.36328125 C29.38296875 -1.03328125 28.72296875 -0.70328125 28.04296875 -0.36328125 C27.57645668 1.76248657 27.57645668 1.76248657 27.41796875 4.19921875 C27.34320313 5.02550781 27.2684375 5.85179687 27.19140625 6.703125 C27.11792969 7.66025391 27.11792969 7.66025391 27.04296875 8.63671875 C25.46515625 8.85328125 25.46515625 8.85328125 23.85546875 9.07421875 C20.88836326 9.51198841 17.97502509 10.01476741 15.04296875 10.63671875 C14.71296875 11.62671875 14.38296875 12.61671875 14.04296875 13.63671875 C17.67296875 13.63671875 21.30296875 13.63671875 25.04296875 13.63671875 C25.140625 20.5703125 25.140625 20.5703125 25.04296875 22.63671875 C24.04296875 23.63671875 24.04296875 23.63671875 21.5390625 23.734375 C20.52972656 23.72277344 19.52039063 23.71117187 18.48046875 23.69921875 C17.46855469 23.69019531 16.45664062 23.68117187 15.4140625 23.671875 C14.63160156 23.66027344 13.84914063 23.64867187 13.04296875 23.63671875 C12.54796875 26.11171875 12.54796875 26.11171875 12.04296875 28.63671875 C16.00296875 28.63671875 19.96296875 28.63671875 24.04296875 28.63671875 C24.04296875 27.64671875 24.04296875 26.65671875 24.04296875 25.63671875 C27.25748144 24.0294624 30.47909411 24.5792369 34.04296875 24.63671875 C34.53796875 27.60671875 34.53796875 27.60671875 35.04296875 30.63671875 C36.36296875 30.63671875 37.68296875 30.63671875 39.04296875 30.63671875 C38.15873568 26.41204962 37.06972535 24.36533386 33.54296875 22.01171875 C32.93453125 21.64820313 32.32609375 21.2846875 31.69921875 20.91015625 C29.06605118 18.88559816 28.19708183 16.73752646 27.7421875 13.48828125 C27.71570614 8.45682203 28.19132234 4.96699663 31.04296875 0.63671875 C34.24921762 -1.5007805 35.26754978 -1.65903124 38.98046875 -1.67578125 C39.83511719 -1.69253906 40.68976563 -1.70929688 41.5703125 -1.7265625 C44.54315065 -1.28979481 45.86692913 -0.40452195 48.04296875 1.63671875 C50.0847089 6.01187621 50.15384823 8.97102492 49.04296875 13.63671875 C48.54796875 12.64671875 48.54796875 12.64671875 48.04296875 11.63671875 C46.06296875 12.29671875 44.08296875 12.95671875 42.04296875 13.63671875 C42.47609375 14.0028125 42.90921875 14.36890625 43.35546875 14.74609375 C47.22153006 18.50476447 48.51892861 21.25925355 48.66796875 26.69921875 C48.40684681 31.90860155 47.56276045 34.80635719 44.04296875 38.63671875 C40.0845261 40.61594007 35.34558139 40.20555924 31.04296875 39.63671875 C28.45693052 38.23329003 27.0702392 36.82836248 25.04296875 34.63671875 C24.71296875 36.28671875 24.38296875 37.93671875 24.04296875 39.63671875 C13.48296875 39.63671875 2.92296875 39.63671875 -7.95703125 39.63671875 C-10.95703125 31.63671875 -10.95703125 31.63671875 -11.95703125 26.63671875 C-12.61703125 30.92671875 -13.27703125 35.21671875 -13.95703125 39.63671875 C-17.25703125 39.63671875 -20.55703125 39.63671875 -23.95703125 39.63671875 C-24.15695774 32.63929144 -23.57900813 26.44322886 -21.95703125 19.63671875 C-22.61703125 19.63671875 -23.27703125 19.63671875 -23.95703125 19.63671875 C-24.20453125 20.25546875 -24.45203125 20.87421875 -24.70703125 21.51171875 C-26.22924297 24.09947867 -27.124811 24.69264533 -29.95703125 25.63671875 C-31.95680852 25.66656617 -33.95729994 25.66950123 -35.95703125 25.63671875 C-36.01761719 26.47976562 -36.07820313 27.3228125 -36.140625 28.19140625 C-36.22441406 29.28710938 -36.30820312 30.3828125 -36.39453125 31.51171875 C-36.47574219 32.60226563 -36.55695313 33.6928125 -36.640625 34.81640625 C-36.95703125 37.63671875 -36.95703125 37.63671875 -37.95703125 39.63671875 C-40.92703125 39.63671875 -43.89703125 39.63671875 -46.95703125 39.63671875 C-46.36855404 30.28887126 -45.27193532 21.08640936 -43.89453125 11.82421875 C-43.70826172 10.54740234 -43.52199219 9.27058594 -43.33007812 7.95507812 C-42.87628858 4.84836507 -42.41855332 1.7422908 -41.95703125 -1.36328125 C-39.5592838 -1.4990028 -37.1692788 -1.59764993 -34.76953125 -1.67578125 C-33.75922852 -1.73862305 -33.75922852 -1.73862305 -32.72851562 -1.80273438 C-28.78319083 -1.89896181 -27.15193664 -1.51863308 -24.03125 0.96875 C-21.95703125 3.63671875 -21.95703125 3.63671875 -20.95703125 6.63671875 C-20.29703125 3.99671875 -19.63703125 1.35671875 -18.95703125 -1.36328125 C-16.39461731 -1.66739853 -13.83780563 -1.93214164 -11.26953125 -2.17578125 C-10.18768555 -2.31016602 -10.18768555 -2.31016602 -9.08398438 -2.44726562 C-4.93817828 -2.80694743 -3.29772309 -2.63556469 0 0 Z M37.04296875 7.63671875 C37.30973079 9.62163517 37.30973079 9.62163517 38.04296875 11.63671875 C39.03296875 11.96671875 40.02296875 12.29671875 41.04296875 12.63671875 C40.71296875 10.98671875 40.38296875 9.33671875 40.04296875 7.63671875 C39.05296875 7.63671875 38.06296875 7.63671875 37.04296875 7.63671875 Z M-33.95703125 8.63671875 C-33.95703125 10.94671875 -33.95703125 13.25671875 -33.95703125 15.63671875 C-32.96703125 15.30671875 -31.97703125 14.97671875 -30.95703125 14.63671875 C-30.95703125 12.65671875 -30.95703125 10.67671875 -30.95703125 8.63671875 C-31.94703125 8.63671875 -32.93703125 8.63671875 -33.95703125 8.63671875 Z M-10.95703125 8.63671875 C-10.95703125 10.61671875 -10.95703125 12.59671875 -10.95703125 14.63671875 C-9.30703125 14.30671875 -7.65703125 13.97671875 -5.95703125 13.63671875 C-5.95703125 11.98671875 -5.95703125 10.33671875 -5.95703125 8.63671875 C-7.60703125 8.63671875 -9.25703125 8.63671875 -10.95703125 8.63671875 Z M-21.95703125 13.63671875 C-20.95703125 16.63671875 -20.95703125 16.63671875 -20.95703125 16.63671875 Z " fill="#203372" transform="translate(466.95703125,200.36328125)"/>
<path d="M0 0 C0.99 2.64 1.98 5.28 3 8 C3.61875 6.845 4.2375 5.69 4.875 4.5 C6.66745324 1.91782824 7.42009643 1.10535653 10.55859375 0.53515625 C13.07095451 0.56010168 15.50686842 0.69501497 18 1 C17.43615505 5.64291078 15.38195384 9.13560756 13 13.0625 C8.90052307 19.12121025 8.90052307 19.12121025 8.48828125 26.04296875 C8.76027344 26.75066406 9.03226562 27.45835937 9.3125 28.1875 C10.96264907 32.74433367 12.02089053 37.25508487 13 42 C9.7 42 6.4 42 3 42 C3 40.68 3 39.36 3 38 C2.01 37.505 2.01 37.505 1 37 C0.67 36.67 0.34 36.34 0 36 C-0.99 37.98 -1.98 39.96 -3 42 C-13.89 42 -24.78 42 -36 42 C-36 36.20235734 -35.91817162 31.25700939 -35.16015625 25.62890625 C-35.07374374 24.98050278 -34.98733124 24.3320993 -34.89830017 23.66404724 C-34.71701144 22.31349054 -34.53288082 20.96331235 -34.34594727 19.61352539 C-34.05986137 17.54340688 -33.78418641 15.47208458 -33.50976562 13.40039062 C-32.13553656 3.27107312 -32.13553656 3.27107312 -31 1 C-24.07 1 -17.14 1 -10 1 C-10.33 4.3 -10.66 7.6 -11 11 C-13.40545638 12.20272819 -14.94996953 12.10071472 -17.625 12.0625 C-18.85089844 12.04896484 -18.85089844 12.04896484 -20.1015625 12.03515625 C-21.04128906 12.01775391 -21.04128906 12.01775391 -22 12 C-22.66 13.32 -23.32 14.64 -24 16 C-20.04 16 -16.08 16 -12 16 C-12.875 24.875 -12.875 24.875 -14 26 C-15.85287502 26.07226502 -17.70833878 26.0838122 -19.5625 26.0625 C-20.57441406 26.05347656 -21.58632813 26.04445312 -22.62890625 26.03515625 C-23.80259766 26.01775391 -23.80259766 26.01775391 -25 26 C-25.33 27.65 -25.66 29.3 -26 31 C-21.71 31 -17.42 31 -13 31 C-12.67 32.32 -12.34 33.64 -12 35 C-6.11230493 27.67292836 -6.11230493 27.67292836 -4.11181641 18.83105469 C-4.8967826 15.18744214 -6.18829479 11.82885814 -7.625 8.3984375 C-9 5 -9 5 -9 1 C-5.8035914 -0.06546953 -3.34252724 -0.07427838 0 0 Z M-14 37 C-13 39 -13 39 -13 39 Z " fill="#203373" transform="translate(406,198)"/>
<path d="M0 0 C0.25287193 6.06892629 -0.30167391 11.16200408 -2 17 C-3.32064453 17.19916016 -3.32064453 17.19916016 -4.66796875 17.40234375 C-5.82941406 17.57894531 -6.99085937 17.75554687 -8.1875 17.9375 C-9.33605469 18.11152344 -10.48460937 18.28554687 -11.66796875 18.46484375 C-19.18386861 19.67196952 -26.60569502 21.37619633 -33.98046875 23.25390625 C-44.04717451 25.79903727 -53.57208436 27.807215 -64 28 C-64 26.68 -64 25.36 -64 24 C-60.77473823 22.51221073 -57.5441667 21.03631893 -54.3125 19.5625 C-53.40048828 19.14162109 -52.48847656 18.72074219 -51.54882812 18.28710938 C-50.66259766 17.88427734 -49.77636719 17.48144531 -48.86328125 17.06640625 C-47.64572144 16.5086853 -47.64572144 16.5086853 -46.40356445 15.93969727 C-44 15 -44 15 -41.25854492 14.49584961 C-40.5132251 14.33221924 -39.76790527 14.16858887 -39 14 C-38.67 13.34 -38.34 12.68 -38 12 C-35.65475062 10.99791146 -33.33705594 10.1025731 -30.9375 9.25 C-29.48429102 8.72028242 -28.0311686 8.1903273 -26.578125 7.66015625 C-25.44987305 7.25240967 -25.44987305 7.25240967 -24.29882812 6.83642578 C-20.58335623 5.48455591 -16.88643446 4.08384028 -13.1875 2.6875 C-3.21208672 -1.07069557 -3.21208672 -1.07069557 0 0 Z " fill="#DE1C22" transform="translate(64,154)"/>
<path d="M0 0 C3.28363463 0.64361622 4.94675976 1.94894749 7.15234375 4.421875 C8.66991644 7.18109807 9.28305015 8.61585222 8.77734375 11.734375 C8.46796875 12.5696875 8.46796875 12.5696875 8.15234375 13.421875 C5.51234375 13.751875 2.87234375 14.081875 0.15234375 14.421875 C-0.17765625 12.771875 -0.50765625 11.121875 -0.84765625 9.421875 C-1.83765625 9.421875 -2.82765625 9.421875 -3.84765625 9.421875 C-1.72319014 13.67080721 0.95495661 16.12433651 4.62890625 18.9921875 C6.67040848 20.90805883 7.08394182 22.73127864 7.35546875 25.47265625 C7.4775185 31.36155651 6.55318436 35.24607951 2.91796875 40.0546875 C-0.32407047 42.5651161 -4.07965063 41.93721208 -8.01953125 41.8515625 C-10.84765625 41.421875 -10.84765625 41.421875 -13.53515625 39.046875 C-15.89308409 34.33101933 -15.93310303 31.71957531 -15.84765625 26.421875 C-10.22265625 25.296875 -10.22265625 25.296875 -6.84765625 26.421875 C-6.51765625 28.071875 -6.18765625 29.721875 -5.84765625 31.421875 C-4.85765625 31.751875 -3.86765625 32.081875 -2.84765625 32.421875 C-2.17610941 30.13845757 -2.17610941 30.13845757 -2.84765625 27.421875 C-4.55876946 26.22474039 -4.55876946 26.22474039 -6.66015625 25.171875 C-10.0643533 23.24303155 -11.58746336 21.79689761 -12.97265625 18.109375 C-14.16393557 13.46029143 -13.89676643 9.76561086 -11.84765625 5.421875 C-8.51461396 0.57381348 -5.63406045 -0.33748116 0 0 Z " fill="#203273" transform="translate(531.84765625,198.578125)"/>
<path d="M0 0 C0.99 0.33 1.98 0.66 3 1 C3.74385094 2.6229475 4.47385728 4.25413049 5.12109375 5.91796875 C6.07024924 8.16641264 7.21205842 10.20264188 8.4375 12.3125 C10.74100755 16.35751477 12.48011774 20.47861353 14.10546875 24.8359375 C15.01307205 27.2306212 15.01307205 27.2306212 17 30 C17.125 33.1875 17.125 33.1875 17 36 C13.02196343 36.52972403 9.04244026 37.0472901 5.0625 37.5625 C3.35803711 37.78969727 3.35803711 37.78969727 1.61914062 38.02148438 C0.53955078 38.16005859 -0.54003906 38.29863281 -1.65234375 38.44140625 C-2.65257568 38.57232666 -3.65280762 38.70324707 -4.68334961 38.83813477 C-5.44784424 38.89155029 -6.21233887 38.94496582 -7 39 C-7.33 38.67 -7.66 38.34 -8 38 C-7.45822347 31.39957615 -6.35857417 24.93966001 -5.125 18.4375 C-4.88330078 17.09655273 -4.88330078 17.09655273 -4.63671875 15.72851562 C-3.59398626 10.20365009 -2.1263666 5.20656051 0 0 Z " fill="#D61D28" transform="translate(277,98)"/>
<path d="M0 0 C-1 8.57142857 -1 8.57142857 -2 12 C-2.66 12 -3.32 12 -4 12 C-3.87625 13.7015625 -3.87625 13.7015625 -3.75 15.4375 C-3.70060145 23.11897394 -6.10036314 30.6134656 -8 38 C-12.07648115 39.26735155 -15.65873492 40.25665431 -19.9375 40.125 C-20.70964844 40.10695312 -21.48179687 40.08890625 -22.27734375 40.0703125 C-22.84582031 40.04710937 -23.41429687 40.02390625 -24 40 C-23.01 37.03 -23.01 37.03 -22 34 C-21.34 34 -20.68 34 -20 34 C-19.47866353 31.39570089 -18.95895986 28.79117703 -18.44677734 26.18505859 C-17.78753524 22.90781905 -17.08251009 19.64214086 -16.375 16.375 C-16.15199219 15.2303125 -15.92898437 14.085625 -15.69921875 12.90625 C-13.88338139 4.73978569 -13.88338139 4.73978569 -11.30883789 2.58374023 C-9.43359375 1.76953125 -9.43359375 1.76953125 -6 1 C-5.236875 0.773125 -4.47375 0.54625 -3.6875 0.3125 C-2 0 -2 0 0 0 Z " fill="#DA1C25" transform="translate(204,108)"/>
<path d="M0 0 C3.7292419 0.01049876 7.45849151 0.01485251 11.18774414 0.01983643 C18.41758154 0.03034772 25.647383 0.04725633 32.87719727 0.06866455 C32.87719727 0.72866455 32.87719727 1.38866455 32.87719727 2.06866455 C29.15019655 2.93431054 25.72287074 3.1856361 21.90039062 3.1663208 C20.71823471 3.16301758 19.5360788 3.15971436 18.31809998 3.15631104 C17.04725052 3.1480127 15.77640106 3.13971436 14.46704102 3.13116455 C12.45183882 3.12537673 10.4366366 3.1195949 8.42143345 3.114151 C4.17660324 3.10104958 -0.06818961 3.07898897 -4.31298828 3.05828857 C-8.47394406 3.03837625 -12.63487444 3.02280474 -16.79586601 3.01272583 C-18.7276223 3.00634727 -20.65935501 2.99377399 -22.59107971 2.98101807 C-29.2607975 2.96272278 -35.80572398 3.21970951 -42.44590759 3.84158325 C-46.07888373 4.149769 -49.64801143 4.18126615 -53.29467773 4.1663208 C-53.9879718 4.16490585 -54.68126587 4.16349091 -55.39556885 4.16203308 C-57.55469568 4.15654957 -59.71370863 4.14402208 -61.87280273 4.13116455 C-63.35978038 4.1261344 -64.84675969 4.1215742 -66.33374023 4.11749268 C-69.93012979 4.10661887 -73.52645511 4.08943975 -77.12280273 4.06866455 C-77.12280273 4.72866455 -77.12280273 5.38866455 -77.12280273 6.06866455 C-78.28851807 6.10624878 -78.28851807 6.10624878 -79.4777832 6.14459229 C-82.98463343 6.26033251 -86.49120019 6.38315807 -89.99780273 6.50616455 C-91.22112305 6.54548096 -92.44444336 6.58479736 -93.70483398 6.62530518 C-94.87143555 6.66719971 -96.03803711 6.70909424 -97.23999023 6.7522583 C-98.31877441 6.78891602 -99.39755859 6.82557373 -100.5090332 6.86334229 C-103.10349809 6.90243098 -103.10349809 6.90243098 -105.12280273 8.06866455 C-106.77962107 8.20959309 -108.44139378 8.29450389 -110.10327148 8.34991455 C-111.10293945 8.38729736 -112.10260742 8.42468018 -113.13256836 8.4631958 C-114.1812207 8.49800049 -115.22987305 8.53280518 -116.31030273 8.56866455 C-122.66600018 8.78357229 -128.82464353 9.15490284 -135.12280273 10.06866455 C-137.76791586 10.13381512 -140.41449098 10.15457881 -143.06030273 10.13116455 C-143.74415039 10.12665283 -144.42799805 10.12214111 -145.13256836 10.11749268 C-146.79601877 10.10586016 -148.45942323 10.08793149 -150.12280273 10.06866455 C-150.12280273 9.73866455 -150.12280273 9.40866455 -150.12280273 9.06866455 C-138.48436764 7.7684923 -126.90408336 6.80095724 -115.1965332 6.41070557 C-113.87419678 6.36321167 -113.87419678 6.36321167 -112.52514648 6.3147583 C-111.74647217 6.29083008 -110.96779785 6.26690186 -110.16552734 6.24224854 C-107.92179628 6.13208779 -107.92179628 6.13208779 -105.12280273 5.06866455 C-102.15605493 4.71680907 -99.19836723 4.40632193 -96.22436523 4.13116455 C-94.86896133 4.00366821 -94.86896133 4.00366821 -93.48617554 3.87359619 C-91.55452273 3.69350181 -89.62268131 3.51542118 -87.69067383 3.33917236 C-84.84815347 3.07788876 -82.00703224 2.80419235 -79.16577148 2.52960205 C-52.82129211 0.05843886 -26.43477252 -0.08275778 0 0 Z " fill="#CE2B32" transform="translate(567.122802734375,58.93133544921875)"/>
<path d="M0 0 C0.33 0 0.66 0 1 0 C1.44874739 6.17027665 0.67439752 11.84671852 -0.5625 17.875 C-0.76020996 18.99926392 -0.76020996 18.99926392 -0.96191406 20.14624023 C-1.12014648 20.85852783 -1.27837891 21.57081543 -1.44140625 22.3046875 C-1.57232666 22.94390137 -1.70324707 23.58311523 -1.83813477 24.24169922 C-3.82380811 27.24670435 -6.64427482 28.16744126 -10 29 C-13.99255168 29.37924728 -17.94996228 29.3255959 -21.95703125 29.2578125 C-23.12137695 29.25087875 -24.28572266 29.24394501 -25.48535156 29.23680115 C-27.97397746 29.22077929 -30.46256807 29.19814049 -32.95108032 29.16946411 C-39.41512706 29.09503084 -45.87937296 29.06630502 -52.34375 29.03515625 C-53.61531448 29.02792038 -54.88687897 29.02068451 -56.19697571 29.01322937 C-67.72750322 28.96223188 -79.22857177 29.2340529 -90.74731445 29.73291016 C-98.25830422 30.03357097 -105.52545392 29.82306691 -113 29 C-113.33 29.66 -113.66 30.32 -114 31 C-114 30.01 -114 29.02 -114 28 C-115.30130859 28.24556641 -115.30130859 28.24556641 -116.62890625 28.49609375 C-122.69077148 29.3620745 -128.82952184 29.10413803 -134.9375 29.0625 C-136.19369141 29.05798828 -137.44988281 29.05347656 -138.74414062 29.04882812 C-141.82947663 29.03709681 -144.91471316 29.020681 -148 29 C-148 28.67 -148 28.34 -148 28 C-139.32633599 27.22947853 -130.72732305 26.8429241 -122.02124023 26.81054688 C-120.79681717 26.80225357 -119.5723941 26.79396027 -118.31086731 26.78541565 C-115.67826203 26.76814735 -113.04570855 26.75247978 -110.41308403 26.73963928 C-106.24809399 26.7191854 -102.08316904 26.691575 -97.91822815 26.66296387 C-88.33961706 26.59820936 -78.76095866 26.54229146 -69.18228912 26.48697662 C-60.3700947 26.43605906 -51.55792464 26.38323171 -42.74579197 26.32245111 C-38.60644336 26.29417124 -34.46710261 26.27055446 -30.32770622 26.25052643 C-27.15651525 26.23399133 -23.98536775 26.21121239 -20.81420898 26.18945312 C-19.67082062 26.18526871 -18.52743225 26.18108429 -17.34939575 26.17677307 C-15.77905327 26.16425758 -15.77905327 26.16425758 -14.17698669 26.15148926 C-13.26839118 26.14633553 -12.35979567 26.14118179 -11.42366695 26.13587189 C-9.14708279 26.00824553 -7.18262486 25.63864393 -5 25 C-5.0309375 23.5459375 -5.0309375 23.5459375 -5.0625 22.0625 C-5 19 -5 19 -4 18 C-3.76807135 16.48530552 -3.58784762 14.96245438 -3.4375 13.4375 C-3.35371094 12.61121094 -3.26992188 11.78492187 -3.18359375 10.93359375 C-3.12300781 10.29550781 -3.06242188 9.65742187 -3 9 C-2.34 9 -1.68 9 -1 9 C-1.0309375 7.329375 -1.0309375 7.329375 -1.0625 5.625 C-1 2 -1 2 0 0 Z " fill="#C42934" transform="translate(592,92)"/>
<path d="M0 0 C0.25287193 6.06892629 -0.30167391 11.16200408 -2 17 C-5.96 17.33 -9.92 17.66 -14 18 C-14.495 17.01 -14.495 17.01 -15 16 C-13.56445975 15.49440092 -12.1264798 14.9957251 -10.6875 14.5 C-9.88699219 14.2215625 -9.08648437 13.943125 -8.26171875 13.65625 C-6 13 -6 13 -3 13 C-2.34 9.04 -1.68 5.08 -1 1 C-1.99 1.66 -2.98 2.32 -4 3 C-5.32458862 3.50548702 -6.6670587 3.96533669 -8.01953125 4.390625 C-21.12103515 8.61572103 -33.93770929 13.15929012 -46.125 19.58984375 C-49.73124189 21.3586662 -53.06051168 22.2908921 -57 23 C-57 23.66 -57 24.32 -57 25 C-54.69 25 -52.38 25 -50 25 C-50 24.34 -50 23.68 -50 23 C-48.85660156 22.79503906 -47.71320312 22.59007812 -46.53515625 22.37890625 C-45.04423324 22.1069769 -43.55334984 21.83483026 -42.0625 21.5625 C-41.30775391 21.42779297 -40.55300781 21.29308594 -39.77539062 21.15429688 C-36.08046826 20.75727966 -36.08046826 20.75727966 -33 19 C-31.09253992 18.59919934 -29.17322427 18.25412839 -27.25 17.9375 C-26.20328125 17.76089844 -25.1565625 17.58429688 -24.078125 17.40234375 C-21.33607748 17.04392891 -18.75967048 16.92334249 -16 17 C-16 17.99 -16 18.98 -16 20 C-17.134375 20.12375 -18.26875 20.2475 -19.4375 20.375 C-25.35912843 21.12548416 -31.07881004 22.50997989 -36.859375 23.984375 C-45.97460193 26.27415512 -54.56862977 27.70106592 -64 28 C-64 26.68 -64 25.36 -64 24 C-60.77473823 22.51221073 -57.5441667 21.03631893 -54.3125 19.5625 C-53.40048828 19.14162109 -52.48847656 18.72074219 -51.54882812 18.28710938 C-50.66259766 17.88427734 -49.77636719 17.48144531 -48.86328125 17.06640625 C-47.64572144 16.5086853 -47.64572144 16.5086853 -46.40356445 15.93969727 C-44 15 -44 15 -41.25854492 14.49584961 C-40.5132251 14.33221924 -39.76790527 14.16858887 -39 14 C-38.67 13.34 -38.34 12.68 -38 12 C-35.65475062 10.99791146 -33.33705594 10.1025731 -30.9375 9.25 C-29.48429102 8.72028242 -28.0311686 8.1903273 -26.578125 7.66015625 C-25.44987305 7.25240967 -25.44987305 7.25240967 -24.29882812 6.83642578 C-20.58335623 5.48455591 -16.88643446 4.08384028 -13.1875 2.6875 C-3.21208672 -1.07069557 -3.21208672 -1.07069557 0 0 Z " fill="#C72932" transform="translate(64,154)"/>
<path d="M0 0 C2 2 2 2 2 7 C47.87 7 93.74 7 141 7 C140.67 7.66 140.34 8.32 140 9 C93.47 9 46.94 9 -1 9 C-0.67 6.03 -0.34 3.06 0 0 Z " fill="#273976" transform="translate(395,172)"/>
<path d="M0 0 C23.43 0.33 46.86 0.66 71 1 C70.27818746 7.4963129 69.35398822 13.64486456 68 20 C67.6597515 21.6197067 67.31994907 23.23950713 66.98046875 24.859375 C65.99143654 29.57386441 64.9967651 34.28713977 64 39 C63.01 38.505 63.01 38.505 62 38 C61.66923671 31.82575186 62.90692079 26.46209093 64.4375 20.5 C64.89754961 18.67784274 65.35464571 16.8549369 65.80859375 15.03125 C66.01282959 14.23267578 66.21706543 13.43410156 66.42749023 12.61132812 C67.12271524 9.44027196 67.54089358 6.21374491 68 3 C45.89 3 23.78 3 1 3 C0.67 2.01 0.34 1.02 0 0 Z " fill="#273066" transform="translate(475,133)"/>
<path d="M0 0 C0.495 1.485 0.495 1.485 1 3 C-0.84330263 4.84330263 -3.83595652 4.18285045 -6.30810547 4.22119141 C-6.96667542 4.2326973 -7.62524536 4.24420319 -8.30377197 4.25605774 C-10.49152897 4.2928854 -12.6793152 4.32244878 -14.8671875 4.3515625 C-16.38315249 4.37466869 -17.89911318 4.39805893 -19.41506958 4.42172241 C-22.59780184 4.47024866 -25.78056 4.51516606 -28.96337891 4.55761719 C-33.04475315 4.61236188 -37.12592475 4.67620504 -41.2071209 4.74279213 C-44.34000671 4.79286532 -47.4729489 4.83799218 -50.60593033 4.88163376 C-52.11066109 4.90321314 -53.61537017 4.92636256 -55.12005234 4.9510994 C-57.22436999 4.9849722 -59.32867117 5.01216531 -61.43310547 5.03759766 C-63.23060745 5.06305161 -63.23060745 5.06305161 -65.06442261 5.08901978 C-68 5 -68 5 -71 4 C-70.67 3.01 -70.34 2.02 -70 1 C-46.9 1.33 -23.8 1.66 0 2 C0 1.34 0 0.68 0 0 Z " fill="#283977" transform="translate(259,177)"/>
<path d="M0 0 C-1 8.57142857 -1 8.57142857 -2 12 C-2.66 12 -3.32 12 -4 12 C-3.87625 13.7015625 -3.87625 13.7015625 -3.75 15.4375 C-3.70060145 23.11897394 -6.10036314 30.6134656 -8 38 C-12.07648115 39.26735155 -15.65873492 40.25665431 -19.9375 40.125 C-20.70964844 40.10695312 -21.48179687 40.08890625 -22.27734375 40.0703125 C-22.84582031 40.04710937 -23.41429687 40.02390625 -24 40 C-23.01 37.03 -23.01 37.03 -22 34 C-21.34 34 -20.68 34 -20 34 C-19.67 33.01 -19.34 32.02 -19 31 C-19.875 35.75 -19.875 35.75 -21 38 C-20.01 37.505 -20.01 37.505 -19 37 C-17.29297265 36.93003986 -15.58331997 36.91559846 -13.875 36.9375 C-12.96492187 36.94652344 -12.05484375 36.95554688 -11.1171875 36.96484375 C-10.41851562 36.97644531 -9.71984375 36.98804688 -9 37 C-9.020625 36.030625 -9.04125 35.06125 -9.0625 34.0625 C-9 31 -9 31 -8 30 C-7.76712992 28.31816052 -7.58735834 26.6287584 -7.4375 24.9375 C-7.35371094 24.01839844 -7.26992187 23.09929687 -7.18359375 22.15234375 C-7.09271484 21.08693359 -7.09271484 21.08693359 -7 20 C-6.34 20 -5.68 20 -5 20 C-5 17.03 -5 14.06 -5 11 C-4.34 11 -3.68 11 -3 11 C-3 8.36 -3 5.72 -3 3 C-3.99 3.66 -4.98 4.32 -6 5 C-8.6875 5.125 -8.6875 5.125 -11 5 C-11 5.99 -11 6.98 -11 8 C-11.66 8 -12.32 8 -13 8 C-12.67 6.35 -12.34 4.7 -12 3 C-10.37604003 2.49663233 -8.75079459 1.99741024 -7.125 1.5 C-6.22007812 1.2215625 -5.31515625 0.943125 -4.3828125 0.65625 C-2 0 -2 0 0 0 Z " fill="#B4283B" transform="translate(204,108)"/>
<path d="M0 0 C0 0.33 0 0.66 0 1 C-5.28 1 -10.56 1 -16 1 C-16 1.66 -16 2.32 -16 3 C-17.16571533 3.03758423 -17.16571533 3.03758423 -18.35498047 3.07592773 C-21.86183069 3.19166796 -25.36839745 3.31449352 -28.875 3.4375 C-30.09832031 3.47681641 -31.32164062 3.51613281 -32.58203125 3.55664062 C-33.74863281 3.59853516 -34.91523438 3.64042969 -36.1171875 3.68359375 C-37.19597168 3.72025146 -38.27475586 3.75690918 -39.38623047 3.79467773 C-41.98069536 3.83376643 -41.98069536 3.83376643 -44 5 C-45.65681833 5.14092854 -47.31859105 5.22583934 -48.98046875 5.28125 C-49.98013672 5.31863281 -50.97980469 5.35601562 -52.00976562 5.39453125 C-53.58274414 5.44673828 -53.58274414 5.44673828 -55.1875 5.5 C-61.54319745 5.71490774 -67.70184079 6.08623829 -74 7 C-76.64511313 7.06515057 -79.29168825 7.08591426 -81.9375 7.0625 C-82.62134766 7.05798828 -83.30519531 7.05347656 -84.00976562 7.04882812 C-85.67321604 7.0371956 -87.3366205 7.01926694 -89 7 C-89 6.67 -89 6.34 -89 6 C-77.36156491 4.69982775 -65.78128062 3.73229269 -54.07373047 3.34204102 C-52.75139404 3.29454712 -52.75139404 3.29454712 -51.40234375 3.24609375 C-50.62366943 3.22216553 -49.84499512 3.1982373 -49.04272461 3.17358398 C-46.79899355 3.06342324 -46.79899355 3.06342324 -44 2 C-39.82732032 1.45020027 -35.63903177 1.05510814 -31.45068359 0.64282227 C-29.40268364 0.44023841 -27.35566643 0.22930167 -25.30859375 0.01757812 C-7.00902324 -1.80878019 -7.00902324 -1.80878019 0 0 Z " fill="#B7263A" transform="translate(506,62)"/>
<path d="M0 0 C0.33 0 0.66 0 1 0 C1.44874739 6.17027665 0.67439752 11.84671852 -0.5625 17.875 C-0.76020996 18.99926392 -0.76020996 18.99926392 -0.96191406 20.14624023 C-1.12014648 20.85852783 -1.27837891 21.57081543 -1.44140625 22.3046875 C-1.57232666 22.94390137 -1.70324707 23.58311523 -1.83813477 24.24169922 C-3.81291653 27.23022165 -6.66655034 28.15258704 -10 29 C-13.73535363 29.38170994 -17.43208699 29.35026514 -21.18359375 29.29296875 C-22.76685204 29.28660149 -22.76685204 29.28660149 -24.38209534 29.28010559 C-27.73416271 29.26339049 -31.0856161 29.22575088 -34.4375 29.1875 C-36.71809024 29.17244393 -38.99868996 29.15875714 -41.27929688 29.14648438 C-46.85307202 29.1135105 -52.42649213 29.06338268 -58 29 C-58 28.67 -58 28.34 -58 28 C-56.8354126 27.97494385 -55.6708252 27.9498877 -54.47094727 27.92407227 C-50.11538269 27.82930021 -45.75995193 27.72925516 -41.40454102 27.62768555 C-39.52599232 27.58459883 -37.64741104 27.54290752 -35.76879883 27.50268555 C-33.05540178 27.44434067 -30.3421648 27.38083777 -27.62890625 27.31640625 C-26.80040665 27.29969376 -25.97190704 27.28298126 -25.11830139 27.26576233 C-18.33162395 27.09659189 -11.58195187 26.76230678 -5 25 C-5.020625 24.030625 -5.04125 23.06125 -5.0625 22.0625 C-5 19 -5 19 -4 18 C-3.76807135 16.48530552 -3.58784762 14.96245438 -3.4375 13.4375 C-3.35371094 12.61121094 -3.26992188 11.78492187 -3.18359375 10.93359375 C-3.09271484 9.97646484 -3.09271484 9.97646484 -3 9 C-2.34 9 -1.68 9 -1 9 C-1.020625 7.88625 -1.04125 6.7725 -1.0625 5.625 C-1 2 -1 2 0 0 Z " fill="#CF242A" transform="translate(592,92)"/>
<path d="M0 0 C0 0.33 0 0.66 0 1 C-10.90329313 3.11681999 -21.61755281 3.39393275 -32.6875 3.5625 C-35.29019432 3.60654004 -37.89277132 3.65312594 -40.49531555 3.70530701 C-42.10117017 3.73711075 -43.70713038 3.76404774 -45.31315613 3.78553772 C-49.28649508 3.7780095 -49.28649508 3.7780095 -53 5 C-54.44848582 5.08342159 -55.90070869 5.10732861 -57.3515625 5.09765625 C-58.20234375 5.09443359 -59.053125 5.09121094 -59.9296875 5.08789062 C-60.81914062 5.07951172 -61.70859375 5.07113281 -62.625 5.0625 C-63.5221875 5.05798828 -64.419375 5.05347656 -65.34375 5.04882812 C-67.56256648 5.03702591 -69.78125018 5.02056155 -72 5 C-71.67 4.34 -71.34 3.68 -71 3 C-19.05295606 -0.16519904 -19.05295606 -0.16519904 0 0 Z " fill="#492459" transform="translate(478,120)"/>
<path d="M0 0 C0.66 0 1.32 0 2 0 C1.67 4.95 1.34 9.9 1 15 C0.34 15 -0.32 15 -1 15 C-1 17.64 -1 20.28 -1 23 C-1.66 23 -2.32 23 -3 23 C-3 25.97 -3 28.94 -3 32 C-2.01386719 31.855625 -1.02773438 31.71125 -0.01171875 31.5625 C13.98533782 29.68619206 27.89978835 29.79592212 42 30 C42 30.33 42 30.66 42 31 C40.96069336 31.05534912 39.92138672 31.11069824 38.85058594 31.16772461 C34.98887612 31.37441412 31.12746091 31.58622014 27.26611328 31.79956055 C25.5959417 31.89112342 23.92569379 31.98130488 22.25537109 32.07006836 C19.85232404 32.19801167 17.44959673 32.33094609 15.046875 32.46484375 C14.30193787 32.50343002 13.55700073 32.5420163 12.78948975 32.58177185 C9.41203019 32.77448858 6.25301688 33.05720948 3 34 C1.58465222 34.06456879 0.16662311 34.08611039 -1.25 34.0625 C-3.10625 34.0315625 -3.10625 34.0315625 -5 34 C-6.59634991 29.99387347 -5.3090345 26.58157702 -4.1875 22.625 C-2.17319261 15.12248505 -0.91700092 7.72211305 0 0 Z " fill="#B42B43" transform="translate(400,91)"/>
<path d="M0 0 C0.99 0 1.98 0 3 0 C2.85978195 2.64624284 2.71310224 5.29184578 2.5625 7.9375 C2.50352539 9.06961914 2.50352539 9.06961914 2.44335938 10.22460938 C2.11328125 15.88671875 2.11328125 15.88671875 1 17 C0.63272554 18.49205247 0.3050154 19.99398648 0 21.5 C-0.88888889 25.88888889 -0.88888889 25.88888889 -2 27 C22.75 27.495 22.75 27.495 48 28 C48 28.33 48 28.66 48 29 C41.07673941 29.16815987 34.15332371 29.32806257 27.22973633 29.48217773 C24.87357242 29.53560512 22.51745087 29.59093504 20.16137695 29.64819336 C16.77825046 29.73008339 13.39503154 29.80516966 10.01171875 29.87890625 C8.42722176 29.91945885 8.42722176 29.91945885 6.81071472 29.96083069 C5.82992447 29.98092697 4.84913422 30.00102325 3.83862305 30.02172852 C2.97480515 30.04171402 2.11098724 30.06169952 1.22099304 30.08229065 C-1 30 -1 30 -4 29 C-3.67 25.7 -3.34 22.4 -3 19 C-2.34 19 -1.68 19 -1 19 C-0.03794912 12.62641289 0.10655578 6.44070471 0 0 Z " fill="#253574" transform="translate(63,152)"/>
<path d="M0 0 C0.93134766 0.00322266 1.86269531 0.00644531 2.82226562 0.00976562 C4.26182617 0.02233398 4.26182617 0.02233398 5.73046875 0.03515625 C6.70951172 0.03966797 7.68855469 0.04417969 8.69726562 0.04882812 C11.10422986 0.06056941 13.51106732 0.07699206 15.91796875 0.09765625 C15.91796875 0.42765625 15.91796875 0.75765625 15.91796875 1.09765625 C15.02489014 1.18329834 14.13181152 1.26894043 13.21166992 1.35717773 C9.89595782 1.67681385 6.58058107 1.99957706 3.26538086 2.32446289 C1.83093237 2.46438931 0.39636188 2.60307094 -1.03833008 2.74047852 C-3.10140852 2.93828839 -5.16400569 3.14058195 -7.2265625 3.34375 C-8.46768799 3.46419678 -9.70881348 3.58464355 -10.98754883 3.70874023 C-14.11183397 3.99900207 -14.11183397 3.99900207 -17.08203125 5.09765625 C-18.78219969 5.17943739 -20.48539422 5.20515126 -22.1875 5.1953125 C-23.17041016 5.19208984 -24.15332031 5.18886719 -25.16601562 5.18554688 C-26.19017578 5.17716797 -27.21433594 5.16878906 -28.26953125 5.16015625 C-29.30529297 5.15564453 -30.34105469 5.15113281 -31.40820312 5.14648438 C-33.96620391 5.13469635 -36.52408858 5.1182414 -39.08203125 5.09765625 C-39.08203125 4.76765625 -39.08203125 4.43765625 -39.08203125 4.09765625 C-30.42080663 2.84820788 -21.84832418 1.8430506 -13.10546875 1.34375 C-10.17343072 1.17101996 -10.17343072 1.17101996 -7.71069336 0.58837891 C-5.06957054 0.09533006 -2.68323142 -0.01646154 0 0 Z " fill="#51265A" transform="translate(476.08203125,60.90234375)"/>
<path d="M0 0 C1.28825684 0.01047363 2.57651367 0.02094727 3.90380859 0.03173828 C4.93167984 0.03598312 4.93167984 0.03598312 5.98031616 0.04031372 C8.17113636 0.05151797 10.36154925 0.07662219 12.55224609 0.10205078 C14.03661519 0.1120803 15.5209907 0.1212062 17.00537109 0.12939453 C20.6461287 0.15145784 24.28664766 0.18598903 27.92724609 0.22705078 C27.92724609 0.88705078 27.92724609 1.54705078 27.92724609 2.22705078 C21.19540196 3.10391663 14.6487093 3.35092275 7.86474609 3.28955078 C6.90375 3.28503906 5.94275391 3.28052734 4.95263672 3.27587891 C2.61077188 3.26422784 0.26904428 3.24787104 -2.07275391 3.22705078 C-2.07275391 3.88705078 -2.07275391 4.54705078 -2.07275391 5.22705078 C-2.73275391 5.22705078 -3.39275391 5.22705078 -4.07275391 5.22705078 C-4.40275391 4.23705078 -4.73275391 3.24705078 -5.07275391 2.22705078 C-3.07275391 0.22705078 -3.07275391 0.22705078 0 0 Z " fill="#243269" transform="translate(74.07275390625,123.77294921875)"/>
<path d="M0 0 C1.5 1.125 1.5 1.125 3 3 C3.06012319 4.9990961 3.06500629 7.00105673 3 9 C-0.97803657 9.52972403 -4.95755974 10.0472901 -8.9375 10.5625 C-10.64196289 10.78969727 -10.64196289 10.78969727 -12.38085938 11.02148438 C-13.46044922 11.16005859 -14.54003906 11.29863281 -15.65234375 11.44140625 C-16.65257568 11.57232666 -17.65280762 11.70324707 -18.68334961 11.83813477 C-19.44784424 11.89155029 -20.21233887 11.94496582 -21 12 C-21.33 11.67 -21.66 11.34 -22 11 C-21.91062197 9.47480724 -21.75462854 7.95318071 -21.5625 6.4375 C-21.46066406 5.61121094 -21.35882813 4.78492188 -21.25390625 3.93359375 C-21.17011719 3.29550781 -21.08632813 2.65742187 -21 2 C-20.67 2 -20.34 2 -20 2 C-20 4.31 -20 6.62 -20 9 C-19.34 8.67 -18.68 8.34 -18 8 C-14.83214869 7.76874318 -11.67150456 7.60551721 -8.49804688 7.48242188 C-4.84598193 7.29284358 -3.11459015 7.07639343 0 5 C0.25030977 2.41619823 0.25030977 2.41619823 0 0 Z " fill="#C92830" transform="translate(291,125)"/>
<path d="M0 0 C0.66 0 1.32 0 2 0 C2.29530838 6.49678438 1.17293889 12.6221448 0 19 C-0.66 19 -1.32 19 -2 19 C-1.979375 20.299375 -1.95875 21.59875 -1.9375 22.9375 C-1.91600546 24.29165633 -1.92851801 25.64756083 -2 27 C-2.33 27.33 -2.66 27.66 -3 28 C-3.13101137 29.43530239 -3.23007469 30.87358964 -3.3125 32.3125 C-3.64156321 35.75669494 -3.82010262 36.77649113 -6.0625 39.5625 C-6.701875 40.036875 -7.34125 40.51125 -8 41 C-8.33 40.34 -8.66 39.68 -9 39 C-8.34 39 -7.68 39 -7 39 C-5.51143689 30.35366532 -4.20833922 21.68975867 -3 13 C-2.34 13 -1.68 13 -1 13 C-0.67 8.71 -0.34 4.42 0 0 Z " fill="#4D265A" transform="translate(203,107)"/>
<path d="M0 0 C2.42476881 3.63715321 2.0515798 4.40836685 1.25 8.5625 C1.05148437 9.62082031 0.85296875 10.67914063 0.6484375 11.76953125 C0.32746094 13.36861328 0.32746094 13.36861328 0 15 C-0.19335938 15.99386719 -0.38671875 16.98773438 -0.5859375 18.01171875 C-1.0450522 20.34388834 -1.51604145 22.67288018 -2 25 C-2.66 25 -3.32 25 -4 25 C-4.33 25.66 -4.66 26.32 -5 27 C-5.09765625 20.84765625 -5.09765625 20.84765625 -5 19 C-4.67 18.67 -4.34 18.34 -4 18 C-3.79395915 16.67218122 -3.6337041 15.33704105 -3.5 14 C-3.11111111 10.11111111 -3.11111111 10.11111111 -2 9 C-1.79395915 7.67218122 -1.6337041 6.33704105 -1.5 5 C-1.11111111 1.11111111 -1.11111111 1.11111111 0 0 Z " fill="#CE262D" transform="translate(598,63)"/>
<path d="M0 0 C1.47906892 -0.02689216 2.95827483 -0.04634621 4.4375 -0.0625 C5.26121094 -0.07410156 6.08492188 -0.08570313 6.93359375 -0.09765625 C9 0 9 0 10 1 C10.125 4.5 10.125 4.5 10 8 C9 9 9 9 6.27734375 9.09765625 C4.62412109 9.08025391 4.62412109 9.08025391 2.9375 9.0625 C1.83277344 9.05347656 0.72804688 9.04445312 -0.41015625 9.03515625 C-1.69212891 9.01775391 -1.69212891 9.01775391 -3 9 C-2.67 8.01 -2.34 7.02 -2 6 C1.3 6 4.6 6 8 6 C8 4.35 8 2.7 8 1 C5.36 1 2.72 1 0 1 C0 0.67 0 0.34 0 0 Z " fill="#213169" transform="translate(383,215)"/>
<path d="M0 0 C3.3 0 6.6 0 10 0 C11.36623674 2.73247348 11.128426 4.98198902 11 8 C10 9 10 9 7.49609375 9.09765625 C5.98208984 9.08025391 5.98208984 9.08025391 4.4375 9.0625 C3.42558594 9.05347656 2.41367187 9.04445312 1.37109375 9.03515625 C0.58863281 9.02355469 -0.19382812 9.01195312 -1 9 C-1.33 9.66 -1.66 10.32 -2 11 C-2 9.68 -2 8.36 -2 7 C1.3 7 4.6 7 8 7 C8 5.02 8 3.04 8 1 C5.36 1 2.72 1 0 1 C0 0.67 0 0.34 0 0 Z " fill="#213167" transform="translate(481,215)"/>
<path d="M0 0 C0 0.33 0 0.66 0 1 C-2.64 1 -5.28 1 -8 1 C-8.10957031 2.10859375 -8.21914063 3.2171875 -8.33203125 4.359375 C-8.49152762 5.82298873 -8.65172049 7.28652667 -8.8125 8.75 C-8.88275391 9.47960937 -8.95300781 10.20921875 -9.02539062 10.9609375 C-9.49812196 15.12097328 -10.05788776 17.93697904 -13 21 C-13.09765625 14.84765625 -13.09765625 14.84765625 -13 13 C-12.67 12.67 -12.34 12.34 -12 12 C-11.71693766 9.45243896 -11.55184214 6.90489978 -11.37890625 4.34765625 C-11 2 -11 2 -9 0 C-5.7295226 -1.24052591 -3.35038257 -0.83759564 0 0 Z " fill="#992844" transform="translate(415,69)"/>
<path d="M0 0 C0.99 0 1.98 0 3 0 C2.85978195 2.64624284 2.71310224 5.29184578 2.5625 7.9375 C2.50352539 9.06961914 2.50352539 9.06961914 2.44335938 10.22460938 C2.11328125 15.88671875 2.11328125 15.88671875 1 17 C0.60851239 18.51165654 0.26027543 20.03469632 -0.0625 21.5625 C-0.23910156 22.38878906 -0.41570313 23.21507812 -0.59765625 24.06640625 C-0.73042969 24.70449219 -0.86320312 25.34257812 -1 26 C-3 24 -3 24 -3.125 21.375 C-3.08375 20.59125 -3.0425 19.8075 -3 19 C-2.34 19 -1.68 19 -1 19 C-0.03794912 12.62641289 0.10655578 6.44070471 0 0 Z " fill="#2F3069" transform="translate(63,152)"/>
<path d="M0 0 C0.66 0 1.32 0 2 0 C2 1.65 2 3.3 2 5 C2.66 5 3.32 5 4 5 C4.65134925 6.56020867 5.29582964 8.12328579 5.9375 9.6875 C6.47697266 10.99267578 6.47697266 10.99267578 7.02734375 12.32421875 C7.9570312 14.88179265 8.54162625 17.3221323 9 20 C3.8256681 15.74965594 1.19353994 9.47583313 0.25 2.9375 C0.1675 1.968125 0.085 0.99875 0 0 Z " fill="#2D3068" transform="translate(293,127)"/>
<path d="M0 0 C0.66 0.33 1.32 0.66 2 1 C1.25339288 6.72398793 0.17122859 12.34853777 -1 18 C-1.99 17.67 -2.98 17.34 -4 17 C-2.68 11.39 -1.36 5.78 0 0 Z " fill="#25336D" transform="translate(69,130)"/>
<path d="M0 0 C0.66 0 1.32 0 2 0 C1.67 4.95 1.34 9.9 1 15 C0.34 15 -0.32 15 -1 15 C-1 17.64 -1 20.28 -1 23 C-1.99 23.33 -2.98 23.66 -4 24 C-3.87882812 23.44054687 -3.75765625 22.88109375 -3.6328125 22.3046875 C-2.08807759 14.91372508 -1.01319646 7.48040791 0 0 Z " fill="#A42743" transform="translate(400,91)"/>
<path d="M0 0 C0.66 0.33 1.32 0.66 2 1 C2.15887802 5.40886502 1.63526218 9.11776684 0.5 13.375 C0.2215625 14.43460938 -0.056875 15.49421875 -0.34375 16.5859375 C-0.5603125 17.38257813 -0.776875 18.17921875 -1 19 C-1.66 18.67 -2.32 18.34 -3 18 C-2.41509121 11.85845775 -1.45933748 5.99320151 0 0 Z " fill="#26336D" transform="translate(403,135)"/>
<path d="M0 0 C0.66 0.33 1.32 0.66 2 1 C1.48517081 6.852795 0.54642808 12.3297637 -1 18 C-1.66 18 -2.32 18 -3 18 C-2.41509121 11.85845775 -1.45933748 5.99320151 0 0 Z " fill="#26326B" transform="translate(423,41)"/>
<path d="M0 0 C1.134375 0.020625 2.26875 0.04125 3.4375 0.0625 C3.4375 0.7225 3.4375 1.3825 3.4375 2.0625 C-0.13600041 2.88148622 -3.41909479 3.18061958 -7.08203125 3.16015625 C-8.10361328 3.15693359 -9.12519531 3.15371094 -10.17773438 3.15039062 C-11.23283203 3.14201172 -12.28792969 3.13363281 -13.375 3.125 C-14.44943359 3.12048828 -15.52386719 3.11597656 -16.63085938 3.11132812 C-19.27479683 3.09957729 -21.91861952 3.08314787 -24.5625 3.0625 C-24.5625 2.7325 -24.5625 2.4025 -24.5625 2.0625 C-23.96187744 2.03744385 -23.36125488 2.0123877 -22.74243164 1.98657227 C-20.03638563 1.8709472 -17.33071717 1.74807064 -14.625 1.625 C-13.67947266 1.58568359 -12.73394531 1.54636719 -11.75976562 1.50585938 C-10.86064453 1.46396484 -9.96152344 1.42207031 -9.03515625 1.37890625 C-8.20250244 1.34224854 -7.36984863 1.30559082 -6.51196289 1.26782227 C-3.34895611 0.93468655 -3.84337995 0.06742772 0 0 Z " fill="#D32329" transform="translate(596.5625,58.9375)"/>
<path d="M0 0 C0.66 0.66 1.32 1.32 2 2 C1.79840966 4.4190841 1.46922026 6.62807006 1 9 C0.82855469 9.88558594 0.65710938 10.77117188 0.48046875 11.68359375 C-0.00089949 14.12506574 -0.49501381 16.56331904 -1 19 C-1.66 18.67 -2.32 18.34 -3 18 C-2.6889315 15.93728361 -2.37608484 13.87483534 -2.0625 11.8125 C-1.88847656 10.66394531 -1.71445312 9.51539063 -1.53515625 8.33203125 C-1.08620687 5.53674788 -0.57917838 2.77066414 0 0 Z " fill="#25336C" transform="translate(427,22)"/>
<path d="M0 0 C0.33 0 0.66 0 1 0 C1 2.64 1 5.28 1 8 C2.98 8 4.96 8 7 8 C7 8.66 7 9.32 7 10 C4.36 10 1.72 10 -1 10 C-2.46726798 6.18510326 -1.43336419 3.70988378 0 0 Z " fill="#B0263A" transform="translate(396,115)"/>
<path d="M0 0 C0.33 0 0.66 0 1 0 C0.8858134 1.93816735 0.75826577 3.87555099 0.625 5.8125 C0.55539063 6.89144531 0.48578125 7.97039062 0.4140625 9.08203125 C0 12 0 12 -2 15 C-3.30252991 10.36878255 -2.84266121 6.67293943 -2 2 C-1.34 1.34 -0.68 0.68 0 0 Z " fill="#24346C" transform="translate(209,82)"/>
<path d="M0 0 C0.66 0 1.32 0 2 0 C1.85851011 1.6045556 1.71164314 3.20863767 1.5625 4.8125 C1.48128906 5.70582031 1.40007812 6.59914063 1.31640625 7.51953125 C1 10 1 10 0 13 C-0.66 13 -1.32 13 -2 13 C-1.85915204 11.20793453 -1.71216299 9.41635083 -1.5625 7.625 C-1.48128906 6.62726562 -1.40007812 5.62953125 -1.31640625 4.6015625 C-1 2 -1 2 0 0 Z " fill="#26326B" transform="translate(492,48)"/>
<path d="M0 0 C2 2 2 2 2.046875 3.98828125 C1.49925341 8.27558189 0.90566194 12.06163199 -1 16 C-2.22602512 12.32192463 -1.70295577 10.11756073 -1.0625 6.3125 C-0.86785156 5.13300781 -0.67320312 3.95351563 -0.47265625 2.73828125 C-0.31667969 1.83464844 -0.16070313 0.93101563 0 0 Z " fill="#26336F" transform="translate(568,20)"/>
<path d="M0 0 C1.65322266 0.01740234 1.65322266 0.01740234 3.33984375 0.03515625 C4.99693359 0.04869141 4.99693359 0.04869141 6.6875 0.0625 C7.54214844 0.07410156 8.39679688 0.08570313 9.27734375 0.09765625 C8.94734375 0.75765625 8.61734375 1.41765625 8.27734375 2.09765625 C7.35501953 2.02804688 7.35501953 2.02804688 6.4140625 1.95703125 C3.979892 1.84832826 1.69797973 1.80580652 -0.72265625 2.09765625 C-2.84621192 3.92037552 -2.84621192 3.92037552 -3.72265625 6.09765625 C-3.76537725 4.4315372 -3.76329457 2.7638274 -3.72265625 1.09765625 C-2.72265625 0.09765625 -2.72265625 0.09765625 0 0 Z " fill="#283A77" transform="translate(384.72265625,207.90234375)"/>
<path d="M0 0 C0.33 0 0.66 0 1 0 C0.48446121 6.49850211 -0.46667709 12.66226532 -2 19 C-2.33 19 -2.66 19 -3 19 C-3.02688151 17.35425434 -3.04634123 15.70838587 -3.0625 14.0625 C-3.07410156 13.14597656 -3.08570313 12.22945312 -3.09765625 11.28515625 C-3 9 -3 9 -2 8 C-1.835 6.845 -1.67 5.69 -1.5 4.5 C-1 1 -1 1 0 0 Z " fill="#44255C" transform="translate(398,100)"/>
<path d="M0 0 C1.9375 1.5 1.9375 1.5 2.6875 5.125 C2.77 6.23875 2.8525 7.3525 2.9375 8.5 C2.2775 8.17 1.6175 7.84 0.9375 7.5 C0.3125 5.4375 0.3125 5.4375 -0.0625 3.5 C-0.7225 3.5 -1.3825 3.5 -2.0625 3.5 C-2.3925 5.15 -2.7225 6.8 -3.0625 8.5 C-3.3925 8.5 -3.7225 8.5 -4.0625 8.5 C-4.0625 5.86 -4.0625 3.22 -4.0625 0.5 C-2.0625 -0.5 -2.0625 -0.5 0 0 Z " fill="#56285A" transform="translate(279.0625,95.5)"/>
<path d="M0 0 C1.5 1.125 1.5 1.125 3 3 C3.1875 6.1875 3.1875 6.1875 3 9 C0.03 8.505 0.03 8.505 -3 8 C-2.2575 7.4121875 -2.2575 7.4121875 -1.5 6.8125 C0.45593143 4.44908285 0.24207973 2.98564997 0 0 Z " fill="#B52537" transform="translate(291,125)"/>
<path d="M0 0 C1.98 0 3.96 0 6 0 C5.67 3.63 5.34 7.26 5 11 C2.43312633 7.1496895 3.16711276 5.41430237 4 1 C2.68 0.67 1.36 0.34 0 0 Z " fill="#2B306B" transform="translate(472,121)"/>
<path d="M0 0 C0.99 0 1.98 0 3 0 C2.91321237 2.29239061 2.80504727 4.5839807 2.6875 6.875 C2.62949219 8.15117187 2.57148437 9.42734375 2.51171875 10.7421875 C2.34285156 11.81726563 2.17398438 12.89234375 2 14 C1.01 14.66 0.02 15.32 -1 16 C-0.83628906 15.29488281 -0.67257813 14.58976563 -0.50390625 13.86328125 C0.01699824 10.90341312 0.09866732 8.18938727 0.0625 5.1875 C0.05347656 4.21167969 0.04445312 3.23585937 0.03515625 2.23046875 C0.02355469 1.49441406 0.01195312 0.75835937 0 0 Z " fill="#6E2A53" transform="translate(63,152)"/>
<path d="M0 0 C0.66 0 1.32 0 2 0 C2 1.65 2 3.3 2 5 C2.66 5 3.32 5 4 5 C3.34 6.32 2.68 7.64 2 9 C2 8.34 2 7.68 2 7 C1.34 7 0.68 7 0 7 C0 4.69 0 2.38 0 0 Z " fill="#273871" transform="translate(444,207)"/>
<path d="M0 0 C0.66 0 1.32 0 2 0 C1.67 3.3 1.34 6.6 1 10 C0.34 9.67 -0.32 9.34 -1 9 C-0.67 6.03 -0.34 3.06 0 0 Z " fill="#30326A" transform="translate(405,125)"/>
<path d="M0 0 C0.66 0.33 1.32 0.66 2 1 C2 3.31 2 5.62 2 8 C1.01 8.495 1.01 8.495 0 9 C-0.66 8.34 -1.32 7.68 -2 7 C-1.34 4.69 -0.68 2.38 0 0 Z " fill="#24336C" transform="translate(429,13)"/>
<path d="M0 0 C0.66 0.33 1.32 0.66 2 1 C2.125 3.875 2.125 3.875 2 7 C1.34 7.66 0.68 8.32 0 9 C-0.84454356 5.62182575 -1.10844919 3.32534757 0 0 Z " fill="#25336B" transform="translate(399,154)"/>
<path d="M0 0 C0.33 0 0.66 0 1 0 C1.25 2.75 1.25 2.75 1 6 C-1 8.375 -1 8.375 -3 10 C-3.33 9.34 -3.66 8.68 -4 8 C-3.34 8 -2.68 8 -2 8 C-1.855625 6.865625 -1.71125 5.73125 -1.5625 4.5625 C-1 1 -1 1 0 0 Z " fill="#4A265A" transform="translate(198,138)"/>
<path d="M0 0 C0.33 0 0.66 0 1 0 C1 2.31 1 4.62 1 7 C1.66 7 2.32 7 3 7 C3 7.66 3 8.32 3 9 C2.01 9.33 1.02 9.66 0 10 C-0.33 9.67 -0.66 9.34 -1 9 C-0.91062197 7.47480724 -0.75462854 5.95318071 -0.5625 4.4375 C-0.46066406 3.61121094 -0.35882813 2.78492188 -0.25390625 1.93359375 C-0.17011719 1.29550781 -0.08632813 0.65742187 0 0 Z " fill="#B02C44" transform="translate(270,127)"/>
<path d="M0 0 C3 1 3 1 3 1 Z " fill="#1D3070" transform="translate(368,202)"/>
<path d="M0 0 C0.66 0 1.32 0 2 0 C1.67 0.66 1.34 1.32 1 2 C0.67 1.34 0.34 0.68 0 0 Z " fill="#2B3977" transform="translate(107,182)"/>
<path d="" fill="#392D67" transform="translate(0,0)"/>
<path d="M0 0 C0.99 0.495 0.99 0.495 2 1 C1.01 1.495 1.01 1.495 0 2 C0 1.34 0 0.68 0 0 Z " fill="#1E3073" transform="translate(208,58)"/>
<path d="" fill="#1D2E6A" transform="translate(0,0)"/>
<path d="" fill="#1D2E6A" transform="translate(0,0)"/>
<path d="" fill="#1C2E6E" transform="translate(0,0)"/>
<path d="" fill="#1D306F" transform="translate(0,0)"/>
<path d="M0 0 C2 1 2 1 2 1 Z " fill="#1D2F6D" transform="translate(540,183)"/>
<path d="" fill="#3C2C62" transform="translate(0,0)"/>
<path d="" fill="#25316B" transform="translate(0,0)"/>
<path d="M0 0 C2 1 2 1 2 1 Z " fill="#422B63" transform="translate(395,137)"/>
<path d="" fill="#9C2038" transform="translate(0,0)"/>
<path d="" fill="#292F6E" transform="translate(0,0)"/>
<path d="" fill="#203071" transform="translate(0,0)"/>
<path d="M0 0 C2 1 2 1 2 1 Z " fill="#77254B" transform="translate(495,58)"/>
<path d="M0 0 C2 1 2 1 2 1 Z " fill="#1D3072" transform="translate(215,29)"/>
<path d="" fill="#243678" transform="translate(0,0)"/>
<path d="" fill="#1C2C64" transform="translate(0,0)"/>
<path d="" fill="#20306A" transform="translate(0,0)"/>
<path d="" fill="#24346C" transform="translate(0,0)"/>
<path d="" fill="#1D2E69" transform="translate(0,0)"/>
<path d="" fill="#233470" transform="translate(0,0)"/>
<path d="" fill="#1C2D6D" transform="translate(0,0)"/>
<path d="" fill="#21336D" transform="translate(0,0)"/>
<path d="" fill="#23336E" transform="translate(0,0)"/>
<path d="" fill="#263873" transform="translate(0,0)"/>
<path d="" fill="#1C2D6C" transform="translate(0,0)"/>
<path d="" fill="#28366B" transform="translate(0,0)"/>
<path d="" fill="#22326D" transform="translate(0,0)"/>
<path d="" fill="#1E306F" transform="translate(0,0)"/>
<path d="" fill="#24346F" transform="translate(0,0)"/>
<path d="" fill="#1E3070" transform="translate(0,0)"/>
<path d="" fill="#1D2F6F" transform="translate(0,0)"/>
<path d="" fill="#21336E" transform="translate(0,0)"/>
<path d="" fill="#23336E" transform="translate(0,0)"/>
<path d="" fill="#23346F" transform="translate(0,0)"/>
<path d="" fill="#243471" transform="translate(0,0)"/>
<path d="" fill="#1D2E6A" transform="translate(0,0)"/>
<path d="" fill="#25346A" transform="translate(0,0)"/>
<path d="" fill="#1C2C66" transform="translate(0,0)"/>
<path d="" fill="#2B3E7A" transform="translate(0,0)"/>
<path d="" fill="#253570" transform="translate(0,0)"/>
<path d="" fill="#1C2D67" transform="translate(0,0)"/>
<path d="" fill="#1F306D" transform="translate(0,0)"/>
<path d="" fill="#1D2F6D" transform="translate(0,0)"/>
<path d="" fill="#243571" transform="translate(0,0)"/>
<path d="" fill="#263777" transform="translate(0,0)"/>
<path d="" fill="#253672" transform="translate(0,0)"/>
<path d="" fill="#26356B" transform="translate(0,0)"/>
<path d="" fill="#1D306E" transform="translate(0,0)"/>
<path d="" fill="#203270" transform="translate(0,0)"/>
<path d="" fill="#2D3E76" transform="translate(0,0)"/>
<path d="" fill="#22336E" transform="translate(0,0)"/>
<path d="" fill="#22346E" transform="translate(0,0)"/>
<path d="" fill="#253369" transform="translate(0,0)"/>
<path d="" fill="#22346F" transform="translate(0,0)"/>
<path d="" fill="#22336E" transform="translate(0,0)"/>
<path d="" fill="#1D3070" transform="translate(0,0)"/>
<path d="" fill="#1B2D68" transform="translate(0,0)"/>
<path d="" fill="#253671" transform="translate(0,0)"/>
<path d="" fill="#293A71" transform="translate(0,0)"/>
<path d="" fill="#1C2E6F" transform="translate(0,0)"/>
<path d="" fill="#1D2F6D" transform="translate(0,0)"/>
<path d="" fill="#1B2D68" transform="translate(0,0)"/>
<path d="" fill="#1D2F6E" transform="translate(0,0)"/>
<path d="" fill="#1B2D68" transform="translate(0,0)"/>
<path d="" fill="#1D306E" transform="translate(0,0)"/>
<path d="" fill="#1D306F" transform="translate(0,0)"/>
<path d="" fill="#1D2F6C" transform="translate(0,0)"/>
<path d="" fill="#1D2F6E" transform="translate(0,0)"/>
<path d="" fill="#1B2D68" transform="translate(0,0)"/>
<path d="" fill="#1D2F6D" transform="translate(0,0)"/>
<path d="" fill="#1B2D68" transform="translate(0,0)"/>
<path d="" fill="#1B2D68" transform="translate(0,0)"/>
<path d="" fill="#1D2F6D" transform="translate(0,0)"/>
<path d="" fill="#1D2F6D" transform="translate(0,0)"/>
<path d="" fill="#1D306E" transform="translate(0,0)"/>
<path d="" fill="#1D2F6E" transform="translate(0,0)"/>
<path d="" fill="#1B2D68" transform="translate(0,0)"/>
<path d="" fill="#1D2F6D" transform="translate(0,0)"/>
<path d="" fill="#1B2D68" transform="translate(0,0)"/>
<path d="" fill="#1B2D69" transform="translate(0,0)"/>
<path d="" fill="#1B2D68" transform="translate(0,0)"/>
<path d="" fill="#1D2F6D" transform="translate(0,0)"/>
<path d="" fill="#1D2F6D" transform="translate(0,0)"/>
<path d="" fill="#1D306E" transform="translate(0,0)"/>
<path d="" fill="#1B2D68" transform="translate(0,0)"/>
<path d="" fill="#1D2F6E" transform="translate(0,0)"/>
<path d="" fill="#212F6E" transform="translate(0,0)"/>
<path d="" fill="#3B2E67" transform="translate(0,0)"/>
<path d="" fill="#B62130" transform="translate(0,0)"/>
<path d="" fill="#272F6D" transform="translate(0,0)"/>
<path d="" fill="#303A75" transform="translate(0,0)"/>
<path d="" fill="#C23342" transform="translate(0,0)"/>
<path d="" fill="#2C3870" transform="translate(0,0)"/>
<path d="" fill="#202F73" transform="translate(0,0)"/>
<path d="" fill="#223271" transform="translate(0,0)"/>
<path d="" fill="#5F264C" transform="translate(0,0)"/>
<path d="" fill="#273672" transform="translate(0,0)"/>
<path d="" fill="#253570" transform="translate(0,0)"/>
<path d="" fill="#2B3670" transform="translate(0,0)"/>
<path d="" fill="#263370" transform="translate(0,0)"/>
<path d="" fill="#25346F" transform="translate(0,0)"/>
<path d="" fill="#332A5E" transform="translate(0,0)"/>
<path d="" fill="#BD1C22" transform="translate(0,0)"/>
<path d="" fill="#272C66" transform="translate(0,0)"/>
<path d="" fill="#B81D24" transform="translate(0,0)"/>
<path d="" fill="#253471" transform="translate(0,0)"/>
<path d="" fill="#4B3467" transform="translate(0,0)"/>
<path d="" fill="#293473" transform="translate(0,0)"/>
<path d="" fill="#2E2D68" transform="translate(0,0)"/>
<path d="" fill="#272F6D" transform="translate(0,0)"/>
<path d="" fill="#2A3272" transform="translate(0,0)"/>
<path d="" fill="#262E6C" transform="translate(0,0)"/>
<path d="" fill="#272F6D" transform="translate(0,0)"/>
<path d="" fill="#283072" transform="translate(0,0)"/>
<path d="" fill="#9B344A" transform="translate(0,0)"/>
<path d="" fill="#252C68" transform="translate(0,0)"/>
<path d="" fill="#61264B" transform="translate(0,0)"/>
<path d="" fill="#5A2B5A" transform="translate(0,0)"/>
<path d="" fill="#383265" transform="translate(0,0)"/>
<path d="" fill="#272C67" transform="translate(0,0)"/>
<path d="" fill="#253572" transform="translate(0,0)"/>
<path d="" fill="#392D66" transform="translate(0,0)"/>
<path d="" fill="#262C67" transform="translate(0,0)"/>
<path d="" fill="#2D3771" transform="translate(0,0)"/>
<path d="" fill="#262F6E" transform="translate(0,0)"/>
<path d="" fill="#452C5F" transform="translate(0,0)"/>
<path d="" fill="#452C5F" transform="translate(0,0)"/>
<path d="" fill="#262C67" transform="translate(0,0)"/>
<path d="" fill="#422959" transform="translate(0,0)"/>
<path d="" fill="#2A3776" transform="translate(0,0)"/>
<path d="" fill="#272E6F" transform="translate(0,0)"/>
<path d="" fill="#272E6C" transform="translate(0,0)"/>
<path d="" fill="#41356B" transform="translate(0,0)"/>
<path d="" fill="#21286B" transform="translate(0,0)"/>
<path d="" fill="#24316C" transform="translate(0,0)"/>
<path d="" fill="#252C68" transform="translate(0,0)"/>
<path d="" fill="#40295B" transform="translate(0,0)"/>
<path d="" fill="#352A5F" transform="translate(0,0)"/>
<path d="" fill="#8F2038" transform="translate(0,0)"/>
<path d="" fill="#B42A3C" transform="translate(0,0)"/>
<path d="" fill="#8A1F3D" transform="translate(0,0)"/>
<path d="" fill="#492A5D" transform="translate(0,0)"/>
<path d="" fill="#4E2A4F" transform="translate(0,0)"/>
<path d="" fill="#4A2B5F" transform="translate(0,0)"/>
<path d="" fill="#352A5F" transform="translate(0,0)"/>
<path d="" fill="#462859" transform="translate(0,0)"/>
<path d="" fill="#383265" transform="translate(0,0)"/>
<path d="" fill="#352A5F" transform="translate(0,0)"/>
<path d="" fill="#B91D2B" transform="translate(0,0)"/>
<path d="" fill="#AD1C2C" transform="translate(0,0)"/>
<path d="" fill="#AB1E31" transform="translate(0,0)"/>
<path d="" fill="#AB1E31" transform="translate(0,0)"/>
<path d="" fill="#96213B" transform="translate(0,0)"/>
<path d="" fill="#B91D2C" transform="translate(0,0)"/>
<path d="" fill="#99213A" transform="translate(0,0)"/>
<path d="" fill="#99213C" transform="translate(0,0)"/>
<path d="" fill="#99213C" transform="translate(0,0)"/>
<path d="" fill="#8B203B" transform="translate(0,0)"/>
<path d="" fill="#7A2242" transform="translate(0,0)"/>
<path d="" fill="#C42733" transform="translate(0,0)"/>
<path d="" fill="#882240" transform="translate(0,0)"/>
<path d="" fill="#86213F" transform="translate(0,0)"/>
<path d="" fill="#BD262E" transform="translate(0,0)"/>
<path d="" fill="#B42934" transform="translate(0,0)"/>
<path d="" fill="#332E6B" transform="translate(0,0)"/>
<path d="" fill="#332D65" transform="translate(0,0)"/>
<path d="" fill="#1F2F70" transform="translate(0,0)"/>
<path d="" fill="#1F2F6F" transform="translate(0,0)"/>
<path d="" fill="#CE1D28" transform="translate(0,0)"/>
<path d="" fill="#1E2A6B" transform="translate(0,0)"/>
<path d="" fill="#25326C" transform="translate(0,0)"/>
<path d="" fill="#21326F" transform="translate(0,0)"/>
<path d="" fill="#24346F" transform="translate(0,0)"/>
<path d="" fill="#202C71" transform="translate(0,0)"/>
<path d="" fill="#1B2D6C" transform="translate(0,0)"/>
<path d="" fill="#212D69" transform="translate(0,0)"/>
<path d="" fill="#1B2D6C" transform="translate(0,0)"/>
<path d="" fill="#212D69" transform="translate(0,0)"/>
<path d="" fill="#202E6F" transform="translate(0,0)"/>
<path d="" fill="#C02535" transform="translate(0,0)"/>
<path d="" fill="#C12D3B" transform="translate(0,0)"/>
<path d="" fill="#1F2D6A" transform="translate(0,0)"/>
<path d="" fill="#283673" transform="translate(0,0)"/>
<path d="" fill="#1E2D6A" transform="translate(0,0)"/>
<path d="" fill="#273673" transform="translate(0,0)"/>
<path d="" fill="#64345C" transform="translate(0,0)"/>
<path d="" fill="#71244B" transform="translate(0,0)"/>
<path d="" fill="#283873" transform="translate(0,0)"/>
<path d="" fill="#212F6F" transform="translate(0,0)"/>
<path d="" fill="#1F3072" transform="translate(0,0)"/>
<path d="" fill="#1B2D6C" transform="translate(0,0)"/>
<path d="" fill="#203075" transform="translate(0,0)"/>
<path d="" fill="#1F3072" transform="translate(0,0)"/>
<path d="" fill="#273774" transform="translate(0,0)"/>
<path d="" fill="#243472" transform="translate(0,0)"/>
<path d="" fill="#243679" transform="translate(0,0)"/>
<path d="" fill="#1D2E73" transform="translate(0,0)"/>
<path d="" fill="#2C3268" transform="translate(0,0)"/>
<path d="" fill="#203071" transform="translate(0,0)"/>
<path d="" fill="#AB263E" transform="translate(0,0)"/>
<path d="" fill="#4E2756" transform="translate(0,0)"/>
<path d="" fill="#203071" transform="translate(0,0)"/>
<path d="" fill="#A4223B" transform="translate(0,0)"/>
<path d="" fill="#7A2242" transform="translate(0,0)"/>
<path d="" fill="#203279" transform="translate(0,0)"/>
<path d="" fill="#911F38" transform="translate(0,0)"/>
<path d="" fill="#911F38" transform="translate(0,0)"/>
<path d="" fill="#1B2B71" transform="translate(0,0)"/>
<path d="" fill="#253777" transform="translate(0,0)"/>
<path d="" fill="#482858" transform="translate(0,0)"/>
<path d="" fill="#1C2F70" transform="translate(0,0)"/>
<path d="" fill="#23356F" transform="translate(0,0)"/>
<path d="" fill="#1B2D6C" transform="translate(0,0)"/>
<path d="" fill="#203378" transform="translate(0,0)"/>
<path d="" fill="#333268" transform="translate(0,0)"/>
<path d="" fill="#1B2D6C" transform="translate(0,0)"/>
<path d="" fill="#22357A" transform="translate(0,0)"/>
<path d="" fill="#61385F" transform="translate(0,0)"/>
<path d="" fill="#44285A" transform="translate(0,0)"/>
<path d="" fill="#442C64" transform="translate(0,0)"/>
<path d="" fill="#1D2F70" transform="translate(0,0)"/>
<path d="" fill="#1B2D6C" transform="translate(0,0)"/>
<path d="" fill="#1E3175" transform="translate(0,0)"/>
<path d="" fill="#24377A" transform="translate(0,0)"/>
<path d="" fill="#1B2E73" transform="translate(0,0)"/>
<path d="" fill="#1C2F71" transform="translate(0,0)"/>
<path d="" fill="#1C2F71" transform="translate(0,0)"/>
<path d="" fill="#23336D" transform="translate(0,0)"/>
<path d="" fill="#342A61" transform="translate(0,0)"/>
<path d="" fill="#1C2F71" transform="translate(0,0)"/>
<path d="" fill="#1C2F70" transform="translate(0,0)"/>
<path d="" fill="#1D3072" transform="translate(0,0)"/>
<path d="" fill="#1C2F71" transform="translate(0,0)"/>
<path d="" fill="#4A3160" transform="translate(0,0)"/>
<path d="" fill="#1C2F70" transform="translate(0,0)"/>
<path d="" fill="#1D3072" transform="translate(0,0)"/>
<path d="" fill="#1D3072" transform="translate(0,0)"/>
<path d="" fill="#353268" transform="translate(0,0)"/>
<path d="" fill="#313672" transform="translate(0,0)"/>
<path d="" fill="#1B2C72" transform="translate(0,0)"/>
<path d="" fill="#1B2D6C" transform="translate(0,0)"/>
<path d="" fill="#233471" transform="translate(0,0)"/>
<path d="" fill="#292E6D" transform="translate(0,0)"/>
<path d="" fill="#2B3775" transform="translate(0,0)"/>
<path d="" fill="#263071" transform="translate(0,0)"/>
<path d="" fill="#1D3176" transform="translate(0,0)"/>
<path d="" fill="#1B2E72" transform="translate(0,0)"/>
<path d="" fill="#383164" transform="translate(0,0)"/>
<path d="" fill="#292E6D" transform="translate(0,0)"/>
<path d="" fill="#1C2F71" transform="translate(0,0)"/>
<path d="" fill="#1B2D6C" transform="translate(0,0)"/>
<path d="" fill="#1B2D6C" transform="translate(0,0)"/>
<path d="" fill="#1B2D6C" transform="translate(0,0)"/>
<path d="" fill="#1B2D6C" transform="translate(0,0)"/>
<path d="" fill="#1B2D6C" transform="translate(0,0)"/>
<path d="" fill="#1E3175" transform="translate(0,0)"/>
<path d="" fill="#1D2F70" transform="translate(0,0)"/>
<path d="" fill="#1B2D6C" transform="translate(0,0)"/>
<path d="" fill="#243571" transform="translate(0,0)"/>
<path d="" fill="#1C2D70" transform="translate(0,0)"/>
<path d="" fill="#1B2D6C" transform="translate(0,0)"/>
<path d="" fill="#263670" transform="translate(0,0)"/>
<path d="" fill="#1B2D6C" transform="translate(0,0)"/>
<path d="" fill="#273871" transform="translate(0,0)"/>
</svg>
