<?xml version="1.0" standalone="no"?>
<!DOCTYPE svg PUBLIC "-//W3C//DTD SVG 20010904//EN"
 "http://www.w3.org/TR/2001/REC-SVG-20010904/DTD/svg10.dtd">
<svg version="1.0" xmlns="http://www.w3.org/2000/svg"
 width="1229.000000pt" height="671.000000pt" viewBox="0 0 1229.000000 671.000000"
 preserveAspectRatio="xMidYMid meet">

<g transform="translate(0.000000,671.000000) scale(0.100000,-0.100000)"
fill="#000000" stroke="none">
<path d="M5923 5687 c12 -13 24 -22 26 -20 6 4 -30 43 -40 43 -5 0 2 -10 14
-23z"/>
<path d="M5892 5660 c0 -19 2 -27 5 -17 2 9 2 25 0 35 -3 9 -5 1 -5 -18z"/>
<path d="M5816 5657 c3 -10 9 -15 12 -12 3 3 0 11 -7 18 -10 9 -11 8 -5 -6z"/>
<path d="M5932 5620 c0 -14 2 -19 5 -12 2 6 2 18 0 25 -3 6 -5 1 -5 -13z"/>
<path d="M5771 5618 c-1 -9 -14 -27 -31 -40 -40 -31 -120 -137 -119 -157 0
-10 4 -7 10 8 13 32 73 107 118 146 20 19 32 37 28 45 -4 12 -6 11 -6 -2z"/>
<path d="M5842 5614 c10 -10 20 -16 22 -13 3 3 -5 11 -17 18 -21 13 -21 12 -5
-5z"/>
<path d="M5940 5581 c0 -6 4 -13 10 -16 6 -3 7 1 4 9 -7 18 -14 21 -14 7z"/>
<path d="M6020 5566 c0 -2 7 -7 16 -10 8 -3 12 -2 9 4 -6 10 -25 14 -25 6z"/>
<path d="M6074 5449 c-3 -6 -15 -9 -25 -6 -11 3 -17 1 -13 -4 8 -14 30 -11 44
6 7 8 10 15 7 15 -3 0 -9 -5 -13 -11z"/>
<path d="M6120 5430 c0 -16 5 -30 10 -30 6 0 10 14 10 30 0 17 -4 30 -10 30
-5 0 -10 -13 -10 -30z"/>
<path d="M793 5385 c-40 -79 -35 -94 72 -198 52 -51 95 -100 95 -108 0 -22 77
-89 102 -89 38 0 109 -43 123 -75 8 -16 23 -41 34 -55 11 -14 23 -38 25 -54 3
-17 12 -34 20 -38 8 -5 21 -14 28 -21 7 -7 21 -16 31 -20 11 -4 17 -17 17 -37
0 -50 26 -87 93 -129 34 -22 67 -44 73 -49 6 -5 20 -13 32 -16 36 -12 72 -68
72 -112 0 -21 7 -57 15 -79 8 -22 14 -58 15 -81 0 -46 7 -55 73 -108 26 -20
47 -44 47 -52 0 -8 28 -42 63 -77 68 -67 107 -123 107 -154 0 -11 11 -26 25
-33 21 -11 25 -21 25 -56 0 -33 6 -48 29 -70 16 -16 34 -47 41 -69 7 -22 16
-45 21 -50 4 -6 9 -28 11 -50 3 -37 7 -42 53 -63 55 -27 67 -41 108 -127 34
-73 69 -110 122 -134 34 -15 43 -25 54 -62 32 -110 99 -169 200 -177 65 -6 73
-12 200 -147 11 -11 25 -25 33 -31 24 -20 57 -67 52 -75 -7 -11 63 -62 76 -54
5 3 10 19 10 35 0 16 4 32 10 35 6 3 10 -1 10 -9 0 -9 4 -16 9 -16 5 0 11 -9
14 -20 3 -11 10 -20 16 -20 6 0 11 9 11 20 0 11 3 20 8 20 4 0 15 -9 25 -20
27 -32 40 -25 32 20 -9 53 10 53 67 0 46 -43 75 -50 85 -22 4 9 11 20 17 24
14 10 12 278 -1 287 -12 7 -27 127 -24 186 1 22 9 45 17 51 27 21 16 66 -27
109 -22 22 -52 60 -67 85 -31 53 -39 60 -74 60 -40 0 -59 10 -69 37 -9 25 -53
47 -76 38 -8 -3 -23 0 -34 5 -16 9 -19 22 -19 74 0 35 -3 77 -6 94 -9 45 -64
80 -139 87 -33 4 -64 10 -68 15 -5 4 -11 26 -14 49 -5 33 -12 45 -34 57 -42
21 -39 36 15 82 8 6 22 12 30 12 8 0 27 5 42 10 l27 11 -50 49 c-39 38 -56 48
-74 44 -88 -18 -114 -17 -138 10 -14 14 -30 26 -38 26 -21 0 -15 37 10 60 l22
21 27 -32 c38 -46 45 -30 14 32 -14 29 -26 69 -26 88 0 62 -19 106 -62 151
-47 48 -91 70 -140 70 -37 0 -128 -30 -128 -42 0 -4 -4 -8 -10 -8 -5 0 -10 6
-10 14 0 8 -14 23 -31 33 -28 17 -30 21 -24 60 4 27 2 44 -6 49 -8 4 -9 3 -5
-4 5 -8 -2 -12 -18 -12 -14 0 -26 -6 -26 -12 0 -9 -4 -8 -10 2 -6 10 -7 -2 -3
-37 5 -44 3 -53 -10 -53 -17 0 -70 62 -73 86 -1 8 2 16 6 19 5 3 6 13 3 22 -6
15 -7 14 -14 -3 -7 -17 -8 -17 -8 -1 -1 11 -9 17 -26 17 -14 0 -25 -4 -25 -10
0 -5 -7 -10 -16 -10 -13 0 -14 3 -5 14 10 12 9 13 -7 9 -16 -4 -21 2 -27 29
-3 18 -11 45 -17 60 -11 30 -102 97 -155 116 -38 13 -103 62 -103 78 0 13 -45
24 -96 24 -36 0 -38 4 -34 61 1 17 -8 36 -24 52 -28 28 -34 62 -13 70 10 3 10
9 0 26 -7 11 -13 30 -13 41 0 30 -52 80 -83 80 -14 0 -29 -4 -32 -10 -10 -16
-55 -12 -73 6 -12 13 -29 15 -76 11 -33 -3 -62 -10 -64 -16 -8 -25 -75 3 -133
55 -20 17 -51 35 -68 39 -17 4 -29 11 -25 16 3 5 -1 9 -8 9 -7 0 -23 -21 -35
-45z m1527 -985 c0 -5 9 -10 20 -10 34 0 54 -66 27 -88 -10 -9 -17 -6 -28 10
-8 11 -24 33 -35 47 -16 19 -18 29 -10 38 14 15 26 16 26 3z"/>
<path d="M6110 5371 c0 -10 19 -25 25 -20 1 2 -3 10 -11 17 -8 7 -14 8 -14 3z"/>
<path d="M6159 5363 c-13 -17 -13 -17 6 -3 11 8 22 16 24 17 2 2 0 3 -6 3 -6
0 -17 -8 -24 -17z"/>
<path d="M6233 5360 c14 -11 30 -20 35 -20 6 0 14 -9 17 -20 5 -17 25 -29 25
-15 0 11 -35 45 -46 45 -6 0 -17 7 -24 15 -7 8 -17 15 -23 15 -5 0 2 -9 16
-20z"/>
<path d="M5554 5344 c-18 -14 -18 -14 6 -3 31 14 36 19 24 19 -6 0 -19 -7 -30
-16z"/>
<path d="M5505 5300 c-9 -16 -13 -30 -11 -30 3 0 12 14 21 30 9 17 13 30 11
30 -3 0 -12 -13 -21 -30z"/>
<path d="M6350 5276 c0 -2 16 -6 35 -8 19 -2 35 0 35 4 0 4 -16 8 -35 8 -19 0
-35 -2 -35 -4z"/>
<path d="M4957 5228 c-3 -13 -11 -57 -18 -98 -14 -81 -25 -100 -61 -100 -13 0
-27 -4 -33 -8 -19 -14 -34 -50 -28 -71 5 -19 12 -21 67 -21 72 1 112 16 129
49 17 33 47 37 47 5 0 -13 -4 -24 -10 -24 -5 0 -10 -6 -10 -13 0 -22 -62 -82
-82 -79 -16 3 -17 0 -6 -22 9 -22 8 -29 -7 -46 -10 -11 -24 -20 -31 -20 -7 0
-16 -4 -19 -10 -10 -16 28 1 53 24 17 15 21 27 17 44 -4 15 -2 21 5 17 5 -3
10 -13 10 -21 0 -8 8 -14 18 -13 10 0 12 3 5 6 -16 6 -17 33 -1 33 6 0 8 3 5
7 -4 3 -2 12 4 20 10 11 15 11 28 1 14 -12 15 -11 2 5 -20 25 -5 35 59 39 l54
3 9 43 c7 38 11 42 38 42 26 0 32 -6 49 -45 l19 -45 59 0 59 0 9 52 c13 75 38
79 29 4 l-7 -56 82 0 c82 0 83 0 65 -20 -10 -11 -24 -20 -32 -20 -7 0 -13 -10
-13 -22 -1 -21 -41 -78 -55 -78 -4 0 -32 -25 -62 -55 -30 -30 -63 -57 -74 -60
-10 -4 -19 -11 -19 -17 0 -5 7 -8 15 -4 11 4 15 -1 15 -17 0 -14 -3 -18 -8
-10 -4 7 -34 24 -66 39 -66 30 -123 29 -190 -2 -42 -21 -92 -90 -102 -142 -9
-47 12 -132 42 -173 l25 -34 -33 -3 c-18 -2 -50 2 -70 9 -48 16 -174 6 -223
-16 -19 -10 -33 -20 -30 -23 2 -3 -14 -19 -38 -36 l-42 -31 -135 2 c-132 2
-136 3 -155 27 -12 15 -28 26 -38 26 -9 0 -17 5 -17 10 0 6 -7 10 -15 10 -26
0 -115 94 -115 121 0 14 -6 31 -12 37 -10 10 -10 17 -1 31 10 16 9 18 -7 14
-11 -3 -24 -21 -31 -42 -6 -20 -25 -63 -42 -96 -29 -57 -30 -66 -29 -168 1
-60 7 -117 13 -129 7 -12 8 -50 4 -101 -6 -77 -5 -84 18 -109 13 -15 30 -52
37 -83 13 -53 14 -55 47 -55 18 0 33 5 33 10 0 18 32 11 51 -12 19 -21 22 -39
19 -114 -1 -29 3 -43 14 -47 19 -8 21 -27 3 -27 -9 0 -17 -21 -23 -57 -5 -32
-15 -58 -23 -61 -11 -4 -12 7 -6 57 l7 61 -56 0 c-50 0 -56 -2 -60 -22 -17
-84 -22 -99 -31 -100 -5 0 -23 27 -40 61 l-30 61 -60 -2 -59 -3 -15 -82 c-14
-81 -32 -108 -44 -64 -6 23 9 108 23 134 9 15 4 17 -50 17 l-60 0 -6 -40 c-4
-22 -10 -40 -15 -40 -4 0 -11 -21 -14 -47 -10 -78 -20 -93 -59 -93 -29 0 -34
-4 -39 -29 -4 -20 -13 -31 -29 -34 l-23 -4 23 -2 c12 0 22 -5 22 -11 0 -17
142 -12 167 5 21 15 53 11 53 -6 0 -5 26 -9 58 -9 l58 0 10 43 c7 34 14 43 34
45 21 2 28 -4 45 -40 l20 -43 61 -3 62 -3 8 47 c5 26 15 49 23 52 10 3 12 -6
6 -47 l-7 -51 120 0 c116 0 120 1 126 23 14 53 10 57 -54 57 -33 0 -60 4 -60
10 0 6 36 10 88 10 48 0 102 4 120 9 25 7 46 6 84 -6 44 -15 53 -22 68 -59 10
-23 22 -44 27 -47 5 -3 29 -1 54 5 24 6 71 11 104 12 48 1 65 6 85 24 34 32
70 39 86 18 7 -10 34 -21 66 -26 29 -4 72 -17 96 -29 23 -12 53 -26 67 -31 14
-5 25 -15 25 -22 1 -14 22 -40 62 -76 26 -23 27 -23 62 -7 28 13 49 16 91 10
32 -4 55 -3 55 3 0 5 20 20 45 33 49 26 50 28 85 174 12 50 35 118 52 153 32
68 31 87 -6 101 -13 6 -28 23 -35 43 -11 29 -9 35 10 51 12 9 27 17 34 17 12
0 35 41 35 64 0 19 37 34 101 41 94 10 119 56 119 221 0 56 4 104 8 106 4 2
20 24 35 50 33 57 50 63 162 54 102 -8 165 11 165 50 0 15 6 24 15 24 8 0 15
-4 15 -10 0 -12 130 -13 162 -1 13 5 30 21 37 35 22 40 45 34 38 -9 l-6 -35
58 0 57 0 10 43 c7 32 14 43 32 45 28 4 29 -14 1 -29 -15 -8 -20 -18 -16 -35
7 -38 -52 -75 -90 -56 -17 8 -65 -7 -64 -22 1 -17 -14 -39 -33 -46 -16 -7 -17
-9 -4 -9 22 -1 13 -36 -16 -59 -36 -29 -50 -66 -42 -114 4 -24 10 -59 13 -78
3 -19 12 -39 19 -43 18 -10 18 -22 -2 -42 -12 -12 -19 -13 -30 -4 -8 6 -14 18
-14 25 0 8 -6 14 -13 14 -18 0 -34 -57 -43 -150 -9 -95 -17 -117 -60 -154 -25
-22 -37 -42 -41 -71 -4 -24 -15 -47 -29 -58 -33 -25 -39 -67 -16 -108 11 -19
22 -51 25 -71 l6 -37 -57 -3 -57 -3 -10 -54 c-6 -30 -16 -56 -24 -59 -11 -4
-12 7 -6 57 l7 61 -55 0 -56 0 -11 -57 c-17 -88 -18 -90 -37 -62 -10 13 -23
30 -29 36 -7 7 -18 29 -24 48 l-12 36 -61 -3 -62 -3 -7 -45 c-4 -25 -10 -67
-14 -93 -6 -42 -25 -69 -39 -56 -2 2 5 45 14 94 10 50 16 93 14 98 -2 4 -28 7
-56 7 -52 0 -52 0 -69 -43 -10 -23 -18 -52 -18 -65 0 -12 -4 -22 -10 -22 -13
0 -13 -47 1 -52 5 -2 7 -11 4 -20 -7 -16 -34 -28 -70 -28 -22 0 -44 -42 -37
-72 3 -15 14 -18 65 -18 77 0 119 15 140 51 24 43 41 37 34 -11 l-5 -40 59 0
c54 0 59 2 59 23 0 46 12 67 37 67 18 0 28 -9 40 -37 20 -48 27 -53 91 -53 45
0 52 3 52 20 0 11 4 20 9 20 6 0 11 14 13 32 2 17 9 33 16 36 11 3 12 -7 7
-52 l-7 -56 116 0 c109 0 116 1 116 20 0 11 5 20 10 20 6 0 10 9 10 20 0 18
-7 20 -60 20 -46 0 -60 3 -60 15 0 11 20 15 97 17 94 3 97 4 104 28 6 21 7 19
8 -13 1 -21 -15 -94 -34 -163 -19 -68 -35 -131 -35 -139 0 -17 46 -22 52 -6 2
6 48 14 102 20 54 5 103 14 109 20 13 13 2 40 -20 48 -39 14 -42 38 -8 77 28
33 32 67 10 90 -16 16 -21 56 -7 56 5 0 15 24 22 54 10 43 10 70 0 140 -7 47
-16 86 -21 86 -18 0 -8 37 19 70 27 31 34 34 95 38 55 4 67 2 67 -11 0 -8 -6
-20 -14 -27 -11 -8 -13 -24 -9 -61 5 -39 3 -49 -9 -49 -8 0 -21 -11 -28 -25
-12 -22 -11 -27 5 -45 10 -11 14 -20 9 -20 -5 0 9 -9 30 -21 40 -21 66 -43 66
-54 0 -4 10 -15 21 -24 24 -19 59 -103 59 -141 0 -46 60 -62 97 -24 9 9 24 30
32 48 15 29 20 31 78 34 58 3 64 5 78 32 8 16 15 34 15 40 0 15 -48 56 -81 70
-33 14 -59 77 -59 141 0 36 -5 51 -25 69 -14 13 -25 32 -25 42 0 10 -4 18 -9
18 -5 0 -13 10 -17 22 -9 28 -80 98 -119 118 -39 20 -44 47 -11 60 14 5 34 18
45 29 11 11 45 27 75 37 57 18 96 45 96 67 0 24 46 69 83 82 34 12 68 12 139
0 23 -4 29 0 34 22 5 17 1 38 -12 60 -16 31 -22 34 -49 30 -19 -3 -48 -21 -72
-47 -50 -50 -105 -65 -122 -32 -11 21 -38 20 -53 -1 -3 -6 -35 -10 -70 -11
l-63 -1 3 65 c5 88 -7 116 -84 196 -22 23 -81 44 -125 44 -41 0 -118 -30 -134
-53 -11 -16 -15 -17 -15 -6 0 20 36 52 78 69 23 9 49 10 85 5 61 -10 89 -10
263 -1 72 4 204 2 293 -3 145 -10 168 -9 237 9 74 18 103 38 104 71 0 16 30
49 44 49 14 0 66 58 76 85 30 79 12 119 -51 113 -26 -2 -34 -9 -43 -35 -6 -18
-42 -63 -81 -100 l-70 -67 -149 -12 c-82 -6 -161 -8 -175 -4 -24 8 -24 8 -3 9
14 1 22 7 22 19 0 9 3 27 6 40 6 21 4 22 -56 22 -43 0 -60 4 -58 12 3 7 34 12
91 12 47 1 90 6 95 11 5 6 12 30 16 54 l7 43 -92 -3 c-68 -3 -93 -1 -96 9 -4
9 13 12 60 12 69 0 77 6 77 56 l0 24 -118 0 -119 0 -9 -57 c-5 -32 -15 -58
-23 -61 -11 -4 -12 7 -6 57 l7 61 -55 0 c-61 0 -60 1 -72 -77 -4 -24 -11 -45
-16 -49 -5 -3 -20 17 -32 44 -34 74 -48 84 -109 80 -52 -3 -53 -4 -56 -35 -2
-18 -7 -33 -12 -33 -4 0 -11 -24 -15 -52 -7 -53 -21 -82 -35 -73 -4 2 0 47 10
100 l17 95 -58 0 -57 0 -10 -47 c-6 -27 -14 -70 -17 -98 -9 -63 -19 -75 -61
-75 -19 0 -34 -5 -34 -11 0 -16 -52 -59 -71 -59 -21 0 -36 19 -41 50 -4 31
-35 37 -75 16 -36 -18 -46 -12 -69 41 -15 35 -26 45 -59 55 -32 11 -41 18 -43
41 -3 22 1 27 17 27 12 0 21 5 21 10 0 6 7 10 15 10 9 0 15 10 15 26 0 18 -15
41 -50 75 -36 35 -50 57 -50 76 0 23 -8 32 -40 47 -52 25 -54 56 -5 85 28 16
35 27 35 51 0 19 5 30 14 30 17 0 26 42 13 65 -5 9 -7 29 -4 43 5 25 4 25 -9
8 -12 -17 -21 -18 -81 -11 -89 10 -114 10 -265 0 -116 -7 -128 -6 -128 8 0 15
14 17 99 17 55 0 102 3 104 8 3 4 7 27 8 52 l4 45 -99 -4 c-80 -3 -98 -1 -94
10 3 9 25 15 65 17 53 3 62 6 67 25 15 58 16 58 -106 55 -109 -3 -113 -4 -116
-25 -5 -33 -42 -31 -42 2 0 23 -3 25 -50 25 -49 0 -49 0 -56 -37 -4 -21 -13
-43 -20 -51 -7 -7 -11 -19 -8 -26 3 -8 1 -17 -5 -20 -6 -4 -24 22 -43 64 l-32
70 -57 0 c-65 0 -60 6 -79 -105 -17 -95 -17 -95 -39 -95 -18 0 -20 5 -14 33 3
17 10 37 14 43 5 6 11 36 15 67 l7 57 -56 0 c-49 0 -55 -3 -60 -22z m513 -67
c0 -10 -7 -22 -16 -25 -23 -9 -24 -8 -24 19 0 18 5 25 20 25 13 0 20 -7 20
-19z m-250 -631 c27 -27 26 -75 -2 -94 -52 -36 -115 -1 -104 58 11 55 67 75
106 36z m1790 -202 c0 -13 -7 -32 -15 -42 -14 -19 -15 -18 -15 15 0 20 3 39 7
42 13 14 23 7 23 -15z m-222 -359 c25 -8 33 -18 38 -46 6 -30 3 -39 -17 -54
-33 -26 -74 -24 -93 3 -22 32 -20 55 9 83 28 29 23 28 63 14z m-323 -877 c-3
-3 -39 -7 -81 -10 -61 -3 -75 -1 -72 9 3 9 25 15 64 17 42 2 61 8 68 19 8 15
10 14 18 -7 5 -12 6 -25 3 -28z"/>
<path d="M6386 5235 c-3 -8 -17 -20 -31 -25 -15 -6 -25 -17 -24 -27 1 -17 2
-17 6 0 2 9 10 17 16 17 13 1 57 35 57 44 0 12 -18 5 -24 -9z"/>
<path d="M8104 5213 c-34 -190 -37 -197 -81 -190 -12 2 -25 1 -30 -2 -18 -13
-31 -50 -26 -70 5 -19 13 -21 69 -21 73 0 127 21 143 56 18 39 34 29 27 -16
l-6 -40 60 0 c56 0 60 2 60 23 1 81 45 94 79 22 l21 -45 59 0 58 0 9 52 c7 40
14 54 28 56 17 4 18 -1 12 -52 l-7 -56 115 0 c104 0 116 2 116 18 0 9 3 27 6
40 6 21 4 22 -50 22 -43 0 -56 3 -56 15 0 12 17 15 95 15 104 0 102 -1 107 65
l3 40 -94 -3 c-75 -3 -92 -1 -89 10 3 8 26 14 65 16 53 3 62 6 67 25 15 58 16
58 -111 55 l-118 -3 -10 -54 c-6 -30 -17 -57 -24 -59 -11 -4 -13 7 -7 57 l7
61 -55 0 -55 0 -11 -57 c-18 -90 -18 -91 -45 -58 -13 17 -31 49 -40 73 l-17
42 -58 0 c-66 0 -61 5 -80 -95 -18 -100 -20 -105 -35 -105 -15 0 -14 23 6 100
5 19 9 50 9 68 l0 32 -55 0 -54 0 -7 -37z"/>
<path d="M6153 5155 c-3 -9 -3 -19 1 -22 3 -4 6 1 6 10 0 8 6 18 13 20 9 4 9
6 -1 6 -7 1 -15 -6 -19 -14z"/>
<path d="M6205 5160 c27 -12 43 -12 25 0 -8 5 -22 9 -30 9 -10 0 -8 -3 5 -9z"/>
<path d="M6258 5153 c7 -3 16 -2 19 1 4 3 -2 6 -13 5 -11 0 -14 -3 -6 -6z"/>
<path d="M6161 5110 c-1 -21 16 -46 26 -37 4 5 3 11 -3 15 -6 4 -14 14 -17 22
-5 13 -5 13 -6 0z"/>
<path d="M6197 5049 c7 -7 15 -10 18 -7 3 3 -2 9 -12 12 -14 6 -15 5 -6 -5z"/>
<path d="M2014 5003 c-22 -122 -32 -175 -36 -178 -2 -3 -22 -7 -43 -10 -21 -2
-38 -6 -39 -7 0 -2 -6 -12 -11 -23 -6 -11 -9 -30 -7 -42 3 -21 9 -23 71 -23
69 0 89 8 134 58 30 32 40 27 32 -18 l-7 -40 61 0 c57 0 61 2 61 23 0 46 12
67 37 67 19 0 28 -9 44 -45 l20 -45 58 0 58 0 9 52 c7 39 14 54 27 56 17 3 18
-1 12 -52 l-7 -56 116 0 c104 0 116 2 116 18 0 9 3 27 6 40 6 21 4 22 -50 22
-43 0 -56 3 -56 15 0 12 17 15 95 15 104 0 102 -1 107 65 l3 40 -94 -4 c-76
-3 -93 -1 -89 10 3 9 25 15 65 17 53 3 62 6 67 25 15 58 16 58 -111 55 l-118
-3 -10 -54 c-6 -30 -17 -57 -24 -59 -11 -4 -13 7 -7 57 l7 61 -55 0 -55 0 -11
-57 c-17 -88 -18 -89 -39 -66 -11 11 -29 43 -41 72 l-22 51 -59 0 c-64 0 -60
5 -79 -95 -18 -100 -20 -105 -36 -105 -12 0 -14 7 -8 33 18 82 30 157 26 162
-3 3 -29 5 -58 5 l-53 0 -7 -37z"/>
<path d="M6084 5020 c14 -22 24 -25 75 -25 38 0 54 3 44 8 -8 5 -31 6 -50 2
-29 -5 -40 -2 -61 17 l-25 23 17 -25z"/>
<path d="M6246 5026 c4 -11 2 -21 -7 -27 -10 -6 -11 -9 -1 -9 18 0 27 29 13
43 -9 9 -11 8 -5 -7z"/>
<path d="M7850 4930 c-12 -7 -12 -14 -2 -43 7 -18 12 -43 12 -55 0 -23 36 -40
52 -24 16 16 21 85 6 103 -17 22 -49 31 -68 19z"/>
<path d="M8837 4889 c7 -7 15 -10 18 -7 3 3 -2 9 -12 12 -14 6 -15 5 -6 -5z"/>
<path d="M4800 4877 c0 -10 8 -17 18 -17 9 0 13 4 7 8 -5 4 -13 11 -17 16 -5
5 -8 2 -8 -7z"/>
<path d="M4853 4858 c-3 -37 13 -37 19 0 2 16 -1 29 -6 29 -6 0 -12 -13 -13
-29z"/>
<path d="M4890 4863 c0 -21 3 -24 9 -14 5 8 7 20 4 28 -8 21 -13 15 -13 -14z"/>
<path d="M5175 4879 c-4 -6 -4 -13 -1 -16 3 -4 6 -1 6 5 0 6 8 13 18 15 15 4
15 5 0 6 -9 0 -20 -4 -23 -10z"/>
<path d="M5225 4880 c-3 -6 0 -17 8 -25 13 -12 16 -12 21 7 3 12 3 24 1 27 -3
2 -5 -1 -5 -7 0 -7 -5 -12 -11 -12 -5 0 -7 5 -4 10 3 6 4 10 1 10 -3 0 -8 -5
-11 -10z"/>
<path d="M5425 4870 c10 -33 25 -49 25 -26 0 9 -7 25 -16 34 -15 15 -16 14 -9
-8z"/>
<path d="M7950 4877 c0 -10 8 -17 18 -17 9 0 13 4 7 8 -5 4 -13 11 -17 16 -5
5 -8 2 -8 -7z"/>
<path d="M8003 4858 c-1 -15 2 -28 7 -28 6 0 10 11 10 24 0 13 6 26 13 29 6 3
3 5 -8 4 -14 -1 -21 -9 -22 -29z"/>
<path d="M8050 4864 c0 -15 3 -23 8 -18 4 5 10 11 13 14 4 3 1 11 -7 18 -12
11 -14 8 -14 -14z"/>
<path d="M8290 4880 c0 -5 5 -10 10 -10 6 0 10 5 10 10 0 6 -4 10 -10 10 -5 0
-10 -4 -10 -10z"/>
<path d="M8337 4883 c-4 -3 -7 -19 -7 -35 0 -29 13 -37 26 -16 4 7 3 8 -4 4
-8 -5 -12 1 -12 18 0 13 6 27 13 29 6 3 7 6 1 6 -6 1 -14 -2 -17 -6z"/>
<path d="M8377 4883 c-4 -3 -7 -16 -7 -27 0 -17 2 -18 10 -6 9 13 10 13 10 0
1 -8 6 -4 11 9 5 13 7 26 4 29 -3 3 -5 0 -5 -6 0 -7 -5 -12 -11 -12 -5 0 -7 5
-4 10 7 11 2 13 -8 3z"/>
<path d="M8781 4874 c0 -11 3 -14 6 -6 3 7 2 16 -1 19 -3 4 -6 -2 -5 -13z"/>
<path d="M5370 4865 c7 -8 10 -22 6 -30 -3 -9 -2 -13 4 -10 16 10 12 42 -6 49
-14 5 -15 4 -4 -9z"/>
<path d="M8229 4868 c7 -10 11 -25 7 -33 -3 -9 -2 -13 4 -10 15 10 12 31 -7
46 -16 13 -17 12 -4 -3z"/>
<path d="M8520 4865 c7 -8 10 -22 6 -30 -3 -9 -2 -13 4 -10 16 10 12 42 -6 49
-14 5 -15 4 -4 -9z"/>
<path d="M8820 4878 c0 -2 9 -11 20 -21 11 -9 20 -13 20 -7 0 5 -9 14 -20 20
-11 6 -20 9 -20 8z"/>
<path d="M5040 4850 c13 -24 17 -25 17 -5 0 8 -6 16 -14 19 -11 4 -11 1 -3
-14z"/>
<path d="M5085 4845 c0 -13 3 -21 8 -18 4 2 7 10 7 18 0 8 -3 16 -7 18 -5 3
-8 -5 -8 -18z"/>
<path d="M5336 4857 c3 -10 9 -15 12 -12 3 3 0 11 -7 18 -10 9 -11 8 -5 -6z"/>
<path d="M8100 4850 c6 -11 12 -20 13 -20 2 0 3 9 3 20 0 11 -6 20 -13 20 -11
0 -11 -5 -3 -20z"/>
<path d="M8138 4863 c6 -2 18 -2 25 0 6 3 1 5 -13 5 -14 0 -19 -2 -12 -5z"/>
<path d="M8486 4857 c3 -10 9 -15 12 -12 3 3 0 11 -7 18 -10 9 -11 8 -5 -6z"/>
<path d="M8595 4860 c-3 -5 -1 -18 4 -27 9 -16 10 -14 11 10 0 28 -5 34 -15
17z"/>
<path d="M8672 4850 c0 -14 2 -19 5 -12 2 6 2 18 0 25 -3 6 -5 1 -5 -13z"/>
<path d="M8802 4850 c0 -14 2 -19 5 -12 2 6 2 18 0 25 -3 6 -5 1 -5 -13z"/>
<path d="M5130 4847 c0 -8 6 -14 14 -14 8 0 12 6 9 14 -3 7 -9 13 -14 13 -5 0
-9 -6 -9 -13z"/>
<path d="M5477 4847 c-3 -8 1 -14 9 -14 8 0 14 6 14 14 0 7 -4 13 -9 13 -5 0
-11 -6 -14 -13z"/>
<path d="M8280 4847 c0 -7 8 -13 19 -13 11 0 17 5 14 13 -3 7 -11 13 -19 13
-8 0 -14 -6 -14 -13z"/>
<path d="M8450 4846 c0 -9 -4 -15 -9 -11 -5 3 -12 1 -16 -5 -3 -5 1 -10 10
-10 16 0 32 26 21 37 -3 4 -6 -1 -6 -11z"/>
<path d="M8627 4847 c-3 -8 1 -14 9 -14 8 0 14 6 14 14 0 7 -4 13 -9 13 -5 0
-11 -6 -14 -13z"/>
<path d="M5170 4841 c0 -10 19 -25 25 -20 1 2 -3 10 -11 17 -8 7 -14 8 -14 3z"/>
<path d="M5270 4828 c0 -4 4 -8 9 -8 6 0 12 4 15 8 3 5 -1 9 -9 9 -8 0 -15 -4
-15 -9z"/>
<path d="M5310 4836 c0 -2 7 -7 16 -10 8 -3 12 -2 9 4 -6 10 -25 14 -25 6z"/>
<path d="M8130 4829 c0 -5 9 -9 20 -9 11 0 20 2 20 4 0 2 -9 6 -20 9 -11 3
-20 1 -20 -4z"/>
<path d="M8737 4829 c7 -7 15 -10 18 -7 3 3 -2 9 -12 12 -14 6 -15 5 -6 -5z"/>
<path d="M4808 4823 c7 -3 16 -2 19 1 4 3 -2 6 -13 5 -11 0 -14 -3 -6 -6z"/>
<path d="M7958 4823 c7 -3 16 -2 19 1 4 3 -2 6 -13 5 -11 0 -14 -3 -6 -6z"/>
<path d="M8828 4823 c7 -3 16 -2 19 1 4 3 -2 6 -13 5 -11 0 -14 -3 -6 -6z"/>
<path d="M6068 4755 c-8 -19 -8 -28 2 -40 11 -13 15 -13 41 2 16 10 29 21 29
25 0 4 0 10 0 13 0 3 -3 6 -7 6 -5 1 -18 5 -31 10 -19 7 -24 4 -34 -16z"/>
<path d="M8374 4766 c-17 -8 -49 -32 -72 -54 -48 -47 -67 -104 -57 -171 7 -47
42 -121 57 -121 15 0 26 -44 16 -63 -6 -13 -3 -25 11 -44 27 -33 29 -98 4
-107 -12 -5 -14 -9 -6 -14 6 -4 25 -25 42 -46 28 -35 31 -45 31 -112 0 -73 14
-124 33 -124 6 0 21 -10 34 -21 21 -20 23 -21 29 -5 4 10 2 35 -5 55 -6 21
-11 78 -11 126 l0 88 31 -7 c18 -3 37 -13 43 -22 7 -8 31 -18 54 -21 39 -5 42
-4 42 19 0 25 -33 68 -52 68 -14 0 -78 71 -78 86 0 15 21 38 53 57 22 14 27
25 27 57 0 21 9 54 19 72 25 44 34 98 25 156 -5 37 -16 56 -49 89 -67 69 -148
90 -221 59z m106 -143 c25 -22 26 -73 1 -101 -22 -26 -28 -27 -47 -8 -9 9 -10
17 -4 21 5 3 10 13 10 20 0 11 -8 13 -30 9 -37 -8 -40 12 -7 50 26 30 49 33
77 9z"/>
<path d="M902 4748 c-30 -30 -3 -98 37 -98 10 0 24 -7 31 -15 7 -8 17 -15 23
-15 5 0 25 -11 43 -25 61 -47 72 -29 19 31 -19 21 -35 44 -35 50 0 13 -80 84
-95 84 -6 0 -16 -5 -23 -12z"/>
<path d="M4825 4740 c-3 -5 -1 -10 4 -10 6 0 11 5 11 10 0 6 -2 10 -4 10 -3 0
-8 -4 -11 -10z"/>
<path d="M4778 4723 c7 -3 16 -2 19 1 4 3 -2 6 -13 5 -11 0 -14 -3 -6 -6z"/>
<path d="M4668 4703 c6 -2 18 -2 25 0 6 3 1 5 -13 5 -14 0 -19 -2 -12 -5z"/>
<path d="M4611 4681 c-19 -19 -45 -90 -36 -99 2 -2 9 14 15 36 6 23 22 50 37
61 14 12 21 21 14 21 -6 0 -20 -9 -30 -19z"/>
<path d="M2006 4682 c-3 -5 1 -9 9 -9 8 0 12 4 9 9 -3 4 -7 8 -9 8 -2 0 -6 -4
-9 -8z"/>
<path d="M2050 4679 c0 -5 5 -7 10 -4 6 3 10 8 10 11 0 2 -4 4 -10 4 -5 0 -10
-5 -10 -11z"/>
<path d="M2200 4670 c0 -5 5 -10 10 -10 6 0 10 5 10 10 0 6 -4 10 -10 10 -5 0
-10 -4 -10 -10z"/>
<path d="M2247 4673 c-10 -9 -9 -51 2 -57 4 -3 6 6 3 20 -3 16 1 30 9 35 8 5
9 9 3 9 -6 0 -14 -3 -17 -7z"/>
<path d="M2287 4673 c-12 -12 -7 -30 8 -30 15 0 30 26 20 35 -3 3 -5 0 -5 -6
0 -7 -5 -12 -11 -12 -5 0 -7 5 -4 10 7 11 2 13 -8 3z"/>
<path d="M2490 4678 c0 -3 7 -21 15 -39 10 -24 14 -28 14 -14 0 11 -6 29 -14
39 -8 11 -15 17 -15 14z"/>
<path d="M2691 4664 c0 -11 3 -14 6 -6 3 7 2 16 -1 19 -3 4 -6 -2 -5 -13z"/>
<path d="M7827 4673 c-14 -13 -6 -33 13 -33 22 0 23 1 14 24 -7 17 -16 20 -27
9z"/>
<path d="M2139 4658 c7 -10 11 -25 7 -33 -3 -9 -2 -13 4 -10 15 10 12 31 -7
46 -16 13 -17 12 -4 -3z"/>
<path d="M2429 4658 c7 -10 11 -25 7 -33 -3 -9 -2 -13 4 -10 15 10 12 31 -7
46 -16 13 -17 12 -4 -3z"/>
<path d="M2011 4643 c7 -10 14 -20 16 -22 1 -2 1 6 0 18 -1 11 -8 21 -15 21
-12 0 -12 -3 -1 -17z"/>
<path d="M2058 4653 c7 -3 16 -2 19 1 4 3 -2 6 -13 5 -11 0 -14 -3 -6 -6z"/>
<path d="M2582 4640 c0 -14 2 -19 5 -12 2 6 2 18 0 25 -3 6 -5 1 -5 -13z"/>
<path d="M2712 4640 c0 -14 2 -19 5 -12 2 6 2 18 0 25 -3 6 -5 1 -5 -13z"/>
<path d="M2740 4656 c0 -2 7 -7 16 -10 8 -3 12 -2 9 4 -6 10 -25 14 -25 6z"/>
<path d="M2190 4633 c0 -15 2 -16 10 -3 9 13 11 13 21 0 9 -13 10 -13 6 0 -6
22 -37 25 -37 3z"/>
<path d="M2360 4637 c0 -8 -8 -18 -17 -20 -17 -4 -17 -5 0 -6 18 -1 35 25 23
36 -3 4 -6 -1 -6 -10z"/>
<path d="M2535 4639 c-4 -6 -4 -13 -1 -16 3 -4 6 0 6 8 0 11 2 11 10 -1 8 -13
10 -12 10 3 0 19 -15 23 -25 6z"/>
<path d="M2380 4631 c0 -6 4 -13 10 -16 6 -3 7 1 4 9 -7 18 -14 21 -14 7z"/>
<path d="M2640 4631 c0 -10 19 -25 25 -20 1 2 -3 10 -11 17 -8 7 -14 8 -14 3z"/>
<path d="M2730 4627 c0 -10 8 -17 18 -17 9 0 13 4 7 8 -5 4 -13 11 -17 16 -5
5 -8 2 -8 -7z"/>
<path d="M4525 4529 c-4 -6 -5 -12 -2 -15 2 -3 7 2 10 11 7 17 1 20 -8 4z"/>
<path d="M4155 4488 c11 -6 27 -16 35 -22 9 -6 5 -1 -8 12 -13 12 -28 22 -35
22 -7 0 -3 -6 8 -12z"/>
<path d="M4500 4474 c0 -14 8 -33 17 -42 16 -16 16 -16 10 1 -4 10 -7 30 -7
43 0 13 -4 24 -10 24 -5 0 -10 -12 -10 -26z"/>
<path d="M1207 4412 c-27 -29 -20 -51 28 -99 25 -24 45 -50 45 -57 0 -24 41
-66 64 -66 21 0 23 4 23 58 0 49 -4 62 -28 90 -16 18 -29 37 -29 42 0 19 -40
50 -63 50 -13 0 -31 -8 -40 -18z"/>
<path d="M4336 4407 c3 -10 9 -15 12 -12 3 3 0 11 -7 18 -10 9 -11 8 -5 -6z"/>
<path d="M4370 4380 c8 -5 20 -10 25 -10 6 0 3 5 -5 10 -8 5 -19 10 -25 10 -5
0 -3 -5 5 -10z"/>
<path d="M10300 4333 c-6 -32 -13 -71 -16 -88 -10 -53 -15 -65 -30 -65 -8 0
-13 -4 -10 -8 3 -5 -1 -9 -9 -9 -8 0 -15 4 -15 9 0 4 -5 8 -11 8 -5 0 -7 -4
-4 -10 3 -5 -1 -10 -9 -10 -9 0 -16 -6 -16 -14 0 -8 -10 -22 -22 -32 -16 -11
-17 -15 -5 -11 11 4 17 1 17 -8 0 -12 14 -15 58 -15 77 0 127 15 146 45 24 37
39 32 32 -10 l-7 -35 59 0 59 0 7 40 c5 33 10 40 29 40 23 0 46 -21 67 -59 9
-18 20 -21 70 -21 l58 0 9 52 c4 29 14 53 22 56 11 4 13 -6 7 -52 l-6 -56 120
0 c89 0 120 3 120 13 0 6 3 22 6 35 6 21 4 22 -55 22 -54 0 -61 2 -61 20 0 19
7 20 95 20 104 0 102 -1 108 75 l2 30 -94 -4 c-75 -3 -93 -1 -89 10 3 9 25 15
64 17 61 3 74 12 74 50 0 22 -1 23 -117 20 l-117 -3 -7 -30 c-4 -16 -10 -42
-13 -57 -4 -16 -11 -28 -17 -28 -8 0 -9 19 -5 60 l7 60 -54 0 c-61 0 -62 -1
-73 -80 -7 -54 -20 -73 -30 -43 -11 32 -38 83 -46 83 -3 0 -10 9 -13 20 -5 16
-15 20 -56 20 -30 0 -56 -6 -64 -14 -8 -8 -20 -49 -27 -92 -11 -62 -17 -80
-32 -82 -13 -3 -17 1 -12 15 3 10 12 53 19 96 l13 77 -57 0 -58 0 -11 -57z"/>
<path d="M4420 4362 c8 -5 26 -13 40 -16 17 -5 20 -4 10 2 -8 5 -26 13 -40 16
-17 5 -20 4 -10 -2z"/>
<path d="M4498 4333 c7 -3 16 -2 19 1 4 3 -2 6 -13 5 -11 0 -14 -3 -6 -6z"/>
<path d="M4535 4330 c-3 -5 -1 -10 4 -10 6 0 11 5 11 10 0 6 -2 10 -4 10 -3 0
-8 -4 -11 -10z"/>
<path d="M2922 4258 c2 -41 7 -54 21 -56 10 -2 17 3 17 12 0 9 8 16 20 16 11
0 20 5 20 11 0 22 -42 69 -61 69 -18 0 -20 -6 -17 -52z"/>
<path d="M2816 4231 c-15 -17 -15 -21 2 -62 11 -24 27 -51 37 -59 17 -14 17
-12 12 40 -4 30 -7 65 -7 78 0 27 -21 29 -44 3z"/>
<path d="M6370 4185 c0 -22 2 -24 14 -13 9 8 10 15 3 19 -5 4 -2 9 9 12 16 4
16 5 -3 6 -18 1 -23 -4 -23 -24z"/>
<path d="M6444 4202 c-16 -11 -24 -61 -8 -55 6 2 14 18 16 34 3 16 4 29 4 29
-1 0 -6 -4 -12 -8z"/>
<path d="M6470 4182 c0 -25 1 -25 17 -10 14 15 18 15 27 3 9 -12 13 -11 26 3
13 14 12 15 -3 9 -9 -3 -19 -2 -22 3 -3 5 5 10 17 13 13 2 4 4 -19 4 -40 1
-43 -1 -43 -25z m30 14 c0 -3 -4 -8 -10 -11 -5 -3 -10 -1 -10 4 0 6 5 11 10
11 6 0 10 -2 10 -4z"/>
<path d="M6378 4143 c6 -2 18 -2 25 0 6 3 1 5 -13 5 -14 0 -19 -2 -12 -5z"/>
<path d="M1545 4090 c-10 -16 14 -50 36 -50 28 0 37 30 14 46 -22 16 -41 18
-50 4z"/>
<path d="M9033 4044 c-14 -15 -34 -24 -52 -24 -17 0 -31 -6 -35 -16 -9 -23 -8
-24 19 -24 14 0 25 -6 25 -13 0 -7 6 -21 13 -31 17 -23 57 -13 57 14 0 23 37
31 119 27 66 -3 82 18 22 28 -31 5 -45 14 -58 36 -14 24 -24 29 -53 28 -23 -1
-42 -9 -57 -25z"/>
<path d="M10150 4017 c0 -10 8 -17 18 -17 9 0 13 4 7 8 -5 4 -13 11 -17 16 -5
5 -8 2 -8 -7z"/>
<path d="M10220 4011 c-12 -24 -13 -31 -1 -31 5 0 11 11 13 25 6 30 2 32 -12
6z"/>
<path d="M10250 4012 c0 -15 4 -20 16 -15 9 3 12 9 7 12 -4 3 -11 10 -15 15
-5 5 -8 0 -8 -12z"/>
<path d="M10537 4023 c-10 -9 -8 -41 2 -47 5 -4 7 3 4 15 -4 12 0 25 8 30 8 5
9 9 3 9 -6 0 -14 -3 -17 -7z"/>
<path d="M10577 4023 c-10 -10 -8 -35 2 -29 5 4 12 0 14 -6 7 -16 27 9 26 32
0 10 -2 11 -6 3 -2 -7 -11 -13 -19 -13 -9 0 -12 5 -9 10 7 11 2 13 -8 3z"/>
<path d="M10638 4023 c7 -3 16 -2 19 1 4 3 -2 6 -13 5 -11 0 -14 -3 -6 -6z"/>
<path d="M10780 4023 c0 -15 29 -49 30 -35 0 7 -7 20 -15 28 -8 9 -15 11 -15
7z"/>
<path d="M10880 4005 c0 -14 2 -25 4 -25 2 0 6 11 8 25 3 14 1 25 -3 25 -5 0
-9 -11 -9 -25z"/>
<path d="M10981 4014 c0 -11 3 -14 6 -6 3 7 2 16 -1 19 -3 4 -6 -2 -5 -13z"/>
<path d="M11036 4021 c-3 -5 2 -15 12 -22 15 -12 16 -12 5 2 -7 9 -10 19 -6
22 3 4 4 7 0 7 -3 0 -8 -4 -11 -9z"/>
<path d="M1503 4013 c-7 -2 -13 -9 -13 -14 0 -14 26 -10 40 6 10 12 10 15 -1
14 -8 0 -20 -3 -26 -6z"/>
<path d="M10725 4005 c17 -14 18 -17 5 -26 -12 -9 -12 -10 -1 -7 24 7 24 26
-1 38 -22 11 -22 11 -3 -5z"/>
<path d="M10301 3993 c7 -10 14 -20 16 -22 1 -2 1 6 0 18 -1 11 -8 21 -15 21
-12 0 -12 -3 -1 -17z"/>
<path d="M10347 4003 c-13 -13 -7 -33 11 -33 14 0 15 2 2 10 -13 9 -13 11 0
20 8 5 10 10 4 10 -6 0 -14 -3 -17 -7z"/>
<path d="M10434 3990 c0 -13 4 -16 10 -10 7 7 7 13 0 20 -6 6 -10 3 -10 -10z"/>
<path d="M11011 3994 c0 -11 3 -14 6 -6 3 7 2 16 -1 19 -3 4 -6 -2 -5 -13z"/>
<path d="M2961 3989 c-50 -15 -25 -31 45 -27 44 2 59 7 59 18 0 18 -55 23
-104 9z"/>
<path d="M10490 3992 c0 -5 7 -9 15 -9 8 0 15 4 15 9 0 4 -7 8 -15 8 -8 0 -15
-4 -15 -8z"/>
<path d="M10650 3991 c0 -7 -4 -9 -10 -6 -5 3 -10 1 -10 -4 0 -6 4 -11 9 -11
13 0 25 20 17 27 -3 4 -6 1 -6 -6z"/>
<path d="M10826 3992 c-3 -5 1 -9 9 -9 8 0 15 4 15 9 0 4 -4 8 -9 8 -6 0 -12
-4 -15 -8z"/>
<path d="M10150 3980 c0 -6 7 -10 15 -10 8 0 15 2 15 4 0 2 -7 6 -15 10 -8 3
-15 1 -15 -4z"/>
<path d="M10937 3979 c7 -7 15 -10 18 -7 3 3 -2 9 -12 12 -14 6 -15 5 -6 -5z"/>
<path d="M11030 3980 c0 -5 5 -10 11 -10 5 0 7 5 4 10 -3 6 -8 10 -11 10 -2 0
-4 -4 -4 -10z"/>
<path d="M9505 3969 c-16 -5 -42 -7 -57 -3 -23 4 -29 0 -43 -30 -20 -42 -67
-66 -128 -66 -54 0 -70 -16 -62 -62 5 -26 1 -40 -19 -67 -15 -19 -26 -39 -26
-43 0 -4 32 -8 70 -8 59 0 72 -3 78 -18 39 -101 234 -182 329 -137 76 36 126
19 99 -33 -11 -22 -32 -37 -73 -53 -50 -20 -73 -23 -166 -21 -86 3 -114 0
-133 -13 -22 -14 -34 -54 -16 -56 108 -8 172 -31 192 -69 6 -10 13 -47 16 -82
8 -76 25 -108 59 -108 31 0 65 33 65 63 0 34 19 47 66 47 42 0 195 -43 218
-61 6 -4 27 -21 46 -37 51 -42 95 -62 151 -69 27 -3 49 -9 49 -13 0 -3 30 -12
68 -19 65 -12 201 -69 228 -96 18 -18 60 -31 178 -55 108 -22 126 -31 126 -64
0 -71 85 -206 130 -206 21 0 40 -41 40 -85 0 -19 3 -35 8 -35 4 0 12 -10 17
-22 6 -13 23 -29 38 -36 24 -12 26 -15 13 -25 -34 -26 -49 -142 -26 -203 l10
-26 83 7 c80 6 83 6 122 -23 22 -16 67 -55 100 -86 65 -62 89 -79 99 -69 13
13 5 205 -13 344 -21 156 -21 97 9 914 10 242 10 327 1 349 -11 28 -13 29 -68
23 -31 -3 -59 -10 -62 -16 -4 -5 -29 -13 -56 -16 -46 -6 -53 -4 -82 22 -21 19
-72 42 -147 67 -64 21 -116 42 -116 46 0 10 -115 43 -131 38 -11 -4 -66 31
-119 75 -19 16 -131 16 -150 0 -55 -47 -109 -85 -132 -94 -16 -6 -28 -15 -28
-20 0 -5 -6 -9 -13 -9 -25 0 -48 -25 -41 -44 5 -14 15 -17 45 -14 36 3 39 1
39 -21 0 -13 5 -41 12 -62 12 -42 15 -37 -49 -104 -90 -95 -184 -155 -243
-155 -25 0 -54 40 -68 95 -19 72 -32 83 -69 56 -34 -26 -60 -20 -74 16 -5 13
-9 86 -9 161 -1 138 -18 264 -38 284 -9 9 -25 6 -62 -12 l-50 -23 -50 23 c-27
13 -50 26 -50 30 0 12 -58 40 -82 39 -12 0 -36 -5 -53 -10z m1120 -278 c17 -7
13 -12 -30 -44 -27 -19 -53 -33 -57 -31 -17 11 -7 43 18 63 28 22 38 24 69 12z"/>
<path d="M8330 3940 c-17 -33 -12 -78 10 -85 11 -3 27 -13 35 -21 13 -14 17
-14 31 1 18 18 18 18 -13 34 -17 9 -23 21 -23 45 0 39 -24 55 -40 26z"/>
<path d="M10300 3921 c0 -16 -7 -34 -15 -41 -8 -7 -15 -28 -15 -46 0 -31 3
-34 30 -34 35 0 70 31 70 61 0 36 -31 89 -51 89 -14 0 -19 -7 -19 -29z"/>
<path d="M1486 3911 c-3 -5 0 -11 8 -14 15 -6 26 1 26 15 0 11 -27 10 -34 -1z"/>
<path d="M2907 3913 c-10 -9 -8 -45 1 -61 11 -17 40 -5 47 19 10 32 -27 64
-48 42z"/>
<path d="M1560 3807 c0 -7 5 -18 12 -25 9 -9 9 -18 0 -37 -16 -35 -16 -36 13
-69 14 -16 25 -32 25 -36 0 -17 40 -51 67 -56 l30 -6 -1 63 c-2 54 -6 67 -29
91 -16 15 -33 41 -38 58 -9 25 -16 30 -45 30 -21 0 -34 -5 -34 -13z"/>
<path d="M7259 3743 c-19 -4 -30 -65 -17 -86 6 -9 12 -8 22 6 20 26 36 20 36
-14 0 -29 2 -31 27 -26 15 3 36 1 46 -4 13 -7 19 -6 23 6 4 9 18 15 35 15 32
0 39 19 15 40 -8 6 -16 23 -18 38 -3 26 -5 27 -78 27 -41 1 -82 0 -91 -2z"/>
<path d="M4030 3691 c0 -15 6 -21 21 -21 25 0 22 33 -4 38 -12 2 -17 -3 -17
-17z"/>
<path d="M8357 3682 c-9 -2 -24 -17 -32 -33 -15 -28 -14 -29 10 -35 13 -3 39
-1 56 5 18 6 43 11 55 11 23 0 33 23 16 34 -16 10 -87 22 -105 18z"/>
<path d="M8961 3664 c-18 -8 -43 -14 -54 -14 -27 0 -57 -28 -50 -46 3 -8 18
-14 33 -14 15 0 33 -7 40 -15 7 -9 23 -15 34 -13 16 2 20 9 18 30 -2 15 4 38
13 51 21 32 9 39 -34 21z"/>
<path d="M3158 3643 c-12 -3 -18 -14 -18 -33 0 -15 -7 -33 -15 -40 -20 -16
-19 -56 1 -64 9 -3 27 -6 40 -6 13 0 24 -4 24 -10 0 -5 9 -10 20 -10 27 0 60
-39 60 -71 0 -15 7 -34 15 -42 21 -22 164 -92 171 -84 4 3 1 20 -4 37 -9 25
-8 38 6 66 19 42 9 53 -48 54 -19 0 -40 4 -47 8 -17 11 -53 108 -53 143 0 22
-6 32 -26 41 -22 10 -27 9 -35 -5 -10 -17 -31 -14 -59 8 -8 6 -23 10 -32 8z"/>
<path d="M7785 3627 c-22 -12 -41 -25 -43 -29 -5 -12 -62 -10 -62 2 0 15 -39
12 -56 -4 -7 -8 -18 -16 -24 -18 -5 -1 -12 -18 -16 -35 -6 -29 -4 -33 16 -33
12 0 30 8 39 19 17 20 77 33 154 33 l47 -1 0 45 c0 24 -3 44 -7 44 -5 -1 -26
-11 -48 -23z"/>
<path d="M7990 3625 c-7 -8 -22 -15 -34 -15 -24 0 -84 -55 -73 -66 4 -4 30 0
58 9 28 9 54 15 59 12 4 -2 24 11 44 29 37 33 37 33 14 39 -37 10 -55 8 -68
-8z"/>
<path d="M1762 3533 c2 -12 12 -18 28 -18 36 0 33 29 -3 33 -23 3 -28 0 -25
-15z"/>
<path d="M1830 3455 c0 -9 9 -15 25 -15 28 0 34 15 9 24 -25 10 -34 7 -34 -9z"/>
<path d="M1891 3370 l-19 -39 23 -15 c15 -10 25 -29 29 -59 6 -37 11 -46 32
-50 13 -2 26 -1 29 3 10 16 -26 176 -42 188 -25 18 -31 15 -52 -28z"/>
<path d="M8768 3370 c-19 -34 -24 -34 -153 -20 -75 8 -82 7 -116 -15 -20 -13
-52 -28 -70 -33 -30 -7 -34 -13 -37 -45 -2 -20 1 -37 7 -37 21 0 61 24 61 37
0 18 38 17 56 -2 23 -23 68 -18 98 10 15 14 28 25 30 25 17 0 66 -25 70 -36 7
-19 80 -18 100 1 18 18 87 20 104 3 7 -7 12 -22 12 -34 0 -18 9 -23 53 -34 28
-6 70 -13 92 -14 37 -1 40 1 43 27 3 21 -6 36 -40 67 -47 44 -89 60 -160 60
-63 0 -96 14 -100 42 -5 34 -31 33 -50 -2z"/>
<path d="M8190 3303 c-14 -10 -47 -18 -79 -19 -31 -1 -59 -3 -63 -3 -9 -1 -48
-42 -48 -50 0 -3 14 -14 30 -23 17 -9 30 -25 30 -35 0 -10 11 -35 25 -56 l26
-37 21 20 c19 17 44 25 108 33 8 1 19 14 24 29 8 21 6 32 -8 46 -10 12 -16 33
-14 54 2 33 -7 58 -20 58 -4 0 -18 -8 -32 -17z"/>
<path d="M5727 3263 c-12 -12 -7 -33 8 -40 17 -6 47 26 39 39 -6 10 -38 10
-47 1z"/>
<path d="M8453 3176 c-22 -14 -32 -28 -30 -41 5 -41 61 -24 88 27 16 30 -20
38 -58 14z"/>
<path d="M3550 3144 c0 -16 5 -24 13 -21 6 2 11 10 9 17 -2 7 3 17 10 21 9 6
6 9 -9 9 -18 0 -23 -6 -23 -26z"/>
<path d="M3626 3161 c-3 -4 -10 -20 -15 -34 -8 -21 -7 -25 3 -21 8 3 16 19 18
35 5 30 3 35 -6 20z"/>
<path d="M3650 3145 c0 -26 14 -33 26 -13 4 7 3 8 -4 4 -7 -4 -12 -1 -12 8 0
8 6 17 13 19 7 3 5 6 -5 6 -13 1 -18 -7 -18 -24z"/>
<path d="M3698 3163 c6 -2 18 -2 25 0 6 3 1 5 -13 5 -14 0 -19 -2 -12 -5z"/>
<path d="M3901 3154 c0 -11 3 -14 6 -6 3 7 2 16 -1 19 -3 4 -6 -2 -5 -13z"/>
<path d="M3937 3163 c-10 -9 -8 -63 2 -63 4 0 6 12 3 26 -3 16 1 30 9 35 8 5
9 9 3 9 -6 0 -14 -3 -17 -7z"/>
<path d="M3998 3163 c6 -2 12 -11 12 -19 0 -8 -6 -11 -15 -8 -8 4 -15 2 -15
-4 0 -17 28 -22 34 -6 11 28 6 44 -11 43 -11 0 -13 -3 -5 -6z"/>
<path d="M4035 3159 c-11 -16 -1 -19 13 -3 7 8 8 14 3 14 -5 0 -13 -5 -16 -11z"/>
<path d="M4088 3163 c7 -3 16 -2 19 1 4 3 -2 6 -13 5 -11 0 -14 -3 -6 -6z"/>
<path d="M4125 3160 c-4 -6 -1 -18 6 -26 10 -13 10 -17 -2 -25 -11 -7 -11 -9
4 -9 20 0 23 20 5 38 -10 10 -10 15 2 22 9 6 10 10 3 10 -6 0 -15 -5 -18 -10z"/>
<path d="M4181 3155 c0 -11 6 -29 14 -39 15 -19 15 -19 15 2 0 12 -4 22 -9 22
-5 0 -12 8 -14 18 -4 14 -5 14 -6 -3z"/>
<path d="M4251 3154 c0 -11 3 -14 6 -6 3 7 2 16 -1 19 -3 4 -6 -2 -5 -13z"/>
<path d="M4335 3159 c-4 -6 -4 -13 -1 -16 3 -4 6 -1 6 5 0 7 5 12 10 12 6 0
10 -12 10 -26 0 -21 -4 -25 -17 -19 -13 4 -15 3 -7 -5 16 -16 43 -1 41 23 -2
32 -29 48 -42 26z"/>
<path d="M4392 3150 c0 -14 2 -19 5 -12 2 6 2 18 0 25 -3 6 -5 1 -5 -13z"/>
<path d="M3690 3129 c0 -11 27 -12 34 -1 2 4 -4 9 -15 9 -10 1 -19 -2 -19 -8z"/>
<path d="M3845 3130 c4 -7 2 -16 -6 -21 -11 -7 -10 -9 4 -9 19 0 23 25 5 36
-7 5 -8 3 -3 -6z"/>
<path d="M4087 3129 c7 -7 15 -10 18 -7 3 3 -2 9 -12 12 -14 6 -15 5 -6 -5z"/>
<path d="M4281 3124 c0 -11 3 -14 6 -6 3 7 2 16 -1 19 -3 4 -6 -2 -5 -13z"/>
<path d="M4412 3120 c0 -14 2 -19 5 -12 2 6 2 18 0 25 -3 6 -5 1 -5 -13z"/>
<path d="M3890 3121 c0 -5 7 -11 14 -14 10 -4 13 -1 9 9 -6 15 -23 19 -23 5z"/>
<path d="M4227 3123 c-13 -13 -7 -21 13 -16 11 3 20 9 20 14 0 10 -24 12 -33
2z"/>
<path d="M3740 3110 c0 -6 7 -10 15 -10 8 0 15 2 15 4 0 2 -7 6 -15 10 -8 3
-15 1 -15 -4z"/>
<path d="M3780 3110 c0 -6 7 -10 15 -10 8 0 15 2 15 4 0 2 -7 6 -15 10 -8 3
-15 1 -15 -4z"/>
<path d="M4040 3110 c-9 -6 -10 -10 -3 -10 6 0 15 5 18 10 8 12 4 12 -15 0z"/>
<path d="M4070 3109 c0 -5 9 -9 20 -9 11 0 20 2 20 4 0 2 -9 6 -20 9 -11 3
-20 1 -20 -4z"/>
<path d="M3558 3103 c6 -2 18 -2 25 0 6 3 1 5 -13 5 -14 0 -19 -2 -12 -5z"/>
<path d="M3985 3011 c-64 -16 -102 -51 -128 -119 -32 -81 -18 -142 57 -253 20
-30 36 -61 36 -71 0 -9 6 -23 14 -31 14 -14 59 -148 51 -155 -8 -8 -64 10 -77
25 -7 9 -24 39 -38 67 -29 59 -40 64 -157 65 -81 1 -83 2 -98 31 -8 16 -24 34
-35 40 -26 14 -83 3 -109 -21 -20 -19 -86 -27 -93 -11 -4 10 -67 42 -82 42
-14 0 -46 -36 -46 -53 0 -6 -14 -30 -30 -51 -17 -22 -30 -52 -30 -66 0 -26
-30 -49 -63 -50 -19 -1 -57 -37 -57 -54 0 -21 53 -22 73 -1 9 9 47 17 105 21
84 6 91 5 101 -14 6 -11 11 -36 11 -54 0 -56 24 -68 158 -77 64 -5 142 -16
172 -25 91 -27 206 -31 307 -12 l88 18 100 -36 c55 -20 101 -40 103 -46 2 -5
13 -10 25 -10 12 0 38 -8 57 -18 22 -12 67 -21 125 -25 50 -4 106 -11 125 -17
45 -13 227 -13 235 0 12 19 143 11 198 -12 29 -12 54 -25 57 -29 3 -3 23 -9
45 -13 22 -4 59 -19 82 -33 38 -22 42 -23 36 -6 -3 10 -9 20 -13 23 -25 21
-40 66 -40 119 0 33 -4 72 -10 86 l-10 26 -118 -7 c-100 -6 -123 -4 -150 10
-18 9 -32 21 -32 26 0 6 -6 10 -13 10 -22 0 -97 70 -97 90 0 10 -8 27 -17 39
-15 17 -37 22 -128 31 -106 11 -155 24 -155 42 0 16 -55 57 -76 58 -25 0 -54
-29 -54 -56 0 -42 -52 -70 -124 -67 -207 6 -188 3 -181 32 4 14 10 28 13 31 4
3 18 37 31 75 22 65 83 180 113 215 17 20 18 152 1 157 -7 3 -13 11 -13 18 0
7 -18 29 -39 48 -56 51 -126 67 -206 48z m110 -156 c32 -31 31 -48 0 -80 -46
-45 -105 -22 -105 41 0 60 62 83 105 39z"/>
<path d="M7299 2944 c-7 -9 -14 -41 -16 -72 -2 -37 -11 -67 -24 -85 -11 -16
-23 -45 -26 -65 -3 -20 -10 -42 -15 -48 -5 -8 -3 -14 8 -18 28 -11 33 -7 36
32 3 32 7 37 31 40 19 2 27 9 27 22 0 10 -4 22 -10 25 -27 17 3 105 36 105 23
0 16 43 -10 62 -22 16 -25 16 -37 2z"/>
<path d="M7168 2911 c-11 -11 -14 -25 -11 -44 3 -15 0 -33 -6 -41 -12 -15 -18
-82 -8 -92 3 -4 17 -4 30 0 17 4 26 15 31 37 10 50 6 123 -7 140 -11 14 -13
14 -29 0z"/>
<path d="M6322 2828 c-7 -7 -12 -17 -12 -22 0 -6 5 -3 11 7 6 9 15 14 21 11 7
-4 8 -2 4 4 -9 15 -9 15 -24 0z"/>
<path d="M5530 2810 c0 -12 7 -20 18 -20 13 0 14 2 3 9 -7 5 -10 14 -7 20 4 6
2 11 -3 11 -6 0 -11 -9 -11 -20z"/>
<path d="M5581 2825 c-1 -6 4 -16 11 -23 9 -9 9 -12 0 -12 -7 0 -12 -4 -12
-10 0 -24 28 -7 32 20 3 22 2 27 -8 19 -8 -7 -14 -6 -17 3 -3 7 -6 8 -6 3z"/>
<path d="M5630 2804 c0 -14 4 -23 10 -19 5 3 6 13 3 22 -5 12 -2 15 10 10 9
-3 18 -3 21 1 2 4 -6 9 -20 10 -20 1 -24 -3 -24 -24z"/>
<path d="M5805 2820 c-4 -6 -1 -17 5 -25 6 -8 8 -20 4 -27 -5 -10 -4 -10 6 -1
11 10 11 15 0 28 -12 14 -11 18 1 26 9 5 10 9 2 9 -6 0 -15 -5 -18 -10z"/>
<path d="M5881 2814 c0 -11 3 -14 6 -6 3 7 2 16 -1 19 -3 4 -6 -2 -5 -13z"/>
<path d="M5917 2823 c-10 -9 -9 -51 2 -57 4 -3 6 6 3 20 -3 16 1 30 9 35 8 5
9 9 3 9 -6 0 -14 -3 -17 -7z"/>
<path d="M5957 2823 c-11 -10 -8 -45 3 -38 6 3 10 0 11 -7 0 -7 5 -2 10 11 5
13 8 29 5 35 -2 6 -5 3 -5 -6 -1 -10 -6 -18 -12 -18 -6 0 -9 7 -5 15 6 16 3
19 -7 8z"/>
<path d="M6161 2819 c0 -8 6 -24 14 -35 13 -17 14 -17 15 -1 0 9 -4 17 -9 17
-5 0 -12 8 -14 18 -4 13 -5 14 -6 1z"/>
<path d="M6214 2802 c-8 -22 -8 -29 1 -29 7 0 12 13 13 29 0 15 0 28 -1 28 -2
0 -7 -13 -13 -28z"/>
<path d="M6258 2823 c7 -3 16 -2 19 1 4 3 -2 6 -13 5 -11 0 -14 -3 -6 -6z"/>
<path d="M6362 2810 c0 -14 2 -19 5 -12 2 6 2 18 0 25 -3 6 -5 1 -5 -13z"/>
<path d="M9630 2811 c-5 -11 -7 -26 -4 -34 3 -8 -4 -33 -15 -56 -35 -68 -22
-92 27 -51 25 20 50 114 39 143 -9 23 -34 21 -47 -2z"/>
<path d="M9978 2790 c-20 -23 -35 -30 -62 -30 -31 0 -36 -3 -36 -24 0 -14 5
-28 10 -31 18 -11 11 -53 -12 -70 -21 -14 -23 -25 -26 -115 -3 -63 0 -100 6
-100 26 0 42 14 42 36 0 20 5 24 33 24 39 0 57 15 57 47 0 13 9 41 20 63 26
50 29 197 5 206 -8 4 -12 10 -9 15 11 18 -2 8 -28 -21z"/>
<path d="M6410 2806 c0 -2 8 -10 18 -17 15 -13 16 -12 3 4 -13 16 -21 21 -21
13z"/>
<path d="M5670 2796 c0 -2 6 -9 13 -15 10 -8 14 -7 14 4 0 8 -6 15 -14 15 -7
0 -13 -2 -13 -4z"/>
<path d="M5728 2793 c7 -3 16 -2 19 1 4 3 -2 6 -13 5 -11 0 -14 -3 -6 -6z"/>
<path d="M6104 2780 c0 -13 4 -16 10 -10 7 7 7 13 0 20 -6 6 -10 3 -10 -10z"/>
<path d="M6251 2784 c0 -11 3 -14 6 -6 3 7 2 16 -1 19 -3 4 -6 -2 -5 -13z"/>
<path d="M6381 2784 c0 -11 3 -14 6 -6 3 7 2 16 -1 19 -3 4 -6 -2 -5 -13z"/>
<path d="M7005 2790 c-3 -5 0 -27 7 -50 10 -32 17 -40 33 -38 15 2 21 12 23
39 3 33 0 38 -27 47 -17 6 -33 7 -36 2z"/>
<path d="M5870 2786 c0 -2 7 -7 16 -10 8 -3 12 -2 9 4 -6 10 -25 14 -25 6z"/>
<path d="M6022 2774 c-7 -8 -8 -14 -3 -14 10 0 25 19 20 25 -2 1 -10 -3 -17
-11z"/>
<path d="M5710 2769 c0 -5 9 -9 20 -9 11 0 20 2 20 4 0 2 -9 6 -20 9 -11 3
-20 1 -20 -4z"/>
<path d="M6057 2769 c7 -7 15 -10 18 -7 3 3 -2 9 -12 12 -14 6 -15 5 -6 -5z"/>
<path d="M6317 2769 c7 -7 15 -10 18 -7 3 3 -2 9 -12 12 -14 6 -15 5 -6 -5z"/>
<path d="M6410 2770 c0 -5 5 -10 11 -10 5 0 7 5 4 10 -3 6 -8 10 -11 10 -2 0
-4 -4 -4 -10z"/>
<path d="M5538 2763 c7 -3 16 -2 19 1 4 3 -2 6 -13 5 -11 0 -14 -3 -6 -6z"/>
<path d="M6696 2648 c-3 -13 -7 -58 -10 -100 -3 -60 -1 -78 9 -78 16 0 46 62
52 109 6 58 -40 122 -51 69z"/>
<path d="M5918 2646 c-63 -22 -88 -45 -114 -99 -27 -59 -30 -112 -10 -162 8
-19 12 -35 9 -35 -5 0 45 -70 57 -80 21 -15 104 -256 94 -272 -3 -4 -19 -8
-35 -8 -37 0 -76 -25 -95 -61 -20 -40 -18 -49 16 -49 17 0 30 5 30 10 0 6 23
10 52 10 28 0 80 7 115 16 69 17 162 15 251 -6 29 -7 56 -10 59 -6 4 3 9 32
11 64 6 78 -5 86 -110 84 -79 -2 -81 -1 -109 31 -16 17 -29 35 -29 40 0 12
-50 8 -50 -5 0 -6 -3 -9 -6 -5 -11 10 47 156 72 180 29 30 64 118 64 163 0 55
-37 129 -78 158 -71 48 -124 57 -194 32z m119 -153 c33 -44 2 -103 -53 -103
-61 0 -86 71 -38 109 30 24 72 21 91 -6z m40 -437 c26 -8 73 -54 73 -71 0 -19
-99 -21 -122 -2 -14 11 -14 17 0 66 13 44 17 50 23 33 4 -11 16 -23 26 -26z"/>
<path d="M5057 2384 c-33 -9 -57 -10 -73 -3 -34 12 -84 11 -84 -2 0 -6 9 -13
20 -16 10 -3 24 -19 30 -37 10 -31 11 -32 72 -31 51 0 66 4 85 23 12 12 31 22
42 22 20 0 37 32 26 50 -8 13 -58 11 -118 -6z"/>
<path d="M10880 2372 c-13 -6 -120 -119 -150 -158 -16 -22 -40 -73 -40 -87 0
-25 50 -31 71 -9 12 13 26 18 44 14 18 -3 33 2 49 17 13 12 36 25 52 30 36 9
54 43 54 101 0 76 -33 114 -80 92z"/>
<path d="M9254 2306 c-6 -7 -21 -33 -32 -58 -11 -25 -25 -49 -31 -52 -6 -4
-11 -16 -11 -27 0 -25 40 -26 47 0 2 10 17 28 33 39 32 24 50 89 28 103 -17
11 -21 11 -34 -5z"/>
<path d="M8039 2215 c-26 -7 -52 -15 -58 -19 -12 -8 -15 -45 -5 -70 5 -13 9
-12 24 6 14 18 27 21 74 20 44 -1 61 3 76 18 52 52 -4 75 -111 45z"/>
<path d="M4060 2141 c0 -15 30 -41 46 -41 8 0 14 -4 14 -10 0 -10 68 -26 76
-17 14 14 -10 57 -38 66 -38 13 -98 14 -98 2z"/>
<path d="M10952 2110 c-10 -16 -10 -20 1 -20 7 0 23 -11 35 -25 27 -30 39 -32
47 -5 7 23 -10 50 -31 50 -8 0 -14 5 -14 10 0 17 -25 11 -38 -10z"/>
<path d="M7269 2077 c-6 -13 -24 -32 -41 -42 -17 -10 -39 -26 -49 -36 -26 -26
-54 -24 -73 6 -13 20 -25 25 -60 25 -36 0 -47 -5 -60 -25 -13 -19 -25 -25 -54
-25 -28 0 -44 7 -60 25 -18 21 -31 25 -76 25 -35 0 -60 5 -70 15 -24 25 -81
19 -100 -10 -9 -13 -16 -29 -16 -35 0 -6 -10 -24 -22 -41 -30 -40 -11 -53 45
-33 27 10 78 14 156 13 64 -1 133 1 153 5 29 7 43 4 66 -12 31 -23 86 -26 103
-6 6 7 35 18 64 24 49 10 95 37 95 55 0 4 9 18 20 32 11 14 20 34 20 44 0 27
-28 24 -41 -4z"/>
<path d="M5410 2080 c-8 -5 -27 -10 -42 -10 -53 0 -77 -23 -38 -35 27 -8 70
-52 70 -70 0 -8 8 -19 18 -24 24 -13 62 -3 62 15 0 7 12 21 28 31 33 21 42 33
42 56 0 34 -103 61 -140 37z"/>
<path d="M7640 2078 c-14 -8 -26 -21 -28 -31 -3 -14 4 -17 40 -17 24 0 59 -3
78 -5 39 -6 94 26 75 44 -18 17 -137 23 -165 9z"/>
<path d="M5712 2068 c-7 -7 -12 -18 -12 -24 0 -7 -9 -16 -21 -19 -16 -5 -19
-12 -14 -35 5 -24 1 -30 -29 -48 -58 -34 -46 -43 47 -36 84 7 97 14 97 50 0
11 13 33 29 48 16 16 27 34 25 41 -12 30 -98 47 -122 23z"/>
<path d="M8238 2046 c-13 -13 -27 -31 -33 -40 -11 -18 -39 -20 -237 -17 -138
3 -162 -4 -209 -55 -58 -65 -112 -103 -175 -124 -90 -29 -150 -92 -160 -167
-10 -79 -8 -81 82 -77 47 3 84 10 93 18 9 8 47 44 85 80 38 36 75 66 81 66 6
0 29 18 51 40 51 53 94 75 182 93 48 10 78 22 90 36 10 12 43 28 77 36 69 18
111 54 121 103 8 40 -14 44 -48 8z"/>
<path d="M6466 1812 c-3 -5 -21 -12 -40 -15 -20 -3 -48 -17 -63 -32 l-28 -26
25 -20 c24 -21 32 -21 116 -4 49 10 142 -50 158 -103 11 -35 42 -47 72 -27 17
11 35 14 54 10 22 -5 31 -2 39 13 9 17 5 22 -33 36 -35 13 -45 23 -49 46 -5
24 -15 32 -58 47 -28 10 -63 30 -78 45 -28 28 -103 48 -115 30z"/>
</g>
</svg>
